<svg width="227" height="64" viewBox="0 0 227 64" fill="none" xmlns="http://www.w3.org/2000/svg">
<path d="M20.9889 25.68L20.7329 24.496C21.5862 23.8133 22.5036 23.3654 23.4849 23.1521C24.4876 22.9174 25.8316 22.8 27.5169 22.8H34.8449L34.9729 25.104L28.8609 24.976L28.9889 33.5201C29.0102 34.5868 29.1809 35.3014 29.5009 35.6641C29.8422 36.0268 30.3222 36.208 30.9409 36.208C31.1542 36.208 31.3889 36.1868 31.6449 36.1441C31.9009 36.0801 32.1356 36.0053 32.3489 35.92L32.6049 36.7201C32.2209 37.2961 31.8049 37.7227 31.3569 38C30.9302 38.2773 30.3969 38.416 29.7569 38.416C27.6022 38.416 26.5249 37.104 26.5249 34.48C26.5249 33.1573 26.5889 31.664 26.7169 30C26.8449 28.336 26.9836 26.6828 27.1329 25.0401L20.9889 25.68Z" fill="#FAFAFA"/>
</svg>
