<svg width="227" height="64" viewBox="0 0 227 64" fill="none" xmlns="http://www.w3.org/2000/svg">
<path d="M30.7731 43.792C31.0718 43.3227 31.3171 42.832 31.5091 42.32C31.7011 41.8293 31.7971 41.3387 31.7971 40.848C31.7971 40.3787 31.7331 39.984 31.6051 39.664C31.4771 39.3653 31.2105 39.088 30.8051 38.832C30.4211 38.576 29.8345 38.3093 29.0451 38.032C27.4238 37.4347 26.2398 36.6987 25.4931 35.824C24.7678 34.9493 24.4051 33.8507 24.4051 32.528C24.4051 31.5253 24.7678 30.2987 25.4931 28.848C26.2398 27.3973 27.4771 25.6693 29.2051 23.664C30.9331 21.6587 33.2691 19.312 36.2131 16.624H27.6371L28.0851 14.16L38.5811 14.64L38.3251 16.24C36.0851 18.4373 34.2398 20.3467 32.7891 21.968C31.3385 23.5893 30.1971 24.9973 29.3651 26.192C28.5331 27.3867 27.9465 28.4533 27.6051 29.392C27.2638 30.3307 27.0931 31.2053 27.0931 32.016C27.0931 32.9333 27.3171 33.6693 27.7651 34.224C28.2345 34.7787 29.0985 35.3013 30.3571 35.792C31.7438 36.3253 32.7038 36.88 33.2371 37.456C33.7705 38.032 34.0371 38.8107 34.0371 39.792C34.0371 40.5387 33.8558 41.2533 33.4931 41.936C33.1305 42.6187 32.5225 43.44 31.6691 44.4L30.7731 43.792Z" fill="black"/>
</svg>
