<svg width="227" height="64" viewBox="0 0 227 64" fill="none" xmlns="http://www.w3.org/2000/svg">
<path d="M22.8398 38C23.3091 36.336 23.7038 34.8853 24.0238 33.648C24.3438 32.3893 24.6211 31.248 24.8558 30.224C25.0904 29.2 25.2931 28.176 25.4638 27.152C25.6344 26.2347 25.6664 25.584 25.5598 25.2C25.4531 24.816 25.1864 24.624 24.7598 24.624C24.3544 24.624 24.0024 24.6667 23.7038 24.752C23.4051 24.8373 23.0104 24.9653 22.5198 25.136L22.1038 24.304C22.9571 23.5573 23.6398 23.056 24.1518 22.8C24.6638 22.544 25.2184 22.416 25.8158 22.416C27.4158 22.416 28.0878 23.6213 27.8318 26.032C29.9224 23.6213 31.7571 22.416 33.3358 22.416C34.1464 22.416 34.7758 22.6613 35.2238 23.152C35.6718 23.6213 35.8958 24.2827 35.8958 25.136C35.8958 25.5413 35.8851 25.936 35.8638 26.32C35.8424 26.704 35.7891 27.1627 35.7038 27.696C35.6184 28.2293 35.4904 28.9333 35.3198 29.808C35.1704 30.6613 34.9571 31.7813 34.6798 33.168L32.5998 43.472L29.8478 44.08L29.6238 43.76L31.2878 37.68C31.9278 35.376 32.4184 33.52 32.7598 32.112C33.1224 30.704 33.3784 29.584 33.5278 28.752C33.6771 27.8987 33.7518 27.184 33.7518 26.608C33.7518 26.032 33.6024 25.5947 33.3038 25.296C33.0051 24.9973 32.5998 24.848 32.0878 24.848C30.7438 24.848 29.2504 25.7333 27.6078 27.504L25.4638 38L23.1918 38.256L22.8398 38Z" fill="black"/>
</svg>
