<svg width="227" height="64" viewBox="0 0 227 64" fill="none" xmlns="http://www.w3.org/2000/svg">
<path d="M28.0007 39.416C27.5047 39.416 27.0808 39.256 26.7288 38.936C26.3928 38.616 26.2248 38.216 26.2248 37.736C26.2248 37.256 26.3928 36.856 26.7288 36.536C27.0808 36.2 27.5047 36.032 28.0007 36.032C28.5127 36.032 28.9367 36.2 29.2727 36.536C29.6087 36.856 29.7767 37.256 29.7767 37.736C29.7767 38.216 29.6087 38.616 29.2727 38.936C28.9367 39.256 28.5127 39.416 28.0007 39.416ZM28.0007 30.488C27.5047 30.488 27.0808 30.328 26.7288 30.008C26.3928 29.672 26.2248 29.264 26.2248 28.784C26.2248 28.304 26.3928 27.904 26.7288 27.584C27.0808 27.248 27.5047 27.08 28.0007 27.08C28.5127 27.08 28.9367 27.248 29.2727 27.584C29.6087 27.904 29.7767 28.304 29.7767 28.784C29.7767 29.264 29.6087 29.672 29.2727 30.008C28.9367 30.328 28.5127 30.488 28.0007 30.488ZM33.8327 34.304H22.1927V32.192H33.8327V34.304Z" fill="#FAFAFA"/>
</svg>
