<svg width="227" height="64" viewBox="0 0 227 64" fill="none" xmlns="http://www.w3.org/2000/svg">
<path d="M18.408 40.312C16.76 40.312 15.448 39.776 14.472 38.704C13.496 37.632 13.008 36.176 13.008 34.336C13.008 33.072 13.264 31.992 13.776 31.096C14.304 30.184 14.992 29.488 15.84 29.008C16.688 28.528 17.592 28.288 18.552 28.288C19.272 28.288 19.936 28.424 20.544 28.696C21.152 28.968 21.656 29.344 22.056 29.824C22.456 30.288 22.704 30.816 22.8 31.408C22.688 32.016 22.32 32.32 21.696 32.32C21.296 32.32 20.992 32.216 20.784 32.008C20.592 31.784 20.456 31.504 20.376 31.168L19.944 29.584C19.72 29.504 19.496 29.456 19.272 29.44C19.064 29.408 18.856 29.392 18.648 29.392C17.624 29.392 16.776 29.792 16.104 30.592C15.448 31.392 15.12 32.56 15.12 34.096C15.12 35.6 15.48 36.752 16.2 37.552C16.92 38.352 17.84 38.752 18.96 38.752C19.648 38.752 20.28 38.6 20.856 38.296C21.432 37.976 21.904 37.52 22.272 36.928L22.872 37.24C22.536 38.232 21.992 38.992 21.24 39.52C20.488 40.048 19.544 40.312 18.408 40.312ZM30.2948 40.312C29.3668 40.312 28.4788 40.096 27.6308 39.664C26.7988 39.216 26.1188 38.552 25.5908 37.672C25.0628 36.776 24.7988 35.672 24.7988 34.36C24.7988 33.032 25.0628 31.92 25.5908 31.024C26.1188 30.112 26.7988 29.432 27.6308 28.984C28.4788 28.52 29.3668 28.288 30.2948 28.288C31.2228 28.288 32.1028 28.52 32.9348 28.984C33.7828 29.432 34.4708 30.112 34.9988 31.024C35.5428 31.92 35.8148 33.032 35.8148 34.36C35.8148 35.672 35.5428 36.776 34.9988 37.672C34.4708 38.552 33.7828 39.216 32.9348 39.664C32.1028 40.096 31.2228 40.312 30.2948 40.312ZM30.2948 39.232C31.3348 39.232 32.1348 38.824 32.6948 38.008C33.2548 37.176 33.5348 35.96 33.5348 34.36C33.5348 32.744 33.2548 31.512 32.6948 30.664C32.1348 29.816 31.3348 29.392 30.2948 29.392C29.2548 29.392 28.4548 29.816 27.8948 30.664C27.3508 31.512 27.0788 32.744 27.0788 34.36C27.0788 35.96 27.3508 37.176 27.8948 38.008C28.4548 38.824 29.2548 39.232 30.2948 39.232ZM41.6906 40.312C41.0186 40.312 40.4026 40.232 39.8426 40.072C39.2826 39.928 38.7066 39.704 38.1146 39.4L38.0186 36.76H39.3386L39.7946 38.848C40.3546 39.104 41.0026 39.232 41.7386 39.232C42.6506 39.232 43.3226 39.064 43.7546 38.728C44.2026 38.392 44.4266 37.952 44.4266 37.408C44.4266 36.896 44.2426 36.488 43.8746 36.184C43.5066 35.864 42.9466 35.576 42.1946 35.32L41.0906 34.912C40.2106 34.592 39.5066 34.176 38.9786 33.664C38.4506 33.152 38.1866 32.488 38.1866 31.672C38.1866 31.08 38.3466 30.528 38.6666 30.016C38.9866 29.504 39.4586 29.088 40.0826 28.768C40.7066 28.448 41.4666 28.288 42.3626 28.288C43.0186 28.288 43.6106 28.376 44.1386 28.552C44.6826 28.712 45.2106 28.952 45.7226 29.272L45.6266 31.72H44.3786L43.9946 29.8C43.4506 29.528 42.8986 29.392 42.3386 29.392C41.6026 29.392 41.0426 29.544 40.6586 29.848C40.2906 30.136 40.1066 30.528 40.1066 31.024C40.1066 31.552 40.2666 31.952 40.5866 32.224C40.9226 32.496 41.4986 32.784 42.3146 33.088L43.0586 33.352C44.2586 33.8 45.1066 34.312 45.6026 34.888C46.1146 35.464 46.3706 36.128 46.3706 36.88C46.3706 37.488 46.1946 38.056 45.8426 38.584C45.4906 39.096 44.9706 39.512 44.2826 39.832C43.5946 40.152 42.7306 40.312 41.6906 40.312Z" fill="black"/>
<rect x="50" y="26" width="13" height="15" fill="#FF0000" fill-opacity="0.2"/>
<path d="M53.2172 36.136C53.2172 36.872 53.3372 37.416 53.5772 37.768C53.8332 38.104 54.1692 38.272 54.5852 38.272C54.9532 38.272 55.3612 38.136 55.8092 37.864C56.2572 37.576 56.7772 37.12 57.3692 36.496L58.7132 30.232C58.5052 30.12 58.2812 30.032 58.0412 29.968C57.8172 29.888 57.5852 29.848 57.3452 29.848C56.6732 29.848 55.9532 30.216 55.1852 30.952C54.8172 31.32 54.4812 31.792 54.1772 32.368C53.8732 32.928 53.6332 33.536 53.4572 34.192C53.2972 34.848 53.2172 35.496 53.2172 36.136ZM58.7132 40.336C58.2492 40.336 57.8652 40.192 57.5612 39.904C57.2572 39.6 57.1052 39.152 57.1052 38.56C57.1052 38.416 57.1052 38.28 57.1052 38.152C57.1212 38.008 57.1372 37.872 57.1532 37.744C56.4812 38.512 55.7772 39.136 55.0412 39.616C54.3052 40.096 53.6092 40.336 52.9532 40.336C52.3452 40.336 51.7932 40.104 51.2972 39.64C50.8012 39.16 50.5532 38.368 50.5532 37.264C50.5532 36.416 50.7132 35.56 51.0332 34.696C51.3532 33.832 51.7852 33.016 52.3292 32.248C52.8732 31.464 53.4812 30.768 54.1532 30.16C54.8252 29.536 55.5212 29.048 56.2412 28.696C56.9612 28.344 57.6492 28.168 58.3052 28.168C58.6252 28.168 58.9132 28.232 59.1692 28.36C59.4252 28.472 59.6732 28.64 59.9132 28.864L61.3772 28.024L61.7852 28.288L59.8652 36.712C59.7372 37.256 59.6732 37.656 59.6732 37.912C59.6732 38.248 59.8412 38.416 60.1772 38.416C60.4492 38.416 60.7532 38.272 61.0892 37.984C61.4412 37.68 61.8172 37.28 62.2172 36.784L62.8652 37.264C62.5612 37.744 62.1932 38.224 61.7612 38.704C61.3292 39.168 60.8572 39.56 60.3452 39.88C59.8332 40.184 59.2892 40.336 58.7132 40.336Z" fill="#FF0000" fill-opacity="0.2"/>
</svg>
