<svg width="227" height="64" viewBox="0 0 227 64" fill="none" xmlns="http://www.w3.org/2000/svg">
<path d="M30.498 44.3999L29.57 43.7919C29.9113 43.2159 30.1673 42.7039 30.338 42.2559C30.5087 41.8079 30.594 41.2852 30.594 40.6879C30.594 40.1759 30.4447 39.7172 30.146 39.3119C29.8687 38.9066 29.1967 38.5226 28.13 38.1599C26.466 37.5626 25.2287 36.8372 24.418 35.9839C23.6073 35.1092 23.202 33.9039 23.202 32.3679C23.202 31.4719 23.426 30.6079 23.874 29.7759C24.322 28.9226 25.0153 28.1866 25.954 27.5679C26.914 26.9492 28.13 26.5226 29.602 26.2879C28.386 25.8826 27.458 25.2746 26.818 24.4639C26.178 23.6532 25.858 22.7892 25.858 21.8719C25.858 20.5492 26.242 19.4399 27.01 18.5439C27.778 17.6479 28.8127 16.9972 30.114 16.5919H25.186L25.602 14.1599L37.09 14.6399L36.77 16.4639C34.6367 16.4639 32.9513 16.6666 31.714 17.0719C30.4767 17.4559 29.5913 18.0106 29.058 18.7359C28.5247 19.4612 28.258 20.3466 28.258 21.3919C28.258 22.0319 28.4393 22.6506 28.802 23.2479C29.1647 23.8239 29.6873 24.3039 30.37 24.6879C31.0527 25.0506 31.8847 25.2319 32.866 25.2319C33.122 25.2319 33.3887 25.2212 33.666 25.1999C33.9433 25.1786 34.2847 25.1572 34.69 25.1359L34.242 27.3119H31.682C29.7407 27.3119 28.2687 27.7386 27.266 28.5919C26.2633 29.4239 25.762 30.5439 25.762 31.9519C25.762 32.8052 26.0287 33.5519 26.562 34.1919C27.1167 34.8106 28.1193 35.3972 29.57 35.9519C30.5087 36.2932 31.2127 36.6772 31.682 37.1039C32.1513 37.5306 32.4607 37.9679 32.61 38.4159C32.7593 38.8852 32.834 39.3652 32.834 39.8559C32.834 40.4746 32.674 41.1252 32.354 41.8079C32.034 42.4906 31.4153 43.3546 30.498 44.3999Z" fill="#FAFAFA"/>
</svg>
