<svg width="227" height="64" viewBox="0 0 227 64" fill="none" xmlns="http://www.w3.org/2000/svg">
<path d="M23.1726 33.1041C23.1726 35.1734 23.6953 36.2081 24.7406 36.2081C25.4233 36.2081 26.202 35.8134 27.0766 35.0241C27.9726 34.2348 28.9966 33.0294 30.1486 31.4081L29.7006 27.4081C29.5513 26.0854 29.3166 25.1788 28.9966 24.6881C28.698 24.1761 28.2926 23.9201 27.7806 23.9201C27.1406 23.9201 26.5433 24.2401 25.9886 24.8801C25.434 25.4988 24.9433 26.2988 24.5166 27.2801C24.09 28.2401 23.7593 29.2428 23.5246 30.2881C23.29 31.3334 23.1726 32.2721 23.1726 33.1041ZM23.7486 38.4161C22.7033 38.4161 21.9033 38.0428 21.3486 37.2961C20.794 36.5494 20.5166 35.4828 20.5166 34.0961C20.5166 33.1361 20.6446 32.1228 20.9006 31.0561C21.1566 29.9894 21.5193 28.9441 21.9886 27.9201C22.458 26.8961 23.0126 25.9681 23.6526 25.1361C24.2926 24.3041 24.9966 23.6428 25.7646 23.1521C26.554 22.6614 27.386 22.4161 28.2606 22.4161C29.2206 22.4161 29.9993 22.7148 30.5966 23.3121C31.194 23.8881 31.5886 24.9334 31.7806 26.4481L32.0366 28.5921L35.1406 22.3201L37.4766 23.3441V23.6001L32.3246 30.6721L32.7406 34.0001C32.8473 34.9174 32.9966 35.5254 33.1886 35.8241C33.3806 36.1014 33.7006 36.2401 34.1486 36.2401C34.7033 36.2401 35.354 35.9094 36.1006 35.2481L36.6126 36.0161C35.3326 37.6161 34.074 38.4161 32.8366 38.4161C32.1326 38.4161 31.61 38.2028 31.2686 37.7761C30.9486 37.3281 30.7353 36.5921 30.6286 35.5681L30.3406 32.9441C29.4446 34.3521 28.6126 35.4508 27.8446 36.2401C27.0766 37.0294 26.3513 37.5948 25.6686 37.9361C25.0073 38.2561 24.3673 38.4161 23.7486 38.4161Z" fill="#FAFAFA"/>
</svg>
