<svg width="227" height="64" viewBox="0 0 227 64" fill="none" xmlns="http://www.w3.org/2000/svg">
<path d="M33.3432 38.416C32.6818 38.416 32.1698 38.2027 31.8072 37.776C31.4445 37.328 31.2632 36.7093 31.2632 35.92C31.2632 35.728 31.2952 35.376 31.3592 34.864C30.5912 36.0373 29.7592 36.9227 28.8632 37.52C27.9885 38.1173 27.1992 38.416 26.4952 38.416C25.2365 38.416 24.3618 37.7653 23.8712 36.464L22.9752 43.536L20.4472 44.016L20.0952 43.76L22.6552 34.768L24.5752 22.992L27.1992 22.416L27.4552 22.736C26.9432 24.848 26.5058 26.608 26.1432 28.016C25.8018 29.424 25.5138 30.6187 25.2792 31.6C25.0658 32.56 24.8738 33.4667 24.7032 34.32C24.9378 34.9173 25.2685 35.344 25.6952 35.6C26.1218 35.856 26.5912 35.984 27.1032 35.984C27.8498 35.984 28.6072 35.76 29.3752 35.312C30.1645 34.8427 30.9112 34.1387 31.6152 33.2C31.7005 32.8373 31.7858 32.4107 31.8712 31.92C31.9565 31.4293 32.0632 30.864 32.1912 30.224L33.5672 22.992L36.1911 22.416L36.4472 22.736L35.3912 26.64C34.7298 28.9867 34.2605 30.8107 33.9832 32.112C33.7058 33.392 33.5672 34.3627 33.5672 35.024C33.5672 35.8347 33.8765 36.24 34.4952 36.24C34.7725 36.24 35.0605 36.1547 35.3592 35.984C35.6578 35.8133 35.9778 35.5893 36.3192 35.312L36.8312 36.048C36.2338 36.7947 35.6472 37.3813 35.0712 37.808C34.4952 38.2133 33.9192 38.416 33.3432 38.416Z" fill="#FAFAFA"/>
</svg>
