<svg width="227" height="64" viewBox="0 0 227 64" fill="none" xmlns="http://www.w3.org/2000/svg">
<path d="M15.8001 35.2081V29.4481C15.8001 28.1841 15.7921 26.9201 15.7761 25.6561C15.7761 24.3761 15.7601 23.1041 15.7281 21.8401H21.3202V23.1361L18.7281 23.4001C18.7121 24.3921 18.7041 25.3921 18.7041 26.4001C18.7041 27.4081 18.7041 28.4241 18.7041 29.4481V35.2081C18.7041 36.2001 18.7041 37.2081 18.7041 38.2321C18.7201 39.2401 18.7361 40.2481 18.7521 41.2561L21.3202 41.5201V42.8161H15.7281C15.7601 41.5841 15.7761 40.3281 15.7761 39.0481C15.7921 37.7681 15.8001 36.4881 15.8001 35.2081Z" fill="#FAFAFA"/>
<path d="M84.2081 29.4481V35.2081C84.2081 36.4721 84.2081 37.7361 84.2081 39.0001C84.2241 40.2801 84.2481 41.5521 84.2801 42.8161H78.6881V41.5201L81.2801 41.2561C81.2961 40.2641 81.3041 39.2641 81.3041 38.2561C81.3041 37.2481 81.3041 36.2321 81.3041 35.2081V29.4481C81.3041 28.4561 81.3041 27.4561 81.3041 26.4481C81.3041 25.4241 81.2881 24.4081 81.2561 23.4001L78.6881 23.1361V21.8401H84.2801C84.2481 23.0721 84.2241 24.3281 84.2081 25.6081C84.2081 26.8881 84.2081 28.1681 84.2081 29.4481Z" fill="#FAFAFA"/>
<path d="M75 25H24V40H75V25Z" fill="#39B8FF" fill-opacity="0.3"/>
<path d="M28.1821 35.136C28.1821 35.872 28.3021 36.416 28.5421 36.768C28.7981 37.104 29.1341 37.272 29.5501 37.272C29.9181 37.272 30.3261 37.136 30.7741 36.864C31.2221 36.576 31.7421 36.12 32.3341 35.496L33.6781 29.232C33.4701 29.12 33.2461 29.032 33.0061 28.968C32.7821 28.888 32.5501 28.848 32.3101 28.848C31.6381 28.848 30.9181 29.216 30.1501 29.952C29.7821 30.32 29.4461 30.792 29.1421 31.368C28.8381 31.928 28.5981 32.536 28.4221 33.192C28.2621 33.848 28.1821 34.496 28.1821 35.136ZM33.6781 39.336C33.2141 39.336 32.8301 39.192 32.5261 38.904C32.2221 38.6 32.0701 38.152 32.0701 37.56C32.0701 37.416 32.0701 37.28 32.0701 37.152C32.0861 37.008 32.1021 36.872 32.1181 36.744C31.4461 37.512 30.7421 38.136 30.0061 38.616C29.2701 39.096 28.5741 39.336 27.9181 39.336C27.3101 39.336 26.7581 39.104 26.2621 38.64C25.7661 38.16 25.5181 37.368 25.5181 36.264C25.5181 35.416 25.6781 34.56 25.9981 33.696C26.3181 32.832 26.7501 32.016 27.2941 31.248C27.8381 30.464 28.4461 29.768 29.1181 29.16C29.7901 28.536 30.4861 28.048 31.2061 27.696C31.9261 27.344 32.6141 27.168 33.2701 27.168C33.5901 27.168 33.8781 27.232 34.1341 27.36C34.3901 27.472 34.6381 27.64 34.8781 27.864L36.3421 27.024L36.7501 27.288L34.8301 35.712C34.7021 36.256 34.6381 36.656 34.6381 36.912C34.6381 37.248 34.8061 37.416 35.1421 37.416C35.4141 37.416 35.7181 37.272 36.0541 36.984C36.4061 36.68 36.7821 36.28 37.1821 35.784L37.8301 36.264C37.5261 36.744 37.1581 37.224 36.7261 37.704C36.2941 38.168 35.8221 38.56 35.3101 38.88C34.7981 39.184 34.2541 39.336 33.6781 39.336ZM48.9062 36.864V31.968H44.3463V30.36H48.9062V25.608H50.6103V30.36H55.1463V31.968H50.6103V36.864H48.9062ZM65.6275 36.456C65.6275 36.84 65.7235 37.144 65.9155 37.368C66.1235 37.592 66.4195 37.704 66.8035 37.704C67.6675 37.704 68.4995 37.248 69.2995 36.336C69.8115 35.76 70.2355 35.008 70.5715 34.08C70.9075 33.136 71.0755 32.216 71.0755 31.32C71.0755 30.616 70.9475 30.088 70.6915 29.736C70.4515 29.368 70.1235 29.184 69.7075 29.184C69.2595 29.184 68.7795 29.36 68.2675 29.712C67.7555 30.048 67.2035 30.52 66.6115 31.128L66.1075 33.36C65.9475 34.16 65.8275 34.784 65.7475 35.232C65.6675 35.664 65.6275 36.072 65.6275 36.456ZM65.4595 39.336C64.7715 39.336 64.1955 39.144 63.7315 38.76C63.2835 38.36 63.0595 37.768 63.0595 36.984C63.0595 36.424 63.1155 35.816 63.2275 35.16C63.3555 34.488 63.4995 33.784 63.6595 33.048L65.5075 23.808L63.4915 23.568L63.6355 22.752L68.2195 21.48L68.5315 21.72L66.8035 30C67.5075 29.12 68.2675 28.432 69.0835 27.936C69.8995 27.424 70.6515 27.168 71.3395 27.168C72.0115 27.168 72.5715 27.408 73.0195 27.888C73.4675 28.368 73.6915 29.176 73.6915 30.312C73.6915 31.176 73.5315 32.04 73.2115 32.904C72.9075 33.768 72.4835 34.592 71.9395 35.376C71.4115 36.144 70.7955 36.824 70.0915 37.416C69.3875 38.008 68.6355 38.48 67.8355 38.832C67.0515 39.168 66.2595 39.336 65.4595 39.336Z" fill="#39B8FF" fill-opacity="0.7"/>
</svg>
