<svg width="227" height="64" viewBox="0 0 227 64" fill="none" xmlns="http://www.w3.org/2000/svg">
<path d="M25.1596 39.7681L24.0316 39.0001L34.7596 23.1841L35.8876 23.9521L25.1596 39.7681ZM23.0476 28.4401C23.0476 29.5441 23.1036 30.3921 23.2156 30.9841C23.3276 31.5761 23.4796 31.9841 23.6716 32.2081C23.8636 32.4161 24.0716 32.5201 24.2956 32.5201C24.5356 32.5201 24.7516 32.4081 24.9436 32.1841C25.1356 31.9601 25.2876 31.5601 25.3996 30.9841C25.5116 30.3921 25.5676 29.5441 25.5676 28.4401C25.5676 27.3201 25.5116 26.4721 25.3996 25.8961C25.2876 25.3041 25.1356 24.8961 24.9436 24.6721C24.7516 24.4481 24.5356 24.3361 24.2956 24.3361C24.0716 24.3361 23.8636 24.4481 23.6716 24.6721C23.4796 24.8801 23.3276 25.2801 23.2156 25.8721C23.1036 26.4641 23.0476 27.3201 23.0476 28.4401ZM24.2956 23.5201C24.9356 23.5201 25.5356 23.6961 26.0956 24.0481C26.6556 24.3841 27.1036 24.9201 27.4396 25.6561C27.7916 26.3761 27.9676 27.3041 27.9676 28.4401C27.9676 29.5601 27.7916 30.4801 27.4396 31.2001C27.1036 31.9201 26.6556 32.4561 26.0956 32.8081C25.5356 33.1441 24.9356 33.3121 24.2956 33.3121C23.6556 33.3121 23.0556 33.1441 22.4956 32.8081C21.9356 32.4561 21.4876 31.9201 21.1516 31.2001C20.8156 30.4801 20.6476 29.5601 20.6476 28.4401C20.6476 27.3041 20.8156 26.3761 21.1516 25.6561C21.4876 24.9201 21.9356 24.3841 22.4956 24.0481C23.0556 23.6961 23.6556 23.5201 24.2956 23.5201ZM34.1356 34.3441C34.1356 35.4481 34.1916 36.2961 34.3036 36.8881C34.4156 37.4801 34.5676 37.8881 34.7596 38.1121C34.9516 38.3201 35.1596 38.4241 35.3836 38.4241C35.6236 38.4241 35.8396 38.3121 36.0316 38.0881C36.2236 37.8641 36.3756 37.4641 36.4876 36.8881C36.5996 36.2961 36.6556 35.4481 36.6556 34.3441C36.6556 33.2241 36.5996 32.3761 36.4876 31.8001C36.3756 31.2081 36.2236 30.8001 36.0316 30.5761C35.8396 30.3521 35.6236 30.2401 35.3836 30.2401C35.1596 30.2401 34.9516 30.3521 34.7596 30.5761C34.5676 30.7841 34.4156 31.1841 34.3036 31.7761C34.1916 32.3681 34.1356 33.2241 34.1356 34.3441ZM35.3836 29.4241C36.0236 29.4241 36.6236 29.6001 37.1836 29.9521C37.7436 30.2881 38.1916 30.8241 38.5276 31.5601C38.8796 32.2801 39.0556 33.2081 39.0556 34.3441C39.0556 35.4641 38.8796 36.3841 38.5276 37.1041C38.1916 37.8241 37.7436 38.3601 37.1836 38.7121C36.6236 39.0481 36.0236 39.2161 35.3836 39.2161C34.7436 39.2161 34.1436 39.0481 33.5836 38.7121C33.0236 38.3601 32.5756 37.8241 32.2396 37.1041C31.9036 36.3841 31.7356 35.4641 31.7356 34.3441C31.7356 33.2081 31.9036 32.2801 32.2396 31.5601C32.5756 30.8241 33.0236 30.2881 33.5836 29.9521C34.1436 29.6001 34.7436 29.4241 35.3836 29.4241ZM42.6796 34.3441C42.6796 35.4481 42.7356 36.2961 42.8476 36.8881C42.9596 37.4801 43.1116 37.8881 43.3036 38.1121C43.4956 38.3201 43.7036 38.4241 43.9276 38.4241C44.1676 38.4241 44.3836 38.3121 44.5756 38.0881C44.7676 37.8641 44.9196 37.4641 45.0316 36.8881C45.1436 36.2961 45.1996 35.4481 45.1996 34.3441C45.1996 33.2241 45.1436 32.3761 45.0316 31.8001C44.9196 31.2081 44.7676 30.8001 44.5756 30.5761C44.3836 30.3521 44.1676 30.2401 43.9276 30.2401C43.7036 30.2401 43.4956 30.3521 43.3036 30.5761C43.1116 30.7841 42.9596 31.1841 42.8476 31.7761C42.7356 32.3681 42.6796 33.2241 42.6796 34.3441ZM43.9276 29.4241C44.5676 29.4241 45.1676 29.6001 45.7276 29.9521C46.2876 30.2881 46.7356 30.8241 47.0716 31.5601C47.4236 32.2801 47.5996 33.2081 47.5996 34.3441C47.5996 35.4641 47.4236 36.3841 47.0716 37.1041C46.7356 37.8241 46.2876 38.3601 45.7276 38.7121C45.1676 39.0481 44.5676 39.2161 43.9276 39.2161C43.2876 39.2161 42.6876 39.0481 42.1276 38.7121C41.5676 38.3601 41.1196 37.8241 40.7836 37.1041C40.4476 36.3841 40.2796 35.4641 40.2796 34.3441C40.2796 33.2081 40.4476 32.2801 40.7836 31.5601C41.1196 30.8241 41.5676 30.2881 42.1276 29.9521C42.6876 29.6001 43.2876 29.4241 43.9276 29.4241Z" fill="#FAFAFA"/>
</svg>
