<svg width="227" height="64" viewBox="0 0 227 64" fill="none" xmlns="http://www.w3.org/2000/svg">
<path d="M28.0023 31.2241C27.3943 31.2241 26.8823 31.0161 26.4663 30.6001C26.0503 30.1841 25.8423 29.6801 25.8423 29.0881C25.8423 28.4961 26.0503 27.9841 26.4663 27.5521C26.8823 27.1201 27.3943 26.9041 28.0023 26.9041C28.6103 26.9041 29.1223 27.1201 29.5383 27.5521C29.9543 27.9841 30.1623 28.4961 30.1623 29.0881C30.1623 29.6801 29.9543 30.1841 29.5383 30.6001C29.1223 31.0161 28.6103 31.2241 28.0023 31.2241ZM28.0023 39.3601C27.3943 39.3601 26.8823 39.1521 26.4663 38.7361C26.0503 38.3201 25.8423 37.8161 25.8423 37.2241C25.8423 36.6321 26.0503 36.1201 26.4663 35.6881C26.8823 35.2561 27.3943 35.0401 28.0023 35.0401C28.6103 35.0401 29.1223 35.2561 29.5383 35.6881C29.9543 36.1201 30.1623 36.6321 30.1623 37.2241C30.1623 37.8161 29.9543 38.3201 29.5383 38.7361C29.1223 39.1521 28.6103 39.3601 28.0023 39.3601Z" fill="#FAFAFA"/>
</svg>
