<svg width="227" height="64" viewBox="0 0 227 64" fill="none" xmlns="http://www.w3.org/2000/svg">
<path d="M16.8001 40.3119C16.1281 40.3119 15.5121 40.2319 14.9521 40.0719C14.3921 39.9279 13.8161 39.7039 13.2241 39.3999L13.1281 36.7599H14.4481L14.9041 38.8479C15.4641 39.1039 16.1121 39.2319 16.8481 39.2319C17.7601 39.2319 18.4321 39.0639 18.8641 38.7279C19.3121 38.3919 19.5361 37.9519 19.5361 37.4079C19.5361 36.8959 19.3521 36.4879 18.9841 36.1839C18.6161 35.8639 18.0561 35.5759 17.3041 35.3199L16.2001 34.9119C15.3201 34.5919 14.6161 34.1759 14.0881 33.6639C13.5601 33.1519 13.2961 32.4879 13.2961 31.6719C13.2961 31.0799 13.4561 30.5279 13.7761 30.0159C14.0961 29.5039 14.5681 29.0879 15.1921 28.7679C15.8161 28.4479 16.5761 28.2879 17.4721 28.2879C18.1281 28.2879 18.7201 28.3759 19.2481 28.5519C19.7921 28.7119 20.3201 28.9519 20.8321 29.2719L20.7361 31.7199H19.4881L19.1041 29.7999C18.5601 29.5279 18.0081 29.3919 17.4481 29.3919C16.7121 29.3919 16.1521 29.5439 15.7681 29.8479C15.4001 30.1359 15.2161 30.5279 15.2161 31.0239C15.2161 31.5519 15.3761 31.9519 15.6961 32.2239C16.0321 32.4959 16.6081 32.7839 17.4241 33.0879L18.1681 33.3519C19.3681 33.7999 20.2161 34.3119 20.7121 34.8879C21.2241 35.4639 21.4801 36.1279 21.4801 36.8799C21.4801 37.4879 21.3041 38.0559 20.9521 38.5839C20.6001 39.0959 20.0801 39.5119 19.3921 39.8319C18.7041 40.1519 17.8401 40.3119 16.8001 40.3119ZM23.2464 39.9999V39.1359L25.0464 38.7999C25.0624 38.1919 25.0704 37.5359 25.0704 36.8319C25.0864 36.1119 25.0944 35.4879 25.0944 34.9599V33.8319C25.0944 33.1759 25.0864 32.6319 25.0704 32.1999C25.0704 31.7519 25.0544 31.2879 25.0224 30.8079L23.1024 30.5919V29.7519L26.7984 28.2879L27.1584 28.5279L27.0864 31.7919V34.9599C27.0864 35.4879 27.0864 36.1119 27.0864 36.8319C27.1024 37.5359 27.1184 38.1919 27.1344 38.7999L28.8144 39.1359V39.9999H23.2464ZM26.0784 25.6479C25.6304 25.6479 25.2464 25.5039 24.9264 25.2159C24.6224 24.9279 24.4704 24.5599 24.4704 24.1119C24.4704 23.6479 24.6224 23.2799 24.9264 23.0079C25.2464 22.7199 25.6304 22.5759 26.0784 22.5759C26.5264 22.5759 26.9024 22.7199 27.2064 23.0079C27.5264 23.2799 27.6864 23.6479 27.6864 24.1119C27.6864 24.5599 27.5264 24.9279 27.2064 25.2159C26.9024 25.5039 26.5264 25.6479 26.0784 25.6479ZM30.5148 39.9999V39.1359L32.2908 38.7999C32.3068 38.1919 32.3148 37.5359 32.3148 36.8319C32.3308 36.1279 32.3388 35.5039 32.3388 34.9599V33.8079C32.3388 33.1519 32.3308 32.6079 32.3148 32.1759C32.3148 31.7439 32.2988 31.2879 32.2668 30.8079L30.3708 30.5919V29.7519L33.7308 28.2879L34.0907 28.5279L34.2828 30.4479C34.8748 29.8079 35.5548 29.2879 36.3228 28.8879C37.0908 28.4879 37.8428 28.2879 38.5788 28.2879C39.6188 28.2879 40.3868 28.6399 40.8828 29.3439C41.3948 30.0319 41.6508 31.1599 41.6508 32.7279V34.9599C41.6508 35.5039 41.6508 36.1279 41.6508 36.8319C41.6668 37.5359 41.6828 38.1919 41.6988 38.7999L43.3788 39.1359V39.9999H37.8108V39.1359L39.5868 38.7999C39.6028 38.2079 39.6108 37.5599 39.6108 36.8559C39.6268 36.1359 39.6348 35.5039 39.6348 34.9599V32.9199C39.6348 31.8159 39.4748 31.0559 39.1548 30.6399C38.8508 30.2239 38.3468 30.0159 37.6428 30.0159C37.0988 30.0159 36.5708 30.1279 36.0588 30.3519C35.5468 30.5759 34.9868 30.9439 34.3788 31.4559V34.9599C34.3788 35.4879 34.3788 36.1119 34.3788 36.8319C34.3948 37.5359 34.4108 38.1919 34.4268 38.7999L36.0828 39.1359V39.9999H30.5148Z" fill="#FAFAFA"/>
<path d="M60 26H47V41H60V26Z" fill="#39B8FF" fill-opacity="0.3"/>
<path d="M50.2172 36.1359C50.2172 36.8719 50.3372 37.4159 50.5772 37.7679C50.8332 38.1039 51.1692 38.2719 51.5852 38.2719C51.9532 38.2719 52.3612 38.1359 52.8092 37.8639C53.2572 37.5759 53.7772 37.1199 54.3692 36.4959L55.7132 30.2319C55.5052 30.1199 55.2812 30.0319 55.0412 29.9679C54.8172 29.8879 54.5852 29.8479 54.3452 29.8479C53.6732 29.8479 52.9532 30.2159 52.1852 30.9519C51.8172 31.3199 51.4812 31.7919 51.1772 32.3679C50.8732 32.9279 50.6332 33.5359 50.4572 34.1919C50.2972 34.8479 50.2172 35.4959 50.2172 36.1359ZM55.7132 40.3359C55.2492 40.3359 54.8652 40.1919 54.5612 39.9039C54.2572 39.5999 54.1052 39.1519 54.1052 38.5599C54.1052 38.4159 54.1052 38.2799 54.1052 38.1519C54.1212 38.0079 54.1372 37.8719 54.1532 37.7439C53.4812 38.5119 52.7772 39.1359 52.0412 39.6159C51.3052 40.0959 50.6092 40.3359 49.9532 40.3359C49.3452 40.3359 48.7932 40.1039 48.2972 39.6399C47.8012 39.1599 47.5532 38.3679 47.5532 37.2639C47.5532 36.4159 47.7132 35.5599 48.0332 34.6959C48.3532 33.8319 48.7852 33.0159 49.3292 32.2479C49.8732 31.4639 50.4812 30.7679 51.1532 30.1599C51.8252 29.5359 52.5212 29.0479 53.2412 28.6959C53.9612 28.3439 54.6492 28.1679 55.3052 28.1679C55.6252 28.1679 55.9132 28.2319 56.1692 28.3599C56.4252 28.4719 56.6732 28.6399 56.9132 28.8639L58.3772 28.0239L58.7852 28.2879L56.8652 36.7119C56.7372 37.2559 56.6732 37.6559 56.6732 37.9119C56.6732 38.2479 56.8412 38.4159 57.1772 38.4159C57.4492 38.4159 57.7532 38.2719 58.0892 37.9839C58.4412 37.6799 58.8172 37.2799 59.2172 36.7839L59.8652 37.2639C59.5612 37.7439 59.1932 38.2239 58.7612 38.7039C58.3292 39.1679 57.8572 39.5599 57.3452 39.8799C56.8332 40.1839 56.2892 40.3359 55.7132 40.3359Z" fill="#39B8FF" fill-opacity="0.7"/>
</svg>
