<svg width="227" height="64" viewBox="0 0 227 64" fill="none" xmlns="http://www.w3.org/2000/svg">
<path d="M28.3415 38.416C27.5948 38.416 26.8802 38.2773 26.1975 38C25.5362 37.7013 24.9922 37.2427 24.5655 36.624C24.1388 35.984 23.9255 35.152 23.9255 34.128C23.9255 33.6373 24.0002 33.0187 24.1495 32.272C24.3202 31.5253 24.5122 30.7467 24.7255 29.936C24.9388 29.104 25.1202 28.304 25.2695 27.536C25.4402 26.768 25.5255 26.128 25.5255 25.616C25.5255 24.9547 25.2162 24.624 24.5975 24.624C24.3628 24.624 24.0748 24.6667 23.7335 24.752C23.3922 24.816 22.9655 24.944 22.4535 25.136L22.0375 24.304C22.8908 23.5573 23.5735 23.056 24.0855 22.8C24.5975 22.544 25.1522 22.416 25.7495 22.416C26.4535 22.416 26.9868 22.6507 27.3495 23.12C27.7122 23.568 27.8935 24.208 27.8935 25.04C27.8935 25.7013 27.8082 26.4587 27.6375 27.312C27.4668 28.1653 27.2748 29.0293 27.0615 29.904C26.8482 30.7573 26.6562 31.5573 26.4855 32.304C26.3148 33.0293 26.2295 33.616 26.2295 34.064C26.2295 34.896 26.4748 35.5573 26.9655 36.048C27.4775 36.5387 28.1602 36.784 29.0135 36.784C29.8242 36.784 30.6135 36.4853 31.3815 35.888C32.1495 35.2693 32.7895 34.3307 33.3015 33.072C33.8135 31.8133 34.0695 30.224 34.0695 28.304V28.272C33.4295 27.312 32.9922 26.5227 32.7575 25.904C32.5442 25.264 32.4375 24.688 32.4375 24.176C32.4375 23.5573 32.6402 23.1093 33.0455 22.832C33.4508 22.5547 33.8882 22.416 34.3575 22.416C34.8482 22.416 35.2108 22.6187 35.4455 23.024C35.5308 23.5147 35.5842 24.0373 35.6055 24.592C35.6268 25.1467 35.6375 25.8933 35.6375 26.832C35.6375 29.1573 35.3282 31.1947 34.7095 32.944C34.0908 34.672 33.2375 36.016 32.1495 36.976C31.0615 37.936 29.7922 38.416 28.3415 38.416Z" fill="#FAFAFA"/>
</svg>
