<svg width="227" height="64" viewBox="0 0 227 64" fill="none" xmlns="http://www.w3.org/2000/svg">
<rect x="42" y="11" width="14" height="15" fill="#FF0000" fill-opacity="0.2"/>
<rect x="23" y="26" width="13" height="15" fill="#FF0000" fill-opacity="0.2"/>
<rect x="42" y="38" width="14" height="15" fill="#FF0000" fill-opacity="0.2"/>
<line x1="42" y1="32" x2="56" y2="32" stroke="black" stroke-width="2"/>
<path d="M46.7408 22.456C46.7408 22.84 46.8368 23.144 47.0288 23.368C47.2368 23.592 47.5328 23.704 47.9168 23.704C48.7808 23.704 49.6128 23.248 50.4128 22.336C50.9248 21.76 51.3488 21.008 51.6848 20.08C52.0208 19.136 52.1888 18.216 52.1888 17.32C52.1888 16.616 52.0608 16.088 51.8048 15.736C51.5648 15.368 51.2368 15.184 50.8208 15.184C50.3728 15.184 49.8928 15.36 49.3808 15.712C48.8688 16.048 48.3168 16.52 47.7248 17.128L47.2208 19.36C47.0608 20.16 46.9408 20.784 46.8608 21.232C46.7808 21.664 46.7408 22.072 46.7408 22.456ZM46.5728 25.336C45.8848 25.336 45.3088 25.144 44.8448 24.76C44.3968 24.36 44.1728 23.768 44.1728 22.984C44.1728 22.424 44.2288 21.816 44.3408 21.16C44.4688 20.488 44.6128 19.784 44.7728 19.048L46.6208 9.808L44.6048 9.568L44.7488 8.752L49.3328 7.48L49.6448 7.72L47.9168 16C48.6208 15.12 49.3808 14.432 50.1968 13.936C51.0128 13.424 51.7648 13.168 52.4528 13.168C53.1248 13.168 53.6848 13.408 54.1328 13.888C54.5808 14.368 54.8048 15.176 54.8048 16.312C54.8048 17.176 54.6448 18.04 54.3248 18.904C54.0208 19.768 53.5968 20.592 53.0528 21.376C52.5248 22.144 51.9088 22.824 51.2048 23.416C50.5008 24.008 49.7488 24.48 48.9488 24.832C48.1648 25.168 47.3728 25.336 46.5728 25.336Z" fill="#FF0000" fill-opacity="0.2"/>
<path d="M26.2172 36.136C26.2172 36.872 26.3372 37.416 26.5772 37.768C26.8332 38.104 27.1692 38.272 27.5852 38.272C27.9532 38.272 28.3612 38.136 28.8092 37.864C29.2572 37.576 29.7772 37.12 30.3692 36.496L31.7132 30.232C31.5052 30.12 31.2812 30.032 31.0412 29.968C30.8172 29.888 30.5852 29.848 30.3452 29.848C29.6732 29.848 28.9532 30.216 28.1852 30.952C27.8172 31.32 27.4812 31.792 27.1772 32.368C26.8732 32.928 26.6332 33.536 26.4572 34.192C26.2972 34.848 26.2172 35.496 26.2172 36.136ZM31.7132 40.336C31.2492 40.336 30.8652 40.192 30.5612 39.904C30.2572 39.6 30.1052 39.152 30.1052 38.56C30.1052 38.416 30.1052 38.28 30.1052 38.152C30.1212 38.008 30.1372 37.872 30.1532 37.744C29.4812 38.512 28.7772 39.136 28.0412 39.616C27.3052 40.096 26.6092 40.336 25.9532 40.336C25.3452 40.336 24.7932 40.104 24.2972 39.64C23.8012 39.16 23.5532 38.368 23.5532 37.264C23.5532 36.416 23.7132 35.56 24.0332 34.696C24.3532 33.832 24.7852 33.016 25.3292 32.248C25.8732 31.464 26.4812 30.768 27.1532 30.16C27.8252 29.536 28.5212 29.048 29.2412 28.696C29.9612 28.344 30.6492 28.168 31.3052 28.168C31.6252 28.168 31.9132 28.232 32.1692 28.36C32.4252 28.472 32.6732 28.64 32.9132 28.864L34.3772 28.024L34.7852 28.288L32.8652 36.712C32.7372 37.256 32.6732 37.656 32.6732 37.912C32.6732 38.248 32.8412 38.416 33.1772 38.416C33.4492 38.416 33.7532 38.272 34.0892 37.984C34.4412 37.68 34.8172 37.28 35.2172 36.784L35.8652 37.264C35.5612 37.744 35.1932 38.224 34.7612 38.704C34.3292 39.168 33.8572 39.56 33.3452 39.88C32.8332 40.184 32.2892 40.336 31.7132 40.336Z" fill="#FF0000" fill-opacity="0.2"/>
<path d="M48.3737 52.336C47.2537 52.336 46.3257 51.952 45.5897 51.184C44.8697 50.4 44.5097 49.28 44.5097 47.824C44.5097 46.8 44.6857 45.832 45.0377 44.92C45.3897 43.992 45.8697 43.176 46.4777 42.472C47.1017 41.752 47.8057 41.192 48.5897 40.792C49.3897 40.376 50.2297 40.168 51.1097 40.168C51.9097 40.168 52.5657 40.352 53.0777 40.72C53.5897 41.072 53.9257 41.552 54.0857 42.16C54.0537 42.528 53.9017 42.824 53.6297 43.048C53.3737 43.256 53.0777 43.36 52.7417 43.36C52.4057 43.36 52.1177 43.256 51.8777 43.048C51.6377 42.824 51.4137 42.568 51.2057 42.28L50.4617 41.248C49.8057 41.584 49.2217 42.072 48.7097 42.712C48.2137 43.336 47.8217 44.048 47.5337 44.848C47.2617 45.648 47.1257 46.48 47.1257 47.344C47.1257 48.336 47.3577 49.072 47.8217 49.552C48.3017 50.032 48.9337 50.272 49.7177 50.272C50.2937 50.272 50.8377 50.104 51.3497 49.768C51.8617 49.416 52.3177 49 52.7177 48.52L53.3177 48.976C52.9977 49.568 52.5817 50.12 52.0697 50.632C51.5577 51.144 50.9897 51.56 50.3657 51.88C49.7417 52.184 49.0777 52.336 48.3737 52.336Z" fill="#FF0000" fill-opacity="0.2"/>
</svg>
