<svg width="227" height="64" viewBox="0 0 227 64" fill="none" xmlns="http://www.w3.org/2000/svg">
<path d="M92 26H78V41H92V26Z" fill="#39B8FF" fill-opacity="0.3"/>
<path d="M82.7409 37.456C82.7409 37.84 82.8369 38.144 83.0289 38.368C83.2369 38.592 83.5329 38.704 83.9169 38.704C84.7809 38.704 85.6129 38.248 86.4129 37.336C86.9249 36.76 87.3489 36.008 87.6849 35.08C88.0209 34.136 88.1889 33.216 88.1889 32.32C88.1889 31.616 88.0609 31.088 87.8049 30.736C87.5649 30.368 87.2369 30.184 86.8209 30.184C86.3729 30.184 85.8929 30.36 85.3809 30.712C84.8689 31.048 84.3169 31.52 83.7249 32.128L83.2209 34.36C83.0609 35.16 82.9409 35.784 82.8609 36.232C82.7809 36.664 82.7409 37.072 82.7409 37.456ZM82.5729 40.336C81.8849 40.336 81.3089 40.144 80.8449 39.76C80.3969 39.36 80.1729 38.768 80.1729 37.984C80.1729 37.424 80.2289 36.816 80.3409 36.16C80.4689 35.488 80.6129 34.784 80.7729 34.048L82.6208 24.808L80.6049 24.568L80.7489 23.752L85.3329 22.48L85.6449 22.72L83.9169 31C84.6209 30.12 85.3809 29.432 86.1969 28.936C87.0129 28.424 87.7649 28.168 88.4529 28.168C89.1249 28.168 89.6849 28.408 90.1329 28.888C90.5809 29.368 90.8049 30.176 90.8049 31.312C90.8049 32.176 90.6449 33.04 90.3249 33.904C90.0209 34.768 89.5969 35.592 89.0529 36.376C88.5249 37.144 87.9089 37.824 87.2049 38.416C86.5009 39.008 85.7489 39.48 84.9489 39.832C84.1649 40.168 83.3729 40.336 82.5729 40.336Z" fill="#39B8FF" fill-opacity="0.7"/>
<path d="M26.9599 39.9999V39.1359L28.7359 38.7999C28.7519 38.1919 28.7599 37.5359 28.7599 36.8319C28.7759 36.1279 28.7839 35.5039 28.7839 34.9599V33.8079C28.7839 33.1519 28.7759 32.6079 28.7599 32.1759C28.7599 31.7439 28.7439 31.2879 28.7119 30.8079L26.8159 30.5919V29.7519L30.1759 28.2879L30.5359 28.5279L30.7279 30.4719C31.2879 29.8319 31.9439 29.3119 32.6959 28.9119C33.4479 28.4959 34.1919 28.2879 34.9279 28.2879C35.6799 28.2879 36.2879 28.4639 36.7519 28.8159C37.2319 29.1679 37.5759 29.7439 37.7839 30.5439C38.3919 29.7919 39.0719 29.2319 39.8239 28.8639C40.5759 28.4799 41.3439 28.2879 42.1279 28.2879C43.1039 28.2879 43.8559 28.6159 44.3839 29.2719C44.9279 29.9279 45.1999 30.9999 45.1999 32.4879V34.9599C45.1999 35.5039 45.1999 36.1279 45.1999 36.8319C45.2159 37.5359 45.2319 38.1919 45.2479 38.7999L46.9279 39.1359V39.9999H41.3599V39.1359L43.1359 38.7999C43.1519 38.2079 43.1599 37.5599 43.1599 36.8559C43.1759 36.1359 43.1839 35.5039 43.1839 34.9599V32.8719C43.1839 31.7519 43.0239 30.9999 42.7039 30.6159C42.3839 30.2159 41.8719 30.0159 41.1679 30.0159C40.6719 30.0159 40.1599 30.1279 39.6319 30.3519C39.1199 30.5759 38.5599 30.9679 37.9519 31.5279C37.9679 31.7039 37.9759 31.8959 37.9759 32.1039C37.9919 32.2959 37.9999 32.5039 37.9999 32.7279V34.9599C37.9999 35.5039 37.9999 36.1279 37.9999 36.8319C38.0159 37.5359 38.0319 38.1919 38.0479 38.7999L39.7279 39.1359V39.9999H34.1599V39.1359L35.9359 38.7999C35.9519 38.2079 35.9599 37.5599 35.9599 36.8559C35.9759 36.1359 35.9839 35.5039 35.9839 34.9599V32.9199C35.9839 31.8319 35.8319 31.0799 35.5279 30.6639C35.2239 30.2319 34.7199 30.0159 34.0159 30.0159C33.4719 30.0159 32.9519 30.1279 32.4559 30.3519C31.9599 30.5759 31.4159 30.9439 30.8239 31.4559V34.9599C30.8239 35.4879 30.8239 36.1119 30.8239 36.8319C30.8399 37.5359 30.8559 38.1919 30.8719 38.7999L32.5279 39.1359V39.9999H26.9599ZM54.2087 40.3119C53.2807 40.3119 52.3927 40.0959 51.5447 39.6639C50.7127 39.2159 50.0327 38.5519 49.5047 37.6719C48.9767 36.7759 48.7127 35.6719 48.7127 34.3599C48.7127 33.0319 48.9767 31.9199 49.5047 31.0239C50.0327 30.1119 50.7127 29.4319 51.5447 28.9839C52.3927 28.5199 53.2807 28.2879 54.2087 28.2879C55.1367 28.2879 56.0167 28.5199 56.8487 28.9839C57.6967 29.4319 58.3847 30.1119 58.9127 31.0239C59.4567 31.9199 59.7287 33.0319 59.7287 34.3599C59.7287 35.6719 59.4567 36.7759 58.9127 37.6719C58.3847 38.5519 57.6967 39.2159 56.8487 39.6639C56.0167 40.0959 55.1367 40.3119 54.2087 40.3119ZM54.2087 39.2319C55.2487 39.2319 56.0487 38.8239 56.6087 38.0079C57.1687 37.1759 57.4487 35.9599 57.4487 34.3599C57.4487 32.7439 57.1687 31.5119 56.6087 30.6639C56.0487 29.8159 55.2487 29.3919 54.2087 29.3919C53.1687 29.3919 52.3687 29.8159 51.8087 30.6639C51.2647 31.5119 50.9927 32.7439 50.9927 34.3599C50.9927 35.9599 51.2647 37.1759 51.8087 38.0079C52.3687 38.8239 53.1687 39.2319 54.2087 39.2319ZM64.0446 34.3599C64.0446 35.9279 64.3566 37.0879 64.9806 37.8399C65.6206 38.5759 66.4206 38.9439 67.3806 38.9439C67.9086 38.9439 68.3726 38.8399 68.7726 38.6319C69.1886 38.4079 69.6206 38.0479 70.0686 37.5519V30.9039C69.5246 30.4239 69.0366 30.0959 68.6046 29.9199C68.1726 29.7439 67.7566 29.6559 67.3566 29.6559C66.7646 29.6559 66.2126 29.8239 65.7006 30.1599C65.2046 30.4799 64.8046 30.9919 64.5006 31.6959C64.1966 32.3839 64.0446 33.2719 64.0446 34.3599ZM70.3086 40.2399L70.1406 38.5839C69.7246 39.1279 69.2446 39.5519 68.7006 39.8559C68.1726 40.1599 67.5326 40.3119 66.7806 40.3119C65.8046 40.3119 64.9486 40.0639 64.2126 39.5679C63.4766 39.0719 62.9006 38.3839 62.4846 37.5039C62.0846 36.6079 61.8846 35.5759 61.8846 34.4079C61.8846 33.1759 62.1086 32.1039 62.5566 31.1919C63.0046 30.2799 63.6126 29.5679 64.3806 29.0559C65.1486 28.5439 66.0206 28.2879 66.9966 28.2879C67.5566 28.2879 68.0926 28.3999 68.6046 28.6239C69.1326 28.8479 69.6446 29.2559 70.1406 29.8479V24.4239L68.1006 24.1839V23.3439L71.8446 22.2639L72.1806 22.4559L72.0846 25.8639V38.8479L74.0286 39.1359V39.9999L70.3086 40.2399Z" fill="#FAFAFA"/>
<path d="M23 26H10V41H23V26Z" fill="#39B8FF" fill-opacity="0.3"/>
<path d="M13.2172 36.1359C13.2172 36.8719 13.3372 37.4159 13.5772 37.7679C13.8332 38.1039 14.1692 38.2719 14.5852 38.2719C14.9532 38.2719 15.3612 38.1359 15.8092 37.8639C16.2572 37.5759 16.7772 37.1199 17.3692 36.4959L18.7132 30.2319C18.5052 30.1199 18.2812 30.0319 18.0412 29.9679C17.8172 29.8879 17.5852 29.8479 17.3452 29.8479C16.6732 29.8479 15.9532 30.2159 15.1852 30.9519C14.8172 31.3199 14.4812 31.7919 14.1772 32.3679C13.8732 32.9279 13.6332 33.5359 13.4572 34.1919C13.2972 34.8479 13.2172 35.4959 13.2172 36.1359ZM18.7132 40.3359C18.2492 40.3359 17.8652 40.1919 17.5612 39.9039C17.2572 39.5999 17.1052 39.1519 17.1052 38.5599C17.1052 38.4159 17.1052 38.2799 17.1052 38.1519C17.1212 38.0079 17.1372 37.8719 17.1532 37.7439C16.4812 38.5119 15.7772 39.1359 15.0412 39.6159C14.3052 40.0959 13.6092 40.3359 12.9532 40.3359C12.3452 40.3359 11.7932 40.1039 11.2972 39.6399C10.8012 39.1599 10.5532 38.3679 10.5532 37.2639C10.5532 36.4159 10.7132 35.5599 11.0332 34.6959C11.3532 33.8319 11.7852 33.0159 12.3292 32.2479C12.8732 31.4639 13.4812 30.7679 14.1532 30.1599C14.8252 29.5359 15.5212 29.0479 16.2412 28.6959C16.9612 28.3439 17.6492 28.1679 18.3052 28.1679C18.6252 28.1679 18.9132 28.2319 19.1692 28.3599C19.4252 28.4719 19.6732 28.6399 19.9132 28.8639L21.3772 28.0239L21.7852 28.2879L19.8652 36.7119C19.7372 37.2559 19.6732 37.6559 19.6732 37.9119C19.6732 38.2479 19.8412 38.4159 20.1772 38.4159C20.4492 38.4159 20.7532 38.2719 21.0892 37.9839C21.4412 37.6799 21.8172 37.2799 22.2172 36.7839L22.8652 37.2639C22.5612 37.7439 22.1932 38.2239 21.7612 38.7039C21.3292 39.1679 20.8572 39.5599 20.3452 39.8799C19.8332 40.1839 19.2892 40.3359 18.7132 40.3359Z" fill="#39B8FF" fill-opacity="0.7"/>
</svg>
