<svg width="227" height="64" viewBox="0 0 227 64" fill="none" xmlns="http://www.w3.org/2000/svg">
<path d="M21.096 30.32C21.096 32.496 21.64 34.128 22.728 35.216C23.8373 36.2827 25.384 36.8693 27.368 36.976L27.624 23.856C25.2987 23.8987 23.624 24.5173 22.6 25.712C21.5973 26.8853 21.096 28.4213 21.096 30.32ZM35.912 30.416C35.912 28.2613 35.3467 26.6507 34.216 25.584C33.1067 24.5173 31.56 23.9413 29.576 23.856L29.608 36.976C31.6987 36.8907 33.2667 36.2827 34.312 35.152C35.3787 34.0213 35.912 32.4427 35.912 30.416ZM26.92 43.76L27.304 38.416C24.3173 38.3093 22.056 37.552 20.52 36.144C19.0053 34.7147 18.248 32.8373 18.248 30.512C18.248 29.552 18.4293 28.592 18.792 27.632C19.1547 26.672 19.7093 25.808 20.456 25.04C21.2027 24.2507 22.1733 23.6213 23.368 23.152C24.5627 22.6613 25.992 22.4053 27.656 22.384L27.752 17.84H29.544V22.384C32.616 22.4693 34.92 23.2267 36.456 24.656C37.992 26.064 38.76 27.952 38.76 30.32C38.76 31.2587 38.5893 32.1973 38.248 33.136C37.9067 34.0747 37.3733 34.9387 36.648 35.728C35.9227 36.496 34.984 37.1253 33.832 37.616C32.68 38.1067 31.2827 38.3733 29.64 38.416L29.96 43.504L27.432 44.112L26.92 43.76Z" fill="black"/>
</svg>
