<svg width="227" height="64" viewBox="0 0 227 64" fill="none" xmlns="http://www.w3.org/2000/svg">
<path d="M18.4081 40.312C16.7601 40.312 15.4481 39.776 14.4721 38.704C13.4961 37.632 13.0081 36.176 13.0081 34.336C13.0081 33.072 13.2641 31.992 13.7761 31.096C14.3041 30.184 14.9921 29.488 15.8401 29.008C16.6881 28.528 17.5921 28.288 18.5521 28.288C19.2721 28.288 19.9361 28.424 20.5441 28.696C21.1521 28.968 21.6561 29.344 22.0561 29.824C22.4561 30.288 22.7041 30.816 22.8001 31.408C22.6881 32.016 22.3201 32.32 21.6961 32.32C21.2961 32.32 20.9921 32.216 20.7841 32.008C20.5921 31.784 20.4561 31.504 20.3761 31.168L19.9441 29.584C19.7201 29.504 19.4961 29.456 19.2721 29.44C19.0641 29.408 18.8561 29.392 18.6481 29.392C17.6241 29.392 16.7761 29.792 16.1041 30.592C15.4481 31.392 15.1201 32.56 15.1201 34.096C15.1201 35.6 15.4801 36.752 16.2001 37.552C16.9201 38.352 17.8401 38.752 18.9601 38.752C19.6481 38.752 20.2801 38.6 20.8561 38.296C21.4321 37.976 21.9041 37.52 22.2721 36.928L22.8721 37.24C22.5361 38.232 21.9921 38.992 21.2401 39.52C20.4881 40.048 19.5441 40.312 18.4081 40.312ZM30.2949 40.312C29.3669 40.312 28.4789 40.096 27.6309 39.664C26.7989 39.216 26.1189 38.552 25.5909 37.672C25.0629 36.776 24.7989 35.672 24.7989 34.36C24.7989 33.032 25.0629 31.92 25.5909 31.024C26.1189 30.112 26.7989 29.432 27.6309 28.984C28.4789 28.52 29.3669 28.288 30.2949 28.288C31.2229 28.288 32.1029 28.52 32.9349 28.984C33.7829 29.432 34.4709 30.112 34.9989 31.024C35.5429 31.92 35.8149 33.032 35.8149 34.36C35.8149 35.672 35.5429 36.776 34.9989 37.672C34.4709 38.552 33.7829 39.216 32.9349 39.664C32.1029 40.096 31.2229 40.312 30.2949 40.312ZM30.2949 39.232C31.3349 39.232 32.1349 38.824 32.6949 38.008C33.2549 37.176 33.5349 35.96 33.5349 34.36C33.5349 32.744 33.2549 31.512 32.6949 30.664C32.1349 29.816 31.3349 29.392 30.2949 29.392C29.2549 29.392 28.4549 29.816 27.8949 30.664C27.3509 31.512 27.0789 32.744 27.0789 34.36C27.0789 35.96 27.3509 37.176 27.8949 38.008C28.4549 38.824 29.2549 39.232 30.2949 39.232ZM41.6907 40.312C41.0187 40.312 40.4027 40.232 39.8427 40.072C39.2827 39.928 38.7067 39.704 38.1147 39.4L38.0187 36.76H39.3387L39.7947 38.848C40.3547 39.104 41.0027 39.232 41.7387 39.232C42.6507 39.232 43.3227 39.064 43.7547 38.728C44.2027 38.392 44.4267 37.952 44.4267 37.408C44.4267 36.896 44.2427 36.488 43.8747 36.184C43.5067 35.864 42.9467 35.576 42.1947 35.32L41.0907 34.912C40.2107 34.592 39.5067 34.176 38.9787 33.664C38.4507 33.152 38.1867 32.488 38.1867 31.672C38.1867 31.08 38.3467 30.528 38.6667 30.016C38.9867 29.504 39.4587 29.088 40.0827 28.768C40.7067 28.448 41.4667 28.288 42.3627 28.288C43.0187 28.288 43.6107 28.376 44.1387 28.552C44.6827 28.712 45.2107 28.952 45.7227 29.272L45.6267 31.72H44.3787L43.9947 29.8C43.4507 29.528 42.8987 29.392 42.3387 29.392C41.6027 29.392 41.0427 29.544 40.6587 29.848C40.2907 30.136 40.1067 30.528 40.1067 31.024C40.1067 31.552 40.2667 31.952 40.5867 32.224C40.9227 32.496 41.4987 32.784 42.3147 33.088L43.0587 33.352C44.2587 33.8 45.1067 34.312 45.6027 34.888C46.1147 35.464 46.3707 36.128 46.3707 36.88C46.3707 37.488 46.1947 38.056 45.8427 38.584C45.4907 39.096 44.9707 39.512 44.2827 39.832C43.5947 40.152 42.7307 40.312 41.6907 40.312Z" fill="#FAFAFA"/>
<path d="M63 26H50V41H63V26Z" fill="#39B8FF" fill-opacity="0.3"/>
<path d="M53.2172 36.136C53.2172 36.872 53.3372 37.416 53.5772 37.768C53.8332 38.104 54.1692 38.272 54.5852 38.272C54.9532 38.272 55.3612 38.136 55.8092 37.864C56.2572 37.576 56.7772 37.12 57.3692 36.496L58.7132 30.232C58.5052 30.12 58.2812 30.032 58.0412 29.968C57.8172 29.888 57.5852 29.848 57.3452 29.848C56.6732 29.848 55.9532 30.216 55.1852 30.952C54.8172 31.32 54.4812 31.792 54.1772 32.368C53.8732 32.928 53.6332 33.536 53.4572 34.192C53.2972 34.848 53.2172 35.496 53.2172 36.136ZM58.7132 40.336C58.2492 40.336 57.8652 40.192 57.5612 39.904C57.2572 39.6 57.1052 39.152 57.1052 38.56C57.1052 38.416 57.1052 38.28 57.1052 38.152C57.1212 38.008 57.1372 37.872 57.1532 37.744C56.4812 38.512 55.7772 39.136 55.0412 39.616C54.3052 40.096 53.6092 40.336 52.9532 40.336C52.3452 40.336 51.7932 40.104 51.2972 39.64C50.8012 39.16 50.5532 38.368 50.5532 37.264C50.5532 36.416 50.7132 35.56 51.0332 34.696C51.3532 33.832 51.7852 33.016 52.3292 32.248C52.8732 31.464 53.4812 30.768 54.1532 30.16C54.8252 29.536 55.5212 29.048 56.2412 28.696C56.9612 28.344 57.6492 28.168 58.3052 28.168C58.6252 28.168 58.9132 28.232 59.1692 28.36C59.4252 28.472 59.6732 28.64 59.9132 28.864L61.3772 28.024L61.7852 28.288L59.8652 36.712C59.7372 37.256 59.6732 37.656 59.6732 37.912C59.6732 38.248 59.8412 38.416 60.1772 38.416C60.4492 38.416 60.7532 38.272 61.0892 37.984C61.4412 37.68 61.8172 37.28 62.2172 36.784L62.8652 37.264C62.5612 37.744 62.1932 38.224 61.7612 38.704C61.3292 39.168 60.8572 39.56 60.3452 39.88C59.8332 40.184 59.2892 40.336 58.7132 40.336Z" fill="#39B8FF" fill-opacity="0.7"/>
</svg>
