<svg width="227" height="64" viewBox="0 0 227 64" fill="none" xmlns="http://www.w3.org/2000/svg">
<rect x="31" y="16" width="10" height="11" fill="#FF0000" fill-opacity="0.2"/>
<rect x="31" y="38" width="10" height="11" fill="#FF0000" fill-opacity="0.2"/>
<path d="M23.3104 29.8185V15.1075C23.3104 12.839 25.1494 11 27.4179 11V11.5315C26.1419 11.5315 25.1075 12.566 25.1075 13.842V28.553C25.1075 30.8215 23.2685 32.6604 21 32.6604V32.1289C22.276 32.1289 23.3104 31.0945 23.3104 29.8185Z" fill="black"/>
<path d="M23.3104 35.1815V49.8925C23.3104 52.161 25.1494 54 27.4179 54V53.4685C26.1419 53.4685 25.1075 52.434 25.1075 51.158V36.447C25.1075 34.1785 23.2685 32.3396 21 32.3396V32.8711C22.276 32.8711 23.3104 33.9055 23.3104 35.1815Z" fill="black"/>
</svg>
