<svg width="227" height="64" viewBox="0 0 227 64" fill="none" xmlns="http://www.w3.org/2000/svg">
<path d="M28.9272 38.416C28.2658 38.416 27.7432 38.2027 27.3592 37.776C26.9752 37.328 26.7832 36.7093 26.7832 35.92C26.7832 35.6853 26.8045 35.3973 26.8472 35.056C26.8898 34.6933 26.9752 34.1493 27.1032 33.424C27.2312 32.6773 27.4338 31.6107 27.7112 30.224L29.1512 22.992L31.8072 22.416L32.0632 22.736L30.9752 26.64C30.3138 28.9867 29.8338 30.8107 29.5352 32.112C29.2578 33.392 29.1192 34.3627 29.1192 35.024C29.1192 35.8347 29.4392 36.24 30.0792 36.24C30.3778 36.24 30.6658 36.1547 30.9432 35.984C31.2205 35.792 31.5298 35.5573 31.8712 35.28L32.3832 36.048C31.7858 36.816 31.2098 37.4027 30.6552 37.808C30.1005 38.2133 29.5245 38.416 28.9272 38.416Z" fill="#FAFAFA"/>
</svg>
