<svg width="227" height="64" viewBox="0 0 227 64" fill="none" xmlns="http://www.w3.org/2000/svg">
<path d="M18.4081 40.312C16.7601 40.312 15.4481 39.776 14.4721 38.704C13.4961 37.632 13.0081 36.176 13.0081 34.336C13.0081 33.072 13.2641 31.992 13.7761 31.096C14.3041 30.184 14.9921 29.488 15.8401 29.008C16.6881 28.528 17.5921 28.288 18.5521 28.288C19.2721 28.288 19.9361 28.424 20.5441 28.696C21.1521 28.968 21.6561 29.344 22.0561 29.824C22.4561 30.288 22.7041 30.816 22.8001 31.408C22.6881 32.016 22.3201 32.32 21.6961 32.32C21.2961 32.32 20.9921 32.216 20.7841 32.008C20.5921 31.784 20.4561 31.504 20.3761 31.168L19.9441 29.584C19.7201 29.504 19.4961 29.456 19.2721 29.44C19.0641 29.408 18.8561 29.392 18.6481 29.392C17.6241 29.392 16.7761 29.792 16.1041 30.592C15.4481 31.392 15.1201 32.56 15.1201 34.096C15.1201 35.6 15.4801 36.752 16.2001 37.552C16.9201 38.352 17.8401 38.752 18.9601 38.752C19.6481 38.752 20.2801 38.6 20.8561 38.296C21.4321 37.976 21.9041 37.52 22.2721 36.928L22.8721 37.24C22.5361 38.232 21.9921 38.992 21.2401 39.52C20.4881 40.048 19.5441 40.312 18.4081 40.312ZM28.5189 40.312C27.8469 40.312 27.2309 40.232 26.6709 40.072C26.1109 39.928 25.5349 39.704 24.9429 39.4L24.8469 36.76H26.1669L26.6229 38.848C27.1829 39.104 27.8309 39.232 28.5669 39.232C29.4789 39.232 30.1509 39.064 30.5829 38.728C31.0309 38.392 31.2549 37.952 31.2549 37.408C31.2549 36.896 31.0709 36.488 30.7029 36.184C30.3349 35.864 29.7749 35.576 29.0229 35.32L27.9189 34.912C27.0389 34.592 26.3349 34.176 25.8069 33.664C25.2789 33.152 25.0149 32.488 25.0149 31.672C25.0149 31.08 25.1749 30.528 25.4949 30.016C25.8149 29.504 26.2869 29.088 26.9109 28.768C27.5349 28.448 28.2949 28.288 29.1909 28.288C29.8469 28.288 30.4389 28.376 30.9669 28.552C31.5109 28.712 32.0389 28.952 32.5509 29.272L32.4549 31.72H31.2069L30.8229 29.8C30.2789 29.528 29.7269 29.392 29.1669 29.392C28.4309 29.392 27.8709 29.544 27.4869 29.848C27.1189 30.136 26.9349 30.528 26.9349 31.024C26.9349 31.552 27.0949 31.952 27.4149 32.224C27.7509 32.496 28.3269 32.784 29.1429 33.088L29.8868 33.352C31.0869 33.8 31.9349 34.312 32.4309 34.888C32.9429 35.464 33.1989 36.128 33.1989 36.88C33.1989 37.488 33.0229 38.056 32.6709 38.584C32.3189 39.096 31.7989 39.512 31.1109 39.832C30.4229 40.152 29.5589 40.312 28.5189 40.312ZM40.5331 40.312C38.8851 40.312 37.5731 39.776 36.5971 38.704C35.6211 37.632 35.1331 36.176 35.1331 34.336C35.1331 33.072 35.3891 31.992 35.9011 31.096C36.4291 30.184 37.1171 29.488 37.9651 29.008C38.8131 28.528 39.7171 28.288 40.6771 28.288C41.3971 28.288 42.0611 28.424 42.6691 28.696C43.2771 28.968 43.7811 29.344 44.1811 29.824C44.5811 30.288 44.8291 30.816 44.9251 31.408C44.8131 32.016 44.4451 32.32 43.8211 32.32C43.4211 32.32 43.1171 32.216 42.9091 32.008C42.7171 31.784 42.5811 31.504 42.5011 31.168L42.0691 29.584C41.8451 29.504 41.6211 29.456 41.3971 29.44C41.1891 29.408 40.9811 29.392 40.7731 29.392C39.7491 29.392 38.9011 29.792 38.2291 30.592C37.5731 31.392 37.2451 32.56 37.2451 34.096C37.2451 35.6 37.6051 36.752 38.3251 37.552C39.0451 38.352 39.9651 38.752 41.0851 38.752C41.7731 38.752 42.4051 38.6 42.9811 38.296C43.5571 37.976 44.0291 37.52 44.3971 36.928L44.9971 37.24C44.6611 38.232 44.1171 38.992 43.3651 39.52C42.6131 40.048 41.6691 40.312 40.5331 40.312Z" fill="#FAFAFA"/>
<path d="M62 26H49V41H62V26Z" fill="#39B8FF" fill-opacity="0.3"/>
<path d="M52.2172 36.136C52.2172 36.872 52.3372 37.416 52.5772 37.768C52.8332 38.104 53.1692 38.272 53.5852 38.272C53.9532 38.272 54.3612 38.136 54.8092 37.864C55.2572 37.576 55.7772 37.12 56.3692 36.496L57.7132 30.232C57.5052 30.12 57.2812 30.032 57.0412 29.968C56.8172 29.888 56.5852 29.848 56.3452 29.848C55.6732 29.848 54.9532 30.216 54.1852 30.952C53.8172 31.32 53.4812 31.792 53.1772 32.368C52.8732 32.928 52.6332 33.536 52.4572 34.192C52.2972 34.848 52.2172 35.496 52.2172 36.136ZM57.7132 40.336C57.2492 40.336 56.8652 40.192 56.5612 39.904C56.2572 39.6 56.1052 39.152 56.1052 38.56C56.1052 38.416 56.1052 38.28 56.1052 38.152C56.1212 38.008 56.1372 37.872 56.1532 37.744C55.4812 38.512 54.7772 39.136 54.0412 39.616C53.3052 40.096 52.6092 40.336 51.9532 40.336C51.3452 40.336 50.7932 40.104 50.2972 39.64C49.8012 39.16 49.5532 38.368 49.5532 37.264C49.5532 36.416 49.7132 35.56 50.0332 34.696C50.3532 33.832 50.7852 33.016 51.3292 32.248C51.8732 31.464 52.4812 30.768 53.1532 30.16C53.8252 29.536 54.5212 29.048 55.2412 28.696C55.9612 28.344 56.6492 28.168 57.3052 28.168C57.6252 28.168 57.9132 28.232 58.1692 28.36C58.4252 28.472 58.6732 28.64 58.9132 28.864L60.3772 28.024L60.7852 28.288L58.8652 36.712C58.7372 37.256 58.6732 37.656 58.6732 37.912C58.6732 38.248 58.8412 38.416 59.1772 38.416C59.4492 38.416 59.7532 38.272 60.0892 37.984C60.4412 37.68 60.8172 37.28 61.2172 36.784L61.8652 37.264C61.5612 37.744 61.1932 38.224 60.7612 38.704C60.3292 39.168 59.8572 39.56 59.3452 39.88C58.8332 40.184 58.2892 40.336 57.7132 40.336Z" fill="#39B8FF" fill-opacity="0.7"/>
</svg>
