<svg width="227" height="64" viewBox="0 0 227 64" fill="none" xmlns="http://www.w3.org/2000/svg">
<path d="M19.8796 25.68L19.6236 24.496C20.157 24.0693 20.6796 23.7387 21.1916 23.504C21.725 23.248 22.3436 23.0667 23.0476 22.96C23.7516 22.8533 24.6583 22.8 25.7676 22.8H36.9676L37.0956 25.104L32.9676 24.976L33.2236 33.52C33.2663 34.5867 33.4476 35.3013 33.7676 35.664C34.0876 36.0267 34.557 36.208 35.1756 36.208C35.389 36.208 35.6236 36.1867 35.8796 36.144C36.1356 36.08 36.3703 36.0053 36.5836 35.92L36.8396 36.72C36.4556 37.296 36.0396 37.7227 35.5916 38C35.165 38.2773 34.6316 38.416 33.9916 38.416C32.8823 38.416 32.061 38.096 31.5276 37.456C31.0156 36.7947 30.7596 35.8027 30.7596 34.48C30.7596 33.1573 30.7916 31.6533 30.8556 29.968C30.941 28.2613 31.0263 26.5867 31.1116 24.944H25.9596C25.9383 26.5653 25.9063 28.1867 25.8636 29.808C25.8423 31.4293 25.7783 33.0187 25.6716 34.576C25.565 35.9413 25.2343 36.9227 24.6796 37.52C24.125 38.1173 23.3783 38.416 22.4396 38.416C21.8636 38.416 21.3943 38.2773 21.0316 38C20.669 37.7013 20.4876 37.3067 20.4876 36.816C20.4876 36.432 20.541 36.1333 20.6476 35.92C20.7756 35.6853 20.9463 35.4827 21.1596 35.312C21.9703 35.1627 22.909 35.0347 23.9756 34.928C24.1463 33.2853 24.2636 31.6427 24.3276 30C24.413 28.336 24.477 26.672 24.5196 25.008L19.8796 25.68Z" fill="black"/>
</svg>
