<svg width="227" height="64" viewBox="0 0 227 64" fill="none" xmlns="http://www.w3.org/2000/svg">
<rect x="18" y="49" width="10" height="11" fill="#FF0000" fill-opacity="0.2"/>
<rect x="25" y="8" width="10" height="11" fill="#FF0000" fill-opacity="0.2"/>
<path d="M21.0289 56.263C21.0289 56.7843 21.1139 57.1697 21.2839 57.419C21.4652 57.657 21.7032 57.776 21.9979 57.776C22.2585 57.776 22.5475 57.6797 22.8649 57.487C23.1822 57.283 23.5505 56.96 23.9699 56.518L24.9219 52.081C24.7745 52.0017 24.6159 51.9393 24.4459 51.894C24.2872 51.8373 24.1229 51.809 23.9529 51.809C23.4769 51.809 22.9669 52.0697 22.4229 52.591C22.1622 52.8517 21.9242 53.186 21.7089 53.594C21.4935 53.9907 21.3235 54.4213 21.1989 54.886C21.0855 55.3507 21.0289 55.8097 21.0289 56.263ZM24.9219 59.238C24.5932 59.238 24.3212 59.136 24.1059 58.932C23.8905 58.7167 23.7829 58.3993 23.7829 57.98C23.7829 57.878 23.7829 57.7817 23.7829 57.691C23.7942 57.589 23.8055 57.4927 23.8169 57.402C23.3409 57.946 22.8422 58.388 22.3209 58.728C21.7995 59.068 21.3065 59.238 20.8419 59.238C20.4112 59.238 20.0202 59.0737 19.6689 58.745C19.3175 58.405 19.1419 57.844 19.1419 57.062C19.1419 56.4613 19.2552 55.855 19.4819 55.243C19.7085 54.631 20.0145 54.053 20.3999 53.509C20.7852 52.9537 21.2159 52.4607 21.6919 52.03C22.1679 51.588 22.6609 51.2423 23.1709 50.993C23.6809 50.7437 24.1682 50.619 24.6329 50.619C24.8595 50.619 25.0635 50.6643 25.2449 50.755C25.4262 50.8343 25.6019 50.9533 25.7719 51.112L26.8089 50.517L27.0979 50.704L25.7379 56.671C25.6472 57.0563 25.6019 57.3397 25.6019 57.521C25.6019 57.759 25.7209 57.878 25.9589 57.878C26.1515 57.878 26.3669 57.776 26.6049 57.572C26.8542 57.3567 27.1205 57.0733 27.4039 56.722L27.8629 57.062C27.6475 57.402 27.3869 57.742 27.0809 58.082C26.7749 58.4107 26.4405 58.6883 26.0779 58.915C25.7152 59.1303 25.3299 59.238 24.9219 59.238Z" fill="#FF0000" fill-opacity="0.2"/>
<path d="M28.2539 16.198C28.2539 16.47 28.3219 16.6853 28.4579 16.844C28.6052 17.0027 28.8149 17.082 29.0869 17.082C29.6989 17.082 30.2882 16.759 30.8549 16.113C31.2176 15.705 31.5179 15.1723 31.7559 14.515C31.9939 13.8463 32.1129 13.1947 32.1129 12.56C32.1129 12.0613 32.0222 11.6873 31.8409 11.438C31.6709 11.1773 31.4386 11.047 31.1439 11.047C30.8266 11.047 30.4866 11.1717 30.1239 11.421C29.7612 11.659 29.3702 11.9933 28.9509 12.424L28.5939 14.005C28.4806 14.5717 28.3956 15.0137 28.3389 15.331C28.2822 15.637 28.2539 15.926 28.2539 16.198ZM28.1349 18.238C27.6476 18.238 27.2396 18.102 26.9109 17.83C26.5936 17.5467 26.4349 17.1273 26.4349 16.572C26.4349 16.1753 26.4746 15.7447 26.5539 15.28C26.6446 14.804 26.7466 14.3053 26.8599 13.784L28.1689 7.239L26.7409 7.069L26.8429 6.491L30.0899 5.59L30.3109 5.76L29.0869 11.625C29.5856 11.0017 30.1239 10.5143 30.7019 10.163C31.2799 9.80033 31.8126 9.619 32.2999 9.619C32.7759 9.619 33.1726 9.789 33.4899 10.129C33.8072 10.469 33.9659 11.0413 33.9659 11.846C33.9659 12.458 33.8526 13.07 33.6259 13.682C33.4106 14.294 33.1102 14.8777 32.7249 15.433C32.3509 15.977 31.9146 16.4587 31.4159 16.878C30.9172 17.2973 30.3846 17.6317 29.8179 17.881C29.2626 18.119 28.7016 18.238 28.1349 18.238Z" fill="#FF0000" fill-opacity="0.2"/>
<path d="M25.648 40.096C25.648 38.784 25.584 37.472 25.456 36.16C25.328 34.848 25.2 33.536 25.072 32.224C24.944 30.896 24.88 29.584 24.88 28.288C24.88 26.784 25.104 25.536 25.552 24.544C26.016 23.536 26.632 22.784 27.4 22.288C28.168 21.776 29 21.52 29.896 21.52C30.456 21.52 30.928 21.648 31.312 21.904C31.712 22.144 31.968 22.448 32.08 22.816C32.016 23.136 31.872 23.4 31.648 23.608C31.424 23.8 31.112 23.896 30.712 23.896C30.456 23.896 30.2 23.84 29.944 23.728C29.688 23.6 29.432 23.4 29.176 23.128L28.72 22.6C28.08 23.032 27.608 23.68 27.304 24.544C27 25.392 26.848 26.344 26.848 27.4C26.848 28.696 26.912 30.008 27.04 31.336C27.168 32.664 27.296 33.992 27.424 35.32C27.552 36.632 27.616 37.936 27.616 39.232C27.616 40.528 27.456 41.608 27.136 42.472C26.832 43.336 26.424 44.024 25.912 44.536C25.416 45.048 24.872 45.416 24.28 45.64C23.704 45.864 23.144 45.976 22.6 45.976C22.04 45.976 21.568 45.848 21.184 45.592C20.8 45.352 20.544 45.056 20.416 44.704C20.48 44.384 20.632 44.12 20.872 43.912C21.096 43.704 21.408 43.6 21.808 43.6C22.064 43.6 22.312 43.656 22.552 43.768C22.808 43.88 23.064 44.088 23.32 44.392L23.8 44.92C25.032 44.136 25.648 42.528 25.648 40.096Z" fill="black"/>
<rect x="37" y="26" width="31" height="15" fill="#FF0000" fill-opacity="0.2"/>
<rect x="81" y="26" width="10" height="15" fill="#FF0000" fill-opacity="0.2"/>
<path d="M39.584 33.101L39.771 32.183H41.471C41.675 31.3783 41.896 30.7153 42.134 30.194C42.3833 29.6727 42.6723 29.2363 43.001 28.885C43.341 28.5223 43.698 28.2673 44.072 28.12C44.4573 27.9727 44.8427 27.899 45.228 27.899C45.6927 27.899 46.061 27.9897 46.333 28.171C46.6163 28.341 46.7977 28.579 46.877 28.885C46.8317 29.1683 46.724 29.395 46.554 29.565C46.384 29.7237 46.1687 29.803 45.908 29.803C45.704 29.803 45.5227 29.7577 45.364 29.667C45.2167 29.5763 45.058 29.412 44.888 29.174L44.565 28.681C44.3497 28.8283 44.1627 29.0323 44.004 29.293C43.8113 29.6103 43.6527 29.9957 43.528 30.449C43.4147 30.891 43.2843 31.469 43.137 32.183H44.922L44.735 33.101H42.933L42.508 35.073C42.2473 36.3197 41.981 37.3057 41.709 38.031C41.437 38.745 41.0857 39.323 40.655 39.765C40.315 40.1277 39.958 40.377 39.584 40.513C39.21 40.6603 38.836 40.734 38.462 40.734C37.986 40.734 37.595 40.632 37.289 40.428C36.983 40.224 36.8073 39.952 36.762 39.612C36.8413 39.3627 36.966 39.1643 37.136 39.017C37.306 38.881 37.5157 38.813 37.765 38.813C37.9577 38.813 38.1333 38.8583 38.292 38.949C38.4507 39.0397 38.6037 39.204 38.751 39.442L39.091 39.969C39.2157 39.8783 39.3177 39.782 39.397 39.68C39.4877 39.578 39.5727 39.4703 39.652 39.357C39.822 39.085 39.958 38.7733 40.06 38.422C40.1733 38.0707 40.281 37.6457 40.383 37.147C40.4963 36.6483 40.6267 36.0477 40.774 35.345L41.25 33.101H39.584ZM50.0274 42.4C49.2341 41.4933 48.5938 40.513 48.1064 39.459C47.6304 38.405 47.3924 37.232 47.3924 35.94C47.3924 34.172 47.8571 32.506 48.7864 30.942C49.7158 29.3667 51.1041 28.0123 52.9514 26.879L53.4444 27.525C51.9258 28.715 50.8094 30.0297 50.0954 31.469C49.3928 32.897 49.0414 34.4497 49.0414 36.127C49.0414 37.2263 49.1831 38.2293 49.4664 39.136C49.7498 40.054 50.1691 40.9833 50.7244 41.924L50.0274 42.4ZM52.2908 37.929C52.3588 37.6683 52.4778 37.4757 52.6478 37.351C52.8292 37.215 53.0275 37.147 53.2428 37.147C53.4695 37.147 53.6622 37.2093 53.8208 37.334C53.9795 37.4473 54.1495 37.674 54.3308 38.014L54.3988 38.133C54.4668 38.0877 54.5235 38.031 54.5688 37.963C54.9315 37.555 55.2715 37.1413 55.5888 36.722C55.9175 36.2913 56.2405 35.8493 56.5578 35.396L55.7758 32.931C55.6738 32.6023 55.5718 32.3813 55.4698 32.268C55.3792 32.1433 55.2432 32.081 55.0618 32.081C54.9372 32.081 54.7728 32.1377 54.5688 32.251C54.3648 32.3643 54.1495 32.6023 53.9228 32.965L53.5318 32.591C53.9058 31.9223 54.2912 31.4293 54.6878 31.112C55.0845 30.7833 55.4812 30.619 55.8778 30.619C56.2745 30.619 56.5748 30.738 56.7788 30.976C56.9942 31.214 57.1812 31.5993 57.3398 32.132L57.8668 33.815C58.1955 33.2823 58.5015 32.8177 58.7848 32.421C59.0795 32.013 59.3232 31.6843 59.5158 31.435C59.7765 31.129 60.0202 30.9193 60.2468 30.806C60.4848 30.6813 60.7455 30.619 61.0288 30.619C61.2895 30.619 61.5388 30.704 61.7768 30.874C62.0262 31.0327 62.1905 31.2763 62.2698 31.605C62.2585 31.911 62.1678 32.1603 61.9978 32.353C61.8392 32.5343 61.6295 32.625 61.3688 32.625C61.1535 32.625 60.9608 32.5797 60.7908 32.489C60.6208 32.387 60.4508 32.2113 60.2808 31.962L60.2128 31.843C60.1902 31.877 60.1562 31.9167 60.1108 31.962C59.7595 32.3813 59.4138 32.8063 59.0738 33.237C58.7452 33.6677 58.4165 34.104 58.0878 34.546L58.8528 36.96C58.9662 37.334 59.0795 37.5833 59.1928 37.708C59.3175 37.8213 59.4762 37.878 59.6688 37.878C59.8615 37.878 60.0825 37.776 60.3318 37.572C60.5812 37.368 60.8418 37.0903 61.1138 36.739L61.5898 37.079C61.2045 37.7023 60.7738 38.2237 60.2978 38.643C59.8218 39.0623 59.3232 39.272 58.8018 39.272C58.4845 39.272 58.2068 39.1813 57.9688 39C57.7308 38.8073 57.5325 38.456 57.3738 37.946L56.7958 36.11C56.4898 36.5973 56.2008 37.045 55.9288 37.453C55.6568 37.861 55.3792 38.2293 55.0958 38.558C54.9032 38.7847 54.6992 38.9547 54.4838 39.068C54.2798 39.1813 54.0362 39.238 53.7528 39.238C53.4128 39.238 53.0955 39.136 52.8008 38.932C52.5062 38.7167 52.3362 38.3823 52.2908 37.929ZM64.6303 26.879C65.4236 27.7743 66.0583 28.7547 66.5343 29.82C67.0216 30.874 67.2653 32.047 67.2653 33.339C67.2653 35.107 66.8006 36.773 65.8713 38.337C64.942 39.901 63.5536 41.2553 61.7063 42.4L61.2133 41.754C62.732 40.564 63.8426 39.255 64.5453 37.827C65.2593 36.3877 65.6163 34.8293 65.6163 33.152C65.6163 32.0527 65.4746 31.0497 65.1913 30.143C64.908 29.225 64.4886 28.2957 63.9333 27.355L64.6303 26.879Z" fill="#FF0000" fill-opacity="0.2"/>
<path d="M39.584 33.101L39.771 32.183H41.471C41.675 31.3783 41.896 30.7153 42.134 30.194C42.3833 29.6727 42.6723 29.2363 43.001 28.885C43.341 28.5223 43.698 28.2673 44.072 28.12C44.4573 27.9727 44.8427 27.899 45.228 27.899C45.6927 27.899 46.061 27.9897 46.333 28.171C46.6163 28.341 46.7977 28.579 46.877 28.885C46.8317 29.1683 46.724 29.395 46.554 29.565C46.384 29.7237 46.1687 29.803 45.908 29.803C45.704 29.803 45.5227 29.7577 45.364 29.667C45.2167 29.5763 45.058 29.412 44.888 29.174L44.565 28.681C44.3497 28.8283 44.1627 29.0323 44.004 29.293C43.8113 29.6103 43.6527 29.9957 43.528 30.449C43.4147 30.891 43.2843 31.469 43.137 32.183H44.922L44.735 33.101H42.933L42.508 35.073C42.2473 36.3197 41.981 37.3057 41.709 38.031C41.437 38.745 41.0857 39.323 40.655 39.765C40.315 40.1277 39.958 40.377 39.584 40.513C39.21 40.6603 38.836 40.734 38.462 40.734C37.986 40.734 37.595 40.632 37.289 40.428C36.983 40.224 36.8073 39.952 36.762 39.612C36.8413 39.3627 36.966 39.1643 37.136 39.017C37.306 38.881 37.5157 38.813 37.765 38.813C37.9577 38.813 38.1333 38.8583 38.292 38.949C38.4507 39.0397 38.6037 39.204 38.751 39.442L39.091 39.969C39.2157 39.8783 39.3177 39.782 39.397 39.68C39.4877 39.578 39.5727 39.4703 39.652 39.357C39.822 39.085 39.958 38.7733 40.06 38.422C40.1733 38.0707 40.281 37.6457 40.383 37.147C40.4963 36.6483 40.6267 36.0477 40.774 35.345L41.25 33.101H39.584ZM50.0274 42.4C49.2341 41.4933 48.5938 40.513 48.1064 39.459C47.6304 38.405 47.3924 37.232 47.3924 35.94C47.3924 34.172 47.8571 32.506 48.7864 30.942C49.7158 29.3667 51.1041 28.0123 52.9514 26.879L53.4444 27.525C51.9258 28.715 50.8094 30.0297 50.0954 31.469C49.3928 32.897 49.0414 34.4497 49.0414 36.127C49.0414 37.2263 49.1831 38.2293 49.4664 39.136C49.7498 40.054 50.1691 40.9833 50.7244 41.924L50.0274 42.4ZM52.2908 37.929C52.3588 37.6683 52.4778 37.4757 52.6478 37.351C52.8292 37.215 53.0275 37.147 53.2428 37.147C53.4695 37.147 53.6622 37.2093 53.8208 37.334C53.9795 37.4473 54.1495 37.674 54.3308 38.014L54.3988 38.133C54.4668 38.0877 54.5235 38.031 54.5688 37.963C54.9315 37.555 55.2715 37.1413 55.5888 36.722C55.9175 36.2913 56.2405 35.8493 56.5578 35.396L55.7758 32.931C55.6738 32.6023 55.5718 32.3813 55.4698 32.268C55.3792 32.1433 55.2432 32.081 55.0618 32.081C54.9372 32.081 54.7728 32.1377 54.5688 32.251C54.3648 32.3643 54.1495 32.6023 53.9228 32.965L53.5318 32.591C53.9058 31.9223 54.2912 31.4293 54.6878 31.112C55.0845 30.7833 55.4812 30.619 55.8778 30.619C56.2745 30.619 56.5748 30.738 56.7788 30.976C56.9942 31.214 57.1812 31.5993 57.3398 32.132L57.8668 33.815C58.1955 33.2823 58.5015 32.8177 58.7848 32.421C59.0795 32.013 59.3232 31.6843 59.5158 31.435C59.7765 31.129 60.0202 30.9193 60.2468 30.806C60.4848 30.6813 60.7455 30.619 61.0288 30.619C61.2895 30.619 61.5388 30.704 61.7768 30.874C62.0262 31.0327 62.1905 31.2763 62.2698 31.605C62.2585 31.911 62.1678 32.1603 61.9978 32.353C61.8392 32.5343 61.6295 32.625 61.3688 32.625C61.1535 32.625 60.9608 32.5797 60.7908 32.489C60.6208 32.387 60.4508 32.2113 60.2808 31.962L60.2128 31.843C60.1902 31.877 60.1562 31.9167 60.1108 31.962C59.7595 32.3813 59.4138 32.8063 59.0738 33.237C58.7452 33.6677 58.4165 34.104 58.0878 34.546L58.8528 36.96C58.9662 37.334 59.0795 37.5833 59.1928 37.708C59.3175 37.8213 59.4762 37.878 59.6688 37.878C59.8615 37.878 60.0825 37.776 60.3318 37.572C60.5812 37.368 60.8418 37.0903 61.1138 36.739L61.5898 37.079C61.2045 37.7023 60.7738 38.2237 60.2978 38.643C59.8218 39.0623 59.3232 39.272 58.8018 39.272C58.4845 39.272 58.2068 39.1813 57.9688 39C57.7308 38.8073 57.5325 38.456 57.3738 37.946L56.7958 36.11C56.4898 36.5973 56.2008 37.045 55.9288 37.453C55.6568 37.861 55.3792 38.2293 55.0958 38.558C54.9032 38.7847 54.6992 38.9547 54.4838 39.068C54.2798 39.1813 54.0362 39.238 53.7528 39.238C53.4128 39.238 53.0955 39.136 52.8008 38.932C52.5062 38.7167 52.3362 38.3823 52.2908 37.929ZM64.6303 26.879C65.4236 27.7743 66.0583 28.7547 66.5343 29.82C67.0216 30.874 67.2653 32.047 67.2653 33.339C67.2653 35.107 66.8006 36.773 65.8713 38.337C64.942 39.901 63.5536 41.2553 61.7063 42.4L61.2133 41.754C62.732 40.564 63.8426 39.255 64.5453 37.827C65.2593 36.3877 65.6163 34.8293 65.6163 33.152C65.6163 32.0527 65.4746 31.0497 65.1913 30.143C64.908 29.225 64.4886 28.2957 63.9333 27.355L64.6303 26.879Z" fill="#FF0000" fill-opacity="0.2"/>
<path d="M81.034 37.929C81.102 37.6683 81.221 37.4757 81.391 37.351C81.5723 37.215 81.7707 37.147 81.986 37.147C82.2127 37.147 82.4053 37.2093 82.564 37.334C82.7227 37.4473 82.8927 37.674 83.074 38.014L83.142 38.133C83.21 38.0877 83.2667 38.031 83.312 37.963C83.6747 37.555 84.0147 37.1413 84.332 36.722C84.6607 36.2913 84.9837 35.8493 85.301 35.396L84.519 32.931C84.417 32.6023 84.315 32.3813 84.213 32.268C84.1223 32.1433 83.9863 32.081 83.805 32.081C83.6803 32.081 83.516 32.1377 83.312 32.251C83.108 32.3643 82.8927 32.6023 82.666 32.965L82.275 32.591C82.649 31.9223 83.0343 31.4293 83.431 31.112C83.8277 30.7833 84.2243 30.619 84.621 30.619C85.0177 30.619 85.318 30.738 85.522 30.976C85.7373 31.214 85.9243 31.5993 86.083 32.132L86.61 33.815C86.9387 33.2823 87.2447 32.8177 87.528 32.421C87.8227 32.013 88.0663 31.6843 88.259 31.435C88.5197 31.129 88.7633 30.9193 88.99 30.806C89.228 30.6813 89.4887 30.619 89.772 30.619C90.0327 30.619 90.282 30.704 90.52 30.874C90.7693 31.0327 90.9337 31.2763 91.013 31.605C91.0017 31.911 90.911 32.1603 90.741 32.353C90.5823 32.5343 90.3727 32.625 90.112 32.625C89.8967 32.625 89.704 32.5797 89.534 32.489C89.364 32.387 89.194 32.2113 89.024 31.962L88.956 31.843C88.9333 31.877 88.8993 31.9167 88.854 31.962C88.5027 32.3813 88.157 32.8063 87.817 33.237C87.4883 33.6677 87.1597 34.104 86.831 34.546L87.596 36.96C87.7093 37.334 87.8227 37.5833 87.936 37.708C88.0607 37.8213 88.2193 37.878 88.412 37.878C88.6047 37.878 88.8257 37.776 89.075 37.572C89.3243 37.368 89.585 37.0903 89.857 36.739L90.333 37.079C89.9477 37.7023 89.517 38.2237 89.041 38.643C88.565 39.0623 88.0663 39.272 87.545 39.272C87.2277 39.272 86.95 39.1813 86.712 39C86.474 38.8073 86.2757 38.456 86.117 37.946L85.539 36.11C85.233 36.5973 84.944 37.045 84.672 37.453C84.4 37.861 84.1223 38.2293 83.839 38.558C83.6463 38.7847 83.4423 38.9547 83.227 39.068C83.023 39.1813 82.7793 39.238 82.496 39.238C82.156 39.238 81.8387 39.136 81.544 38.932C81.2493 38.7167 81.0793 38.3823 81.034 37.929Z" fill="#FF0000" fill-opacity="0.2"/>
<path d="M73.669 36.212C73.669 36.7673 73.7653 37.1697 73.958 37.419C74.1507 37.657 74.3943 37.776 74.689 37.776C74.961 37.776 75.2557 37.674 75.573 37.47C75.9017 37.2547 76.2757 36.9203 76.695 36.467L77.579 32.132C77.2843 31.9167 76.9557 31.809 76.593 31.809C76.3097 31.809 76.0207 31.8827 75.726 32.03C75.4427 32.1773 75.1933 32.37 74.978 32.608C74.7173 32.8687 74.485 33.203 74.281 33.611C74.0883 34.019 73.9353 34.4497 73.822 34.903C73.72 35.3563 73.669 35.7927 73.669 36.212ZM78.463 36.654C78.4177 36.858 78.3837 37.0337 78.361 37.181C78.3383 37.317 78.327 37.4303 78.327 37.521C78.327 37.6343 78.361 37.725 78.429 37.793C78.497 37.8497 78.5763 37.878 78.667 37.878C78.8483 37.878 79.0693 37.776 79.33 37.572C79.5907 37.368 79.857 37.0903 80.129 36.739L80.588 37.079C80.3727 37.4417 80.1063 37.7873 79.789 38.116C79.4717 38.4447 79.126 38.7167 78.752 38.932C78.3893 39.136 78.004 39.238 77.596 39.238C77.256 39.238 76.984 39.136 76.78 38.932C76.576 38.728 76.474 38.4503 76.474 38.099C76.474 37.9063 76.491 37.657 76.525 37.351C76.049 37.9063 75.5333 38.3597 74.978 38.711C74.434 39.0623 73.924 39.238 73.448 39.238C73.0173 39.238 72.632 39.068 72.292 38.728C71.9633 38.3767 71.799 37.7873 71.799 36.96C71.799 36.382 71.9067 35.7983 72.122 35.209C72.3373 34.6083 72.632 34.036 73.006 33.492C73.38 32.9367 73.7993 32.4437 74.264 32.013C74.74 31.5823 75.2273 31.2423 75.726 30.993C76.236 30.7437 76.7347 30.619 77.222 30.619C77.4713 30.619 77.715 30.67 77.953 30.772L78.446 28.239L76.95 28.069L77.035 27.491L80.282 26.59L80.52 26.76L78.463 36.654Z" fill="black"/>
</svg>
