<svg width="227" height="64" viewBox="0 0 227 64" fill="none" xmlns="http://www.w3.org/2000/svg">
<path d="M20.989 25.68L20.733 24.496C21.5863 23.8133 22.5037 23.3653 23.485 23.152C24.4877 22.9173 25.8317 22.8 27.517 22.8H34.845L34.973 25.104L28.861 24.976L28.989 33.52C29.0103 34.5867 29.181 35.3013 29.501 35.664C29.8423 36.0267 30.3223 36.208 30.941 36.208C31.1543 36.208 31.389 36.1867 31.645 36.144C31.901 36.08 32.1357 36.0053 32.349 35.92L32.605 36.72C32.221 37.296 31.805 37.7227 31.357 38C30.9303 38.2773 30.397 38.416 29.757 38.416C27.6023 38.416 26.525 37.104 26.525 34.48C26.525 33.1573 26.589 31.664 26.717 30C26.845 28.336 26.9837 26.6827 27.133 25.04L20.989 25.68Z" fill="black"/>
</svg>
