<svg width="227" height="64" viewBox="0 0 227 64" fill="none" xmlns="http://www.w3.org/2000/svg">
<path d="M23.312 25.648V24.496C23.9307 24.0693 24.528 23.7387 25.104 23.504C25.68 23.2693 26.3414 23.0987 27.088 22.992C27.856 22.8853 28.7947 22.832 29.904 22.832H36.4L36.08 25.072L30.928 24.944C30.5654 26.928 30.2774 28.5173 30.064 29.712C29.872 30.9067 29.7227 31.8347 29.616 32.496C29.5307 33.1573 29.4774 33.6587 29.456 34C29.4347 34.32 29.424 34.608 29.424 34.864C29.424 35.7813 29.744 36.24 30.384 36.24C30.6827 36.24 31.0027 36.1547 31.344 35.984C31.6854 35.8133 32.0267 35.5893 32.368 35.312L32.88 36.08C31.6427 37.6373 30.3734 38.416 29.072 38.416C28.368 38.416 27.8134 38.2027 27.408 37.776C27.0027 37.3493 26.8 36.7733 26.8 36.048C26.8 35.792 26.8214 35.4507 26.864 35.024C26.928 34.576 27.0347 33.9573 27.184 33.168C27.3547 32.3787 27.6 31.3227 27.92 30C28.2614 28.656 28.7094 26.96 29.264 24.912L23.312 25.648Z" fill="#FAFAFA"/>
</svg>
