<svg width="227" height="64" viewBox="0 0 227 64" fill="none" xmlns="http://www.w3.org/2000/svg">
<path d="M26.3739 28.688L25.0299 35.088C25.9259 36.24 27.0672 36.816 28.4539 36.816C29.4779 36.816 30.3739 36.464 31.1419 35.76C31.9099 35.056 32.5072 34.0853 32.9339 32.848C33.3605 31.6107 33.5739 30.192 33.5739 28.592C33.5739 26.9067 33.2965 25.6693 32.7419 24.88C32.2085 24.0907 31.4725 23.696 30.5339 23.696C29.5739 23.696 28.7312 24.1227 28.0059 24.976C27.2805 25.8293 26.7365 27.0667 26.3739 28.688ZM21.0939 44.016L20.6779 43.76L23.6859 29.712C24.1765 27.472 25.0619 25.7013 26.3419 24.4C27.6219 23.0773 29.1685 22.416 30.9819 22.416C32.4539 22.416 33.6805 22.928 34.6619 23.952C35.6645 24.9547 36.1659 26.4693 36.1659 28.496C36.1659 29.84 35.9525 31.12 35.5259 32.336C35.1205 33.5307 34.5552 34.5867 33.8299 35.504C33.1259 36.4 32.3259 37.1147 31.4299 37.648C30.5339 38.16 29.5952 38.416 28.6139 38.416C27.7605 38.416 26.9925 38.224 26.3099 37.84C25.6485 37.4347 25.1045 36.8693 24.6779 36.144L23.6539 43.536L21.0939 44.016Z" fill="black"/>
</svg>
