<svg width="227" height="64" viewBox="0 0 227 64" fill="none" xmlns="http://www.w3.org/2000/svg">
<path d="M21.096 30.3201C21.096 32.4961 21.64 34.1281 22.728 35.2161C23.8373 36.2828 25.384 36.8694 27.368 36.9761L27.624 23.8561C25.2987 23.8988 23.624 24.5174 22.6 25.7121C21.5973 26.8854 21.096 28.4214 21.096 30.3201ZM35.912 30.4161C35.912 28.2614 35.3467 26.6508 34.216 25.5841C33.1067 24.5174 31.56 23.9414 29.576 23.8561L29.608 36.9761C31.6987 36.8908 33.2667 36.2828 34.312 35.1521C35.3787 34.0214 35.912 32.4428 35.912 30.4161ZM26.92 43.7601L27.304 38.4161C24.3173 38.3094 22.056 37.5521 20.52 36.1441C19.0053 34.7148 18.248 32.8374 18.248 30.5121C18.248 29.5521 18.4293 28.5921 18.792 27.6321C19.1547 26.6721 19.7093 25.8081 20.456 25.0401C21.2027 24.2508 22.1733 23.6214 23.368 23.1521C24.5627 22.6614 25.992 22.4054 27.656 22.3841L27.752 17.8401H29.544V22.3841C32.616 22.4694 34.92 23.2268 36.456 24.6561C37.992 26.0641 38.76 27.9521 38.76 30.3201C38.76 31.2588 38.5893 32.1974 38.248 33.1361C37.9067 34.0748 37.3733 34.9388 36.648 35.7281C35.9227 36.4961 34.984 37.1254 33.832 37.6161C32.68 38.1068 31.2827 38.3734 29.64 38.4161L29.96 43.5041L27.432 44.1121L26.92 43.7601Z" fill="#FAFAFA"/>
</svg>
