<svg width="227" height="64" viewBox="0 0 227 64" fill="none" xmlns="http://www.w3.org/2000/svg">
<path d="M26.4126 43.76L27.0206 37.744C26.6153 36.08 26.146 34.4693 25.6126 32.912C25.0793 31.3333 24.5566 29.776 24.0446 28.24C23.5966 26.9173 23.202 26 22.8606 25.488C22.5406 24.976 22.1033 24.72 21.5486 24.72C21.2073 24.72 20.866 24.7627 20.5246 24.848L20.1406 23.888C20.5033 23.504 20.8873 23.184 21.2926 22.928C21.698 22.672 22.1886 22.544 22.7646 22.544C23.1913 22.544 23.5966 22.64 23.9806 22.832C24.3646 23.0027 24.7486 23.3973 25.1326 24.016C25.5166 24.6347 25.9113 25.584 26.3166 26.864C26.6366 27.8453 26.9886 29.0613 27.3726 30.512C27.778 31.9413 28.2153 33.7013 28.6846 35.792C29.4313 34.4053 30.0606 33.1253 30.5726 31.952C31.106 30.7787 31.618 29.52 32.1086 28.176C31.9593 27.0667 31.8633 26.2667 31.8206 25.776C31.778 25.2853 31.7566 24.88 31.7566 24.56C31.7566 23.8347 31.906 23.2907 32.2046 22.928C32.5033 22.5653 32.9086 22.384 33.4206 22.384C33.7406 22.384 33.9753 22.4267 34.1246 22.512C34.2953 22.576 34.4446 22.6613 34.5726 22.768C34.6153 22.9387 34.6473 23.1307 34.6686 23.344C34.7113 23.536 34.7326 23.8133 34.7326 24.176C34.7326 25.0293 34.562 26 34.2206 27.088C33.9006 28.176 33.4633 29.328 32.9086 30.544C32.354 31.7387 31.746 32.944 31.0846 34.16C30.4233 35.376 29.762 36.5387 29.1006 37.648L29.2286 43.504L26.7006 44.08L26.4126 43.76Z" fill="black"/>
</svg>
