<svg width="227" height="64" viewBox="0 0 227 64" fill="none" xmlns="http://www.w3.org/2000/svg">
<path d="M26.0635 44.0159L25.7435 43.7919L26.8635 38.4159C25.0288 38.3732 23.6101 37.8932 22.6075 36.9759C21.6261 36.0372 21.1355 34.9066 21.1355 33.5839C21.1355 33.0079 21.1995 32.3572 21.3275 31.6319C21.4555 30.9066 21.6048 30.1706 21.7755 29.4239C21.9675 28.6559 22.1275 27.9412 22.2555 27.2799C22.3835 26.5972 22.4475 26.0212 22.4475 25.5519C22.4475 25.2106 22.3835 24.9759 22.2555 24.8479C22.1488 24.6986 21.9461 24.6239 21.6475 24.6239C21.3488 24.6239 21.0181 24.6666 20.6555 24.7519C20.3141 24.8159 19.8875 24.9439 19.3755 25.1359L18.9595 24.3039C19.8128 23.5572 20.4955 23.0559 21.0075 22.7999C21.5195 22.5439 22.0741 22.4159 22.6715 22.4159C24.1008 22.4159 24.8155 23.2479 24.8155 24.9119C24.8155 25.4666 24.7408 26.1172 24.5915 26.8639C24.4635 27.5892 24.3035 28.3572 24.1115 29.1679C23.9408 29.9786 23.7808 30.7679 23.6315 31.5359C23.5035 32.3039 23.4395 32.9866 23.4395 33.5839C23.4395 34.5439 23.7488 35.3119 24.3675 35.8879C25.0075 36.4426 25.9461 36.7626 27.1835 36.8479L30.5755 18.0959L32.0475 17.7759L32.3355 18.0959L29.5195 36.8799C30.8635 36.7946 32.0368 36.3572 33.0395 35.5679C34.0421 34.7572 34.8208 33.7546 35.3755 32.5599C35.9301 31.3439 36.2075 30.0959 36.2075 28.8159C36.2075 28.7732 36.2075 28.7306 36.2075 28.6879C36.2075 28.6239 36.2075 28.5706 36.2075 28.5279C35.5461 27.4826 35.1088 26.6399 34.8955 25.9999C34.6821 25.3386 34.5755 24.7732 34.5755 24.3039C34.5755 23.5572 34.7568 23.0559 35.1195 22.7999C35.5035 22.5439 35.8768 22.4159 36.2395 22.4159C36.6021 22.4159 36.8795 22.4692 37.0715 22.5759C37.2848 22.6826 37.4555 22.8426 37.5835 23.0559C37.6688 23.5892 37.7221 24.3039 37.7435 25.1999C37.7648 26.0746 37.7755 26.8426 37.7755 27.5039C37.7755 29.2959 37.5195 30.8639 37.0075 32.2079C36.5168 33.5519 35.8555 34.6826 35.0235 35.5999C34.2128 36.4959 33.3061 37.1786 32.3035 37.6479C31.3008 38.1172 30.2981 38.3839 29.2955 38.4479L28.7195 43.5359L26.0635 44.0159Z" fill="#FAFAFA"/>
</svg>
