<svg width="227" height="64" viewBox="0 0 227 64" fill="none" xmlns="http://www.w3.org/2000/svg">
<path d="M27.6569 38.416C26.4835 38.416 25.4809 38.1387 24.6489 37.584C23.8169 37.008 23.1769 36.2507 22.7289 35.312C22.3022 34.352 22.0889 33.3173 22.0889 32.208C22.0889 30.6507 22.3982 29.2533 23.0169 28.016C23.6569 26.7573 24.4995 25.7227 25.5449 24.912C26.6115 24.1013 27.7849 23.6107 29.0649 23.44C28.0195 22.4587 27.2835 21.6053 26.8569 20.88C26.4515 20.1547 26.2489 19.3867 26.2489 18.576C26.2489 17.3813 26.7182 16.3787 27.6569 15.568C28.6169 14.736 29.9609 14.32 31.6889 14.32C33.0542 14.32 34.1849 14.608 35.0809 15.184C35.9982 15.7387 36.6169 16.4213 36.9369 17.232C36.8942 17.68 36.7342 18.0213 36.4569 18.256C36.2009 18.4693 35.9129 18.576 35.5929 18.576C35.1875 18.576 34.8355 18.4587 34.5369 18.224C34.2595 17.9893 33.9715 17.6693 33.6729 17.264L32.5529 15.536C32.4675 15.5147 32.3822 15.504 32.2969 15.504C32.2329 15.504 32.1582 15.504 32.0729 15.504C30.8355 15.504 29.9182 15.7493 29.3209 16.24C28.7235 16.7307 28.4249 17.3493 28.4249 18.096C28.4249 18.416 28.4995 18.7573 28.6489 19.12C28.8195 19.4827 29.1502 19.9307 29.6409 20.464C30.1315 20.9973 30.8462 21.7013 31.7849 22.576C33.0435 23.7493 33.9395 24.8587 34.4729 25.904C35.0275 26.9493 35.3049 28.1227 35.3049 29.424C35.3049 31.152 34.9635 32.6987 34.2809 34.064C33.6195 35.408 32.7129 36.4747 31.5609 37.264C30.4089 38.032 29.1075 38.416 27.6569 38.416ZM24.6809 32.432C24.6809 33.9893 24.9689 35.1627 25.5449 35.952C26.1422 36.7413 26.8995 37.136 27.8169 37.136C28.7342 37.136 29.5555 36.8267 30.2809 36.208C31.0275 35.5893 31.6142 34.7467 32.0409 33.68C32.4675 32.6133 32.6809 31.4187 32.6809 30.096C32.6809 27.7707 31.7635 25.8187 29.9289 24.24C29.9075 24.2187 29.8862 24.1973 29.8649 24.176C29.8435 24.1547 29.8115 24.1333 29.7689 24.112C28.9155 24.3467 28.0942 24.8373 27.3049 25.584C26.5369 26.3093 25.9075 27.248 25.4169 28.4C24.9262 29.552 24.6809 30.896 24.6809 32.432Z" fill="black"/>
</svg>
