<svg width="227" height="64" viewBox="0 0 227 64" fill="none" xmlns="http://www.w3.org/2000/svg">
<path d="M33.3433 38.416C32.6819 38.416 32.1699 38.2027 31.8073 37.776C31.4446 37.328 31.2633 36.7093 31.2633 35.92C31.2633 35.728 31.2953 35.376 31.3593 34.864C30.5913 36.0373 29.7593 36.9227 28.8633 37.52C27.9886 38.1173 27.1993 38.416 26.4953 38.416C25.2366 38.416 24.3619 37.7653 23.8713 36.464L22.9753 43.536L20.4473 44.016L20.0953 43.76L22.6553 34.768L24.5753 22.992L27.1993 22.416L27.4553 22.736C26.9433 24.848 26.5059 26.608 26.1433 28.016C25.8019 29.424 25.5139 30.6187 25.2793 31.6C25.0659 32.56 24.8739 33.4667 24.7033 34.32C24.9379 34.9173 25.2686 35.344 25.6953 35.6C26.1219 35.856 26.5913 35.984 27.1033 35.984C27.8499 35.984 28.6073 35.76 29.3753 35.312C30.1646 34.8427 30.9113 34.1387 31.6153 33.2C31.7006 32.8373 31.7859 32.4107 31.8713 31.92C31.9566 31.4293 32.0633 30.864 32.1913 30.224L33.5673 22.992L36.1912 22.416L36.4473 22.736L35.3913 26.64C34.7299 28.9867 34.2606 30.8107 33.9833 32.112C33.7059 33.392 33.5673 34.3627 33.5673 35.024C33.5673 35.8347 33.8766 36.24 34.4953 36.24C34.7726 36.24 35.0606 36.1547 35.3593 35.984C35.6579 35.8133 35.9779 35.5893 36.3193 35.312L36.8313 36.048C36.2339 36.7947 35.6473 37.3813 35.0713 37.808C34.4953 38.2133 33.9193 38.416 33.3433 38.416Z" fill="black"/>
</svg>
