<svg width="227" height="64" viewBox="0 0 227 64" fill="none" xmlns="http://www.w3.org/2000/svg">
<path d="M18.4081 40.3121C16.7601 40.3121 15.4481 39.7761 14.4721 38.7041C13.4961 37.6321 13.0081 36.1761 13.0081 34.3361C13.0081 33.0721 13.2641 31.9921 13.7761 31.0961C14.3041 30.1841 14.9921 29.4881 15.8401 29.0081C16.6881 28.5281 17.5921 28.2881 18.5521 28.2881C19.2721 28.2881 19.9361 28.4241 20.5441 28.6961C21.1521 28.9681 21.6561 29.3441 22.0561 29.8241C22.4561 30.2881 22.7041 30.8161 22.8001 31.4081C22.6881 32.0161 22.3201 32.3201 21.6961 32.3201C21.2961 32.3201 20.9921 32.2161 20.7841 32.0081C20.5921 31.7841 20.4561 31.5041 20.3761 31.1681L19.9441 29.5841C19.7201 29.5041 19.4961 29.4561 19.2721 29.4401C19.0641 29.4081 18.8561 29.3921 18.6481 29.3921C17.6241 29.3921 16.7761 29.7921 16.1041 30.5921C15.4481 31.3921 15.1201 32.5601 15.1201 34.0961C15.1201 35.6001 15.4801 36.7521 16.2001 37.5521C16.9201 38.3521 17.8401 38.7521 18.9601 38.7521C19.6481 38.7521 20.2801 38.6001 20.8561 38.2961C21.4321 37.9761 21.9041 37.5201 22.2721 36.9281L22.8721 37.2401C22.5361 38.2321 21.9921 38.9921 21.2401 39.5201C20.4881 40.0481 19.5441 40.3121 18.4081 40.3121ZM30.2949 40.3121C29.3669 40.3121 28.4789 40.0961 27.6309 39.6641C26.7989 39.2161 26.1189 38.5521 25.5909 37.6721C25.0629 36.7761 24.7989 35.6721 24.7989 34.3601C24.7989 33.0321 25.0629 31.9201 25.5909 31.0241C26.1189 30.1121 26.7989 29.4321 27.6309 28.9841C28.4789 28.5201 29.3669 28.2881 30.2949 28.2881C31.2229 28.2881 32.1029 28.5201 32.9349 28.9841C33.7829 29.4321 34.4709 30.1121 34.9989 31.0241C35.5429 31.9201 35.8149 33.0321 35.8149 34.3601C35.8149 35.6721 35.5429 36.7761 34.9989 37.6721C34.4709 38.5521 33.7829 39.2161 32.9349 39.6641C32.1029 40.0961 31.2229 40.3121 30.2949 40.3121ZM30.2949 39.2321C31.3349 39.2321 32.1349 38.8241 32.6949 38.0081C33.2549 37.1761 33.5349 35.9601 33.5349 34.3601C33.5349 32.7441 33.2549 31.5121 32.6949 30.6641C32.1349 29.8161 31.3349 29.3921 30.2949 29.3921C29.2549 29.3921 28.4549 29.8161 27.8949 30.6641C27.3509 31.5121 27.0789 32.7441 27.0789 34.3601C27.0789 35.9601 27.3509 37.1761 27.8949 38.0081C28.4549 38.8241 29.2549 39.2321 30.2949 39.2321ZM41.5764 40.3121C40.7444 40.3121 40.0804 40.0881 39.5844 39.6401C39.0884 39.1921 38.8404 38.5041 38.8404 37.5761C38.8404 37.2721 38.8404 36.9761 38.8404 36.6881C38.8564 36.3841 38.8644 36.0001 38.8644 35.5361V29.8721H36.8724V28.8161L39.0084 28.5521L39.6324 25.3361H41.0724L40.9284 28.6001H44.1684V29.8721H40.9044V37.3121C40.9044 37.9201 41.0244 38.3681 41.2644 38.6561C41.5044 38.9281 41.8244 39.0641 42.2244 39.0641C42.4964 39.0641 42.7524 39.0081 42.9923 38.8961C43.2484 38.7841 43.5284 38.6241 43.8324 38.4161L44.4084 39.0401C43.7524 39.8881 42.8084 40.3121 41.5764 40.3121Z" fill="#FAFAFA"/>
<path d="M60 26H47V41H60V26Z" fill="#39B8FF" fill-opacity="0.3"/>
<path d="M50.2172 36.136C50.2172 36.872 50.3372 37.416 50.5772 37.768C50.8332 38.104 51.1692 38.272 51.5852 38.272C51.9532 38.272 52.3612 38.136 52.8092 37.864C53.2572 37.576 53.7772 37.12 54.3692 36.496L55.7132 30.232C55.5052 30.12 55.2812 30.032 55.0412 29.968C54.8172 29.888 54.5852 29.848 54.3452 29.848C53.6732 29.848 52.9532 30.216 52.1852 30.952C51.8172 31.32 51.4812 31.792 51.1772 32.368C50.8732 32.928 50.6332 33.536 50.4572 34.192C50.2972 34.848 50.2172 35.496 50.2172 36.136ZM55.7132 40.336C55.2492 40.336 54.8652 40.192 54.5612 39.904C54.2572 39.6 54.1052 39.152 54.1052 38.56C54.1052 38.416 54.1052 38.28 54.1052 38.152C54.1212 38.008 54.1372 37.872 54.1532 37.744C53.4812 38.512 52.7772 39.136 52.0412 39.616C51.3052 40.096 50.6092 40.336 49.9532 40.336C49.3452 40.336 48.7932 40.104 48.2972 39.64C47.8012 39.16 47.5532 38.368 47.5532 37.264C47.5532 36.416 47.7132 35.56 48.0332 34.696C48.3532 33.832 48.7852 33.016 49.3292 32.248C49.8732 31.464 50.4812 30.768 51.1532 30.16C51.8252 29.536 52.5212 29.048 53.2412 28.696C53.9612 28.344 54.6492 28.168 55.3052 28.168C55.6252 28.168 55.9132 28.232 56.1692 28.36C56.4252 28.472 56.6732 28.64 56.9132 28.864L58.3772 28.024L58.7852 28.288L56.8652 36.712C56.7372 37.256 56.6732 37.656 56.6732 37.912C56.6732 38.248 56.8412 38.416 57.1772 38.416C57.4492 38.416 57.7532 38.272 58.0892 37.984C58.4412 37.68 58.8172 37.28 59.2172 36.784L59.8652 37.264C59.5612 37.744 59.1932 38.224 58.7612 38.704C58.3292 39.168 57.8572 39.56 57.3452 39.88C56.8332 40.184 56.2892 40.336 55.7132 40.336Z" fill="#39B8FF" fill-opacity="0.7"/>
</svg>
