<svg width="227" height="64" viewBox="0 0 227 64" fill="none" xmlns="http://www.w3.org/2000/svg">
<path d="M27.6462 38.416C26.0035 38.416 24.7342 38.0853 23.8382 37.424C22.9635 36.7627 22.5262 35.8133 22.5262 34.576C22.5262 33.4453 23.0168 32.4747 23.9982 31.664C24.9795 30.832 26.2275 30.3093 27.7422 30.096C25.5022 29.7333 24.3822 28.6133 24.3822 26.736C24.3822 25.904 24.6488 25.168 25.1822 24.528C25.7368 23.8667 26.4835 23.3547 27.4222 22.992C28.3822 22.608 29.4595 22.416 30.6542 22.416C31.7848 22.416 32.7662 22.5547 33.5982 22.832C34.4515 23.1093 35.0275 23.4933 35.3262 23.984C35.3048 24.5173 35.1448 24.944 34.8462 25.264C34.5475 25.5627 34.1528 25.712 33.6622 25.712C33.3422 25.712 33.0008 25.6053 32.6382 25.392C32.2755 25.1573 31.9022 24.8587 31.5182 24.496L30.5262 23.568C29.3955 23.5893 28.5208 23.856 27.9022 24.368C27.2835 24.8587 26.9742 25.5413 26.9742 26.416C26.9742 27.2053 27.2942 27.8347 27.9342 28.304C28.5742 28.752 29.4808 28.976 30.6542 28.976C31.0382 28.976 31.3048 28.976 31.4542 28.976C31.6035 28.976 31.8808 28.9653 32.2862 28.944L31.8382 31.024C31.6462 31.0027 31.4435 30.992 31.2302 30.992C31.0168 30.992 30.7928 30.992 30.5582 30.992C28.9368 30.992 27.6462 31.2693 26.6862 31.824C25.7262 32.3787 25.2462 33.136 25.2462 34.096C25.2462 34.928 25.5022 35.536 26.0142 35.92C26.5475 36.2827 27.3368 36.464 28.3822 36.464C29.4488 36.464 30.3662 36.336 31.1342 36.08C31.9235 35.8027 32.7128 35.3333 33.5022 34.672L34.1102 35.376C33.2782 36.3573 32.2968 37.1147 31.1662 37.648C30.0355 38.16 28.8622 38.416 27.6462 38.416Z" fill="#FAFAFA"/>
</svg>
