<svg width="227" height="64" viewBox="0 0 227 64" fill="none" xmlns="http://www.w3.org/2000/svg">
<path d="M28 49H18V60H28V49Z" fill="#39B8FF" fill-opacity="0.3"/>
<path d="M35 8H25V19H35V8Z" fill="#39B8FF" fill-opacity="0.3"/>
<path d="M21.0288 56.2631C21.0288 56.7844 21.1138 57.1698 21.2838 57.4191C21.4651 57.6571 21.7031 57.7761 21.9978 57.7761C22.2584 57.7761 22.5474 57.6798 22.8648 57.4871C23.1821 57.2831 23.5504 56.9601 23.9698 56.5181L24.9218 52.0811C24.7744 52.0018 24.6158 51.9394 24.4458 51.8941C24.2871 51.8374 24.1228 51.8091 23.9528 51.8091C23.4768 51.8091 22.9668 52.0698 22.4228 52.5911C22.1621 52.8518 21.9241 53.1861 21.7088 53.5941C21.4934 53.9908 21.3234 54.4214 21.1988 54.8861C21.0854 55.3508 21.0288 55.8098 21.0288 56.2631ZM24.9218 59.2381C24.5931 59.2381 24.3211 59.1361 24.1058 58.9321C23.8904 58.7168 23.7828 58.3994 23.7828 57.9801C23.7828 57.8781 23.7828 57.7818 23.7828 57.6911C23.7941 57.5891 23.8054 57.4928 23.8168 57.4021C23.3408 57.9461 22.8421 58.3881 22.3208 58.7281C21.7994 59.0681 21.3064 59.2381 20.8418 59.2381C20.4111 59.2381 20.0201 59.0738 19.6688 58.7451C19.3174 58.4051 19.1418 57.8441 19.1418 57.0621C19.1418 56.4614 19.2551 55.8551 19.4818 55.2431C19.7084 54.6311 20.0144 54.0531 20.3998 53.5091C20.7851 52.9538 21.2158 52.4608 21.6918 52.0301C22.1678 51.5881 22.6608 51.2424 23.1708 50.9931C23.6808 50.7438 24.1681 50.6191 24.6328 50.6191C24.8594 50.6191 25.0634 50.6644 25.2448 50.7551C25.4261 50.8344 25.6018 50.9534 25.7718 51.1121L26.8088 50.5171L27.0978 50.7041L25.7378 56.6711C25.6471 57.0564 25.6018 57.3398 25.6018 57.5211C25.6018 57.7591 25.7208 57.8781 25.9588 57.8781C26.1514 57.8781 26.3668 57.7761 26.6048 57.5721C26.8541 57.3568 27.1204 57.0734 27.4038 56.7221L27.8628 57.0621C27.6474 57.4021 27.3868 57.7421 27.0808 58.0821C26.7748 58.4108 26.4404 58.6884 26.0778 58.9151C25.7151 59.1304 25.3298 59.2381 24.9218 59.2381Z" fill="#39B8FF" fill-opacity="0.7"/>
<path d="M28.2539 16.198C28.2539 16.47 28.3219 16.6853 28.4579 16.844C28.6052 17.0027 28.8149 17.082 29.0869 17.082C29.6989 17.082 30.2882 16.759 30.8549 16.113C31.2176 15.705 31.5179 15.1723 31.7559 14.515C31.9939 13.8463 32.1129 13.1947 32.1129 12.56C32.1129 12.0613 32.0222 11.6873 31.8409 11.438C31.6709 11.1773 31.4386 11.047 31.1439 11.047C30.8266 11.047 30.4866 11.1717 30.1239 11.421C29.7612 11.659 29.3702 11.9933 28.9509 12.424L28.5939 14.005C28.4806 14.5717 28.3956 15.0137 28.3389 15.331C28.2822 15.637 28.2539 15.926 28.2539 16.198ZM28.1349 18.238C27.6476 18.238 27.2396 18.102 26.9109 17.83C26.5936 17.5467 26.4349 17.1273 26.4349 16.572C26.4349 16.1753 26.4746 15.7447 26.5539 15.28C26.6446 14.804 26.7466 14.3053 26.8599 13.784L28.1689 7.23897L26.7409 7.06897L26.8429 6.49097L30.0899 5.58997L30.3109 5.75997L29.0869 11.625C29.5856 11.0017 30.1239 10.5143 30.7019 10.163C31.2799 9.8003 31.8126 9.61897 32.2999 9.61897C32.7759 9.61897 33.1726 9.78897 33.4899 10.129C33.8072 10.469 33.9659 11.0413 33.9659 11.846C33.9659 12.458 33.8526 13.07 33.6259 13.682C33.4106 14.294 33.1102 14.8777 32.7249 15.433C32.3509 15.977 31.9146 16.4587 31.4159 16.878C30.9172 17.2973 30.3846 17.6317 29.8179 17.881C29.2626 18.119 28.7016 18.238 28.1349 18.238Z" fill="#39B8FF" fill-opacity="0.7"/>
<path d="M25.648 40.096C25.648 38.784 25.584 37.472 25.456 36.16C25.328 34.848 25.2 33.536 25.072 32.224C24.944 30.896 24.88 29.584 24.88 28.288C24.88 26.784 25.104 25.536 25.552 24.544C26.016 23.536 26.632 22.784 27.4 22.288C28.168 21.776 29 21.52 29.896 21.52C30.456 21.52 30.928 21.648 31.312 21.904C31.712 22.144 31.968 22.448 32.08 22.816C32.016 23.136 31.872 23.4 31.648 23.608C31.424 23.8 31.112 23.896 30.712 23.896C30.456 23.896 30.2 23.84 29.944 23.728C29.688 23.6 29.432 23.4 29.176 23.128L28.72 22.6C28.08 23.032 27.608 23.68 27.304 24.544C27 25.392 26.848 26.344 26.848 27.4C26.848 28.696 26.912 30.008 27.04 31.336C27.168 32.664 27.296 33.992 27.424 35.32C27.552 36.632 27.616 37.936 27.616 39.232C27.616 40.528 27.456 41.608 27.136 42.472C26.832 43.336 26.424 44.024 25.912 44.536C25.416 45.048 24.872 45.416 24.28 45.64C23.704 45.864 23.144 45.976 22.6 45.976C22.04 45.976 21.568 45.848 21.184 45.592C20.8 45.352 20.544 45.056 20.416 44.704C20.48 44.384 20.632 44.12 20.872 43.912C21.096 43.704 21.408 43.6 21.808 43.6C22.064 43.6 22.312 43.656 22.552 43.768C22.808 43.88 23.064 44.088 23.32 44.392L23.8 44.92C25.032 44.136 25.648 42.528 25.648 40.096Z" fill="#FAFAFA"/>
<path d="M68 26H37V41H68V26Z" fill="#39B8FF" fill-opacity="0.3"/>
<path d="M91 26H81V41H91V26Z" fill="#39B8FF" fill-opacity="0.3"/>
<path d="M39.584 33.101L39.771 32.183H41.471C41.675 31.3783 41.896 30.7153 42.134 30.194C42.3833 29.6727 42.6723 29.2363 43.001 28.885C43.341 28.5223 43.698 28.2673 44.072 28.12C44.4573 27.9727 44.8427 27.899 45.228 27.899C45.6927 27.899 46.061 27.9897 46.333 28.171C46.6163 28.341 46.7977 28.579 46.877 28.885C46.8317 29.1683 46.724 29.395 46.554 29.565C46.384 29.7237 46.1687 29.803 45.908 29.803C45.704 29.803 45.5227 29.7577 45.364 29.667C45.2167 29.5763 45.058 29.412 44.888 29.174L44.565 28.681C44.3497 28.8283 44.1627 29.0323 44.004 29.293C43.8113 29.6103 43.6527 29.9957 43.528 30.449C43.4147 30.891 43.2843 31.469 43.137 32.183H44.922L44.735 33.101H42.933L42.508 35.073C42.2473 36.3197 41.981 37.3057 41.709 38.031C41.437 38.745 41.0857 39.323 40.655 39.765C40.315 40.1277 39.958 40.377 39.584 40.513C39.21 40.6603 38.836 40.734 38.462 40.734C37.986 40.734 37.595 40.632 37.289 40.428C36.983 40.224 36.8073 39.952 36.762 39.612C36.8413 39.3627 36.966 39.1643 37.136 39.017C37.306 38.881 37.5157 38.813 37.765 38.813C37.9577 38.813 38.1333 38.8583 38.292 38.949C38.4507 39.0397 38.6037 39.204 38.751 39.442L39.091 39.969C39.2157 39.8783 39.3177 39.782 39.397 39.68C39.4877 39.578 39.5727 39.4703 39.652 39.357C39.822 39.085 39.958 38.7733 40.06 38.422C40.1733 38.0707 40.281 37.6457 40.383 37.147C40.4963 36.6483 40.6267 36.0477 40.774 35.345L41.25 33.101H39.584ZM50.0274 42.4C49.2341 41.4933 48.5938 40.513 48.1064 39.459C47.6304 38.405 47.3924 37.232 47.3924 35.94C47.3924 34.172 47.8571 32.506 48.7864 30.942C49.7158 29.3667 51.1041 28.0123 52.9514 26.879L53.4444 27.525C51.9258 28.715 50.8094 30.0297 50.0954 31.469C49.3928 32.897 49.0414 34.4497 49.0414 36.127C49.0414 37.2263 49.1831 38.2293 49.4664 39.136C49.7498 40.054 50.1691 40.9833 50.7244 41.924L50.0274 42.4ZM52.2908 37.929C52.3588 37.6683 52.4778 37.4757 52.6478 37.351C52.8292 37.215 53.0275 37.147 53.2428 37.147C53.4695 37.147 53.6622 37.2093 53.8208 37.334C53.9795 37.4473 54.1495 37.674 54.3308 38.014L54.3988 38.133C54.4668 38.0877 54.5235 38.031 54.5688 37.963C54.9315 37.555 55.2715 37.1413 55.5888 36.722C55.9175 36.2913 56.2405 35.8493 56.5578 35.396L55.7758 32.931C55.6738 32.6023 55.5718 32.3813 55.4698 32.268C55.3792 32.1433 55.2432 32.081 55.0618 32.081C54.9372 32.081 54.7728 32.1377 54.5688 32.251C54.3648 32.3643 54.1495 32.6023 53.9228 32.965L53.5318 32.591C53.9058 31.9223 54.2912 31.4293 54.6878 31.112C55.0845 30.7833 55.4812 30.619 55.8778 30.619C56.2745 30.619 56.5748 30.738 56.7788 30.976C56.9942 31.214 57.1812 31.5993 57.3398 32.132L57.8668 33.815C58.1955 33.2823 58.5015 32.8177 58.7848 32.421C59.0795 32.013 59.3232 31.6843 59.5158 31.435C59.7765 31.129 60.0202 30.9193 60.2468 30.806C60.4848 30.6813 60.7455 30.619 61.0288 30.619C61.2895 30.619 61.5388 30.704 61.7768 30.874C62.0262 31.0327 62.1905 31.2763 62.2698 31.605C62.2585 31.911 62.1678 32.1603 61.9978 32.353C61.8392 32.5343 61.6295 32.625 61.3688 32.625C61.1535 32.625 60.9608 32.5797 60.7908 32.489C60.6208 32.387 60.4508 32.2113 60.2808 31.962L60.2128 31.843C60.1902 31.877 60.1562 31.9167 60.1108 31.962C59.7595 32.3813 59.4138 32.8063 59.0738 33.237C58.7452 33.6677 58.4165 34.104 58.0878 34.546L58.8528 36.96C58.9662 37.334 59.0795 37.5833 59.1928 37.708C59.3175 37.8213 59.4762 37.878 59.6688 37.878C59.8615 37.878 60.0825 37.776 60.3318 37.572C60.5812 37.368 60.8418 37.0903 61.1138 36.739L61.5898 37.079C61.2045 37.7023 60.7738 38.2237 60.2978 38.643C59.8218 39.0623 59.3232 39.272 58.8018 39.272C58.4845 39.272 58.2068 39.1813 57.9688 39C57.7308 38.8073 57.5325 38.456 57.3738 37.946L56.7958 36.11C56.4898 36.5973 56.2008 37.045 55.9288 37.453C55.6568 37.861 55.3792 38.2293 55.0958 38.558C54.9032 38.7847 54.6992 38.9547 54.4838 39.068C54.2798 39.1813 54.0362 39.238 53.7528 39.238C53.4128 39.238 53.0955 39.136 52.8008 38.932C52.5062 38.7167 52.3362 38.3823 52.2908 37.929ZM64.6303 26.879C65.4236 27.7743 66.0583 28.7547 66.5343 29.82C67.0216 30.874 67.2653 32.047 67.2653 33.339C67.2653 35.107 66.8006 36.773 65.8713 38.337C64.942 39.901 63.5536 41.2553 61.7063 42.4L61.2133 41.754C62.732 40.564 63.8426 39.255 64.5453 37.827C65.2593 36.3877 65.6163 34.8293 65.6163 33.152C65.6163 32.0527 65.4746 31.0497 65.1913 30.143C64.908 29.225 64.4886 28.2957 63.9333 27.355L64.6303 26.879Z" fill="#39B8FF" fill-opacity="0.7"/>
<path d="M39.584 33.101L39.771 32.183H41.471C41.675 31.3783 41.896 30.7153 42.134 30.194C42.3833 29.6727 42.6723 29.2363 43.001 28.885C43.341 28.5223 43.698 28.2673 44.072 28.12C44.4573 27.9727 44.8427 27.899 45.228 27.899C45.6927 27.899 46.061 27.9897 46.333 28.171C46.6163 28.341 46.7977 28.579 46.877 28.885C46.8317 29.1683 46.724 29.395 46.554 29.565C46.384 29.7237 46.1687 29.803 45.908 29.803C45.704 29.803 45.5227 29.7577 45.364 29.667C45.2167 29.5763 45.058 29.412 44.888 29.174L44.565 28.681C44.3497 28.8283 44.1627 29.0323 44.004 29.293C43.8113 29.6103 43.6527 29.9957 43.528 30.449C43.4147 30.891 43.2843 31.469 43.137 32.183H44.922L44.735 33.101H42.933L42.508 35.073C42.2473 36.3197 41.981 37.3057 41.709 38.031C41.437 38.745 41.0857 39.323 40.655 39.765C40.315 40.1277 39.958 40.377 39.584 40.513C39.21 40.6603 38.836 40.734 38.462 40.734C37.986 40.734 37.595 40.632 37.289 40.428C36.983 40.224 36.8073 39.952 36.762 39.612C36.8413 39.3627 36.966 39.1643 37.136 39.017C37.306 38.881 37.5157 38.813 37.765 38.813C37.9577 38.813 38.1333 38.8583 38.292 38.949C38.4507 39.0397 38.6037 39.204 38.751 39.442L39.091 39.969C39.2157 39.8783 39.3177 39.782 39.397 39.68C39.4877 39.578 39.5727 39.4703 39.652 39.357C39.822 39.085 39.958 38.7733 40.06 38.422C40.1733 38.0707 40.281 37.6457 40.383 37.147C40.4963 36.6483 40.6267 36.0477 40.774 35.345L41.25 33.101H39.584ZM50.0274 42.4C49.2341 41.4933 48.5938 40.513 48.1064 39.459C47.6304 38.405 47.3924 37.232 47.3924 35.94C47.3924 34.172 47.8571 32.506 48.7864 30.942C49.7158 29.3667 51.1041 28.0123 52.9514 26.879L53.4444 27.525C51.9258 28.715 50.8094 30.0297 50.0954 31.469C49.3928 32.897 49.0414 34.4497 49.0414 36.127C49.0414 37.2263 49.1831 38.2293 49.4664 39.136C49.7498 40.054 50.1691 40.9833 50.7244 41.924L50.0274 42.4ZM52.2908 37.929C52.3588 37.6683 52.4778 37.4757 52.6478 37.351C52.8292 37.215 53.0275 37.147 53.2428 37.147C53.4695 37.147 53.6622 37.2093 53.8208 37.334C53.9795 37.4473 54.1495 37.674 54.3308 38.014L54.3988 38.133C54.4668 38.0877 54.5235 38.031 54.5688 37.963C54.9315 37.555 55.2715 37.1413 55.5888 36.722C55.9175 36.2913 56.2405 35.8493 56.5578 35.396L55.7758 32.931C55.6738 32.6023 55.5718 32.3813 55.4698 32.268C55.3792 32.1433 55.2432 32.081 55.0618 32.081C54.9372 32.081 54.7728 32.1377 54.5688 32.251C54.3648 32.3643 54.1495 32.6023 53.9228 32.965L53.5318 32.591C53.9058 31.9223 54.2912 31.4293 54.6878 31.112C55.0845 30.7833 55.4812 30.619 55.8778 30.619C56.2745 30.619 56.5748 30.738 56.7788 30.976C56.9942 31.214 57.1812 31.5993 57.3398 32.132L57.8668 33.815C58.1955 33.2823 58.5015 32.8177 58.7848 32.421C59.0795 32.013 59.3232 31.6843 59.5158 31.435C59.7765 31.129 60.0202 30.9193 60.2468 30.806C60.4848 30.6813 60.7455 30.619 61.0288 30.619C61.2895 30.619 61.5388 30.704 61.7768 30.874C62.0262 31.0327 62.1905 31.2763 62.2698 31.605C62.2585 31.911 62.1678 32.1603 61.9978 32.353C61.8392 32.5343 61.6295 32.625 61.3688 32.625C61.1535 32.625 60.9608 32.5797 60.7908 32.489C60.6208 32.387 60.4508 32.2113 60.2808 31.962L60.2128 31.843C60.1902 31.877 60.1562 31.9167 60.1108 31.962C59.7595 32.3813 59.4138 32.8063 59.0738 33.237C58.7452 33.6677 58.4165 34.104 58.0878 34.546L58.8528 36.96C58.9662 37.334 59.0795 37.5833 59.1928 37.708C59.3175 37.8213 59.4762 37.878 59.6688 37.878C59.8615 37.878 60.0825 37.776 60.3318 37.572C60.5812 37.368 60.8418 37.0903 61.1138 36.739L61.5898 37.079C61.2045 37.7023 60.7738 38.2237 60.2978 38.643C59.8218 39.0623 59.3232 39.272 58.8018 39.272C58.4845 39.272 58.2068 39.1813 57.9688 39C57.7308 38.8073 57.5325 38.456 57.3738 37.946L56.7958 36.11C56.4898 36.5973 56.2008 37.045 55.9288 37.453C55.6568 37.861 55.3792 38.2293 55.0958 38.558C54.9032 38.7847 54.6992 38.9547 54.4838 39.068C54.2798 39.1813 54.0362 39.238 53.7528 39.238C53.4128 39.238 53.0955 39.136 52.8008 38.932C52.5062 38.7167 52.3362 38.3823 52.2908 37.929ZM64.6303 26.879C65.4236 27.7743 66.0583 28.7547 66.5343 29.82C67.0216 30.874 67.2653 32.047 67.2653 33.339C67.2653 35.107 66.8006 36.773 65.8713 38.337C64.942 39.901 63.5536 41.2553 61.7063 42.4L61.2133 41.754C62.732 40.564 63.8426 39.255 64.5453 37.827C65.2593 36.3877 65.6163 34.8293 65.6163 33.152C65.6163 32.0527 65.4746 31.0497 65.1913 30.143C64.908 29.225 64.4886 28.2957 63.9333 27.355L64.6303 26.879Z" fill="#39B8FF" fill-opacity="0.7"/>
<path d="M81.0339 37.929C81.1019 37.6683 81.2209 37.4757 81.3909 37.351C81.5722 37.215 81.7706 37.147 81.9859 37.147C82.2126 37.147 82.4052 37.2093 82.5639 37.334C82.7226 37.4473 82.8926 37.674 83.0739 38.014L83.1419 38.133C83.2099 38.0877 83.2666 38.031 83.3119 37.963C83.6746 37.555 84.0146 37.1413 84.3319 36.722C84.6606 36.2913 84.9836 35.8493 85.3009 35.396L84.5189 32.931C84.4169 32.6023 84.3149 32.3813 84.2129 32.268C84.1222 32.1433 83.9862 32.081 83.8049 32.081C83.6802 32.081 83.5159 32.1377 83.3119 32.251C83.1079 32.3643 82.8926 32.6023 82.6659 32.965L82.2749 32.591C82.6489 31.9223 83.0342 31.4293 83.4309 31.112C83.8276 30.7833 84.2242 30.619 84.6209 30.619C85.0176 30.619 85.3179 30.738 85.5219 30.976C85.7372 31.214 85.9242 31.5993 86.0829 32.132L86.6099 33.815C86.9386 33.2823 87.2446 32.8177 87.5279 32.421C87.8226 32.013 88.0662 31.6843 88.2589 31.435C88.5196 31.129 88.7632 30.9193 88.9899 30.806C89.2279 30.6813 89.4886 30.619 89.7719 30.619C90.0326 30.619 90.2819 30.704 90.5199 30.874C90.7692 31.0327 90.9336 31.2763 91.0129 31.605C91.0016 31.911 90.9109 32.1603 90.7409 32.353C90.5822 32.5343 90.3726 32.625 90.1119 32.625C89.8966 32.625 89.7039 32.5797 89.5339 32.489C89.3639 32.387 89.1939 32.2113 89.0239 31.962L88.9559 31.843C88.9332 31.877 88.8992 31.9167 88.8539 31.962C88.5026 32.3813 88.1569 32.8063 87.8169 33.237C87.4882 33.6677 87.1596 34.104 86.8309 34.546L87.5959 36.96C87.7092 37.334 87.8226 37.5833 87.9359 37.708C88.0606 37.8213 88.2192 37.878 88.4119 37.878C88.6046 37.878 88.8256 37.776 89.0749 37.572C89.3242 37.368 89.5849 37.0903 89.8569 36.739L90.3329 37.079C89.9476 37.7023 89.5169 38.2237 89.0409 38.643C88.5649 39.0623 88.0662 39.272 87.5449 39.272C87.2276 39.272 86.9499 39.1813 86.7119 39C86.4739 38.8073 86.2756 38.456 86.1169 37.946L85.5389 36.11C85.2329 36.5973 84.9439 37.045 84.6719 37.453C84.3999 37.861 84.1222 38.2293 83.8389 38.558C83.6462 38.7847 83.4422 38.9547 83.2269 39.068C83.0229 39.1813 82.7792 39.238 82.4959 39.238C82.1559 39.238 81.8386 39.136 81.5439 38.932C81.2492 38.7167 81.0792 38.3823 81.0339 37.929Z" fill="#39B8FF" fill-opacity="0.7"/>
<path d="M73.6689 36.212C73.6689 36.7673 73.7652 37.1697 73.9579 37.419C74.1506 37.657 74.3942 37.776 74.6889 37.776C74.9609 37.776 75.2556 37.674 75.5729 37.47C75.9016 37.2547 76.2756 36.9203 76.6949 36.467L77.5789 32.132C77.2842 31.9167 76.9556 31.809 76.5929 31.809C76.3096 31.809 76.0206 31.8827 75.7259 32.03C75.4426 32.1773 75.1932 32.37 74.9779 32.608C74.7172 32.8687 74.4849 33.203 74.2809 33.611C74.0882 34.019 73.9352 34.4497 73.8219 34.903C73.7199 35.3563 73.6689 35.7927 73.6689 36.212ZM78.4629 36.654C78.4176 36.858 78.3836 37.0337 78.3609 37.181C78.3382 37.317 78.327 37.4303 78.327 37.521C78.327 37.6343 78.3609 37.725 78.4289 37.793C78.4969 37.8497 78.5762 37.878 78.6669 37.878C78.8482 37.878 79.0692 37.776 79.3299 37.572C79.5906 37.368 79.8569 37.0903 80.1289 36.739L80.5879 37.079C80.3726 37.4417 80.1062 37.7873 79.7889 38.116C79.4716 38.4447 79.1259 38.7167 78.7519 38.932C78.3892 39.136 78.0039 39.238 77.5959 39.238C77.2559 39.238 76.9839 39.136 76.7799 38.932C76.5759 38.728 76.4739 38.4503 76.4739 38.099C76.4739 37.9063 76.4909 37.657 76.5249 37.351C76.0489 37.9063 75.5332 38.3597 74.9779 38.711C74.4339 39.0623 73.9239 39.238 73.4479 39.238C73.0172 39.238 72.6319 39.068 72.2919 38.728C71.9632 38.3767 71.799 37.7873 71.799 36.96C71.799 36.382 71.9066 35.7983 72.1219 35.209C72.3372 34.6083 72.6319 34.036 73.0059 33.492C73.3799 32.9367 73.7992 32.4437 74.2639 32.013C74.7399 31.5823 75.2272 31.2423 75.7259 30.993C76.2359 30.7437 76.7346 30.619 77.2219 30.619C77.4712 30.619 77.7149 30.67 77.9529 30.772L78.4459 28.239L76.9499 28.069L77.035 27.491L80.2819 26.59L80.5199 26.76L78.4629 36.654Z" fill="#FAFAFA"/>
</svg>
