<svg width="227" height="64" viewBox="0 0 227 64" fill="none" xmlns="http://www.w3.org/2000/svg">
<path d="M17.0846 32.328C17.0846 33.576 17.2126 34.728 17.4686 35.784C17.7246 36.84 18.1246 37.872 18.6686 38.88C19.2286 39.888 19.9566 40.944 20.8526 42.048L19.7246 43.032C17.9326 41.624 16.5646 40.024 15.6206 38.232C14.6926 36.44 14.2286 34.472 14.2286 32.328C14.2286 30.184 14.6926 28.216 15.6206 26.424C16.5646 24.632 17.9326 23.032 19.7246 21.624L20.8526 22.608C19.9566 23.712 19.2286 24.768 18.6686 25.776C18.1246 26.784 17.7246 27.816 17.4686 28.872C17.2126 29.928 17.0846 31.08 17.0846 32.328Z" fill="black"/>
<path d="M81.9166 32.328C81.9166 31.08 81.7886 29.928 81.5326 28.872C81.2766 27.816 80.8686 26.784 80.3086 25.776C79.7646 24.768 79.0446 23.712 78.1486 22.608L79.2766 21.624C81.0686 23.032 82.4286 24.632 83.3566 26.424C84.3006 28.216 84.7726 30.184 84.7726 32.328C84.7726 34.472 84.3006 36.44 83.3566 38.232C82.4286 40.024 81.0686 41.624 79.2766 43.032L78.1486 42.048C79.0446 40.944 79.7646 39.888 80.3086 38.88C80.8686 37.872 81.2766 36.84 81.5326 35.784C81.7886 34.728 81.9166 33.576 81.9166 32.328Z" fill="black"/>
<rect x="24" y="25" width="51" height="15" fill="#FF0000" fill-opacity="0.2"/>
<path d="M28.1821 35.136C28.1821 35.872 28.3021 36.416 28.5421 36.768C28.7981 37.104 29.1341 37.272 29.5501 37.272C29.9181 37.272 30.3261 37.136 30.7741 36.864C31.2221 36.576 31.7421 36.12 32.3341 35.496L33.6781 29.232C33.4701 29.12 33.2461 29.032 33.0061 28.968C32.7821 28.888 32.5501 28.848 32.3101 28.848C31.6381 28.848 30.9181 29.216 30.1501 29.952C29.7821 30.32 29.4461 30.792 29.1421 31.368C28.8381 31.928 28.5981 32.536 28.4221 33.192C28.2621 33.848 28.1821 34.496 28.1821 35.136ZM33.6781 39.336C33.2141 39.336 32.8301 39.192 32.5261 38.904C32.2221 38.6 32.0701 38.152 32.0701 37.56C32.0701 37.416 32.0701 37.28 32.0701 37.152C32.0861 37.008 32.1021 36.872 32.1181 36.744C31.4461 37.512 30.7421 38.136 30.0061 38.616C29.2701 39.096 28.5741 39.336 27.9181 39.336C27.3101 39.336 26.7581 39.104 26.2621 38.64C25.7661 38.16 25.5181 37.368 25.5181 36.264C25.5181 35.416 25.6781 34.56 25.9981 33.696C26.3181 32.832 26.7501 32.016 27.2941 31.248C27.8381 30.464 28.4461 29.768 29.1181 29.16C29.7901 28.536 30.4861 28.048 31.2061 27.696C31.9261 27.344 32.6141 27.168 33.2701 27.168C33.5901 27.168 33.8781 27.232 34.1341 27.36C34.3901 27.472 34.6381 27.64 34.8781 27.864L36.3421 27.024L36.7501 27.288L34.8301 35.712C34.7021 36.256 34.6381 36.656 34.6381 36.912C34.6381 37.248 34.8061 37.416 35.1421 37.416C35.4141 37.416 35.7181 37.272 36.0541 36.984C36.4061 36.68 36.7821 36.28 37.1821 35.784L37.8301 36.264C37.5261 36.744 37.1581 37.224 36.7261 37.704C36.2941 38.168 35.8221 38.56 35.3101 38.88C34.7981 39.184 34.2541 39.336 33.6781 39.336ZM48.9062 36.864V31.968H44.3463V30.36H48.9062V25.608H50.6103V30.36H55.1463V31.968H50.6103V36.864H48.9062ZM65.6275 36.456C65.6275 36.84 65.7235 37.144 65.9155 37.368C66.1235 37.592 66.4195 37.704 66.8035 37.704C67.6675 37.704 68.4995 37.248 69.2995 36.336C69.8115 35.76 70.2355 35.008 70.5715 34.08C70.9075 33.136 71.0755 32.216 71.0755 31.32C71.0755 30.616 70.9475 30.088 70.6915 29.736C70.4515 29.368 70.1235 29.184 69.7075 29.184C69.2595 29.184 68.7795 29.36 68.2675 29.712C67.7555 30.048 67.2035 30.52 66.6115 31.128L66.1075 33.36C65.9475 34.16 65.8275 34.784 65.7475 35.232C65.6675 35.664 65.6275 36.072 65.6275 36.456ZM65.4595 39.336C64.7715 39.336 64.1955 39.144 63.7315 38.76C63.2835 38.36 63.0595 37.768 63.0595 36.984C63.0595 36.424 63.1155 35.816 63.2275 35.16C63.3555 34.488 63.4995 33.784 63.6595 33.048L65.5075 23.808L63.4915 23.568L63.6355 22.752L68.2195 21.48L68.5315 21.72L66.8035 30C67.5075 29.12 68.2675 28.432 69.0835 27.936C69.8995 27.424 70.6515 27.168 71.3395 27.168C72.0115 27.168 72.5715 27.408 73.0195 27.888C73.4675 28.368 73.6915 29.176 73.6915 30.312C73.6915 31.176 73.5315 32.04 73.2115 32.904C72.9075 33.768 72.4835 34.592 71.9395 35.376C71.4115 36.144 70.7955 36.824 70.0915 37.416C69.3875 38.008 68.6355 38.48 67.8355 38.832C67.0515 39.168 66.2595 39.336 65.4595 39.336Z" fill="#FF0000" fill-opacity="0.2"/>
</svg>
