<svg width="227" height="64" viewBox="0 0 227 64" fill="none" xmlns="http://www.w3.org/2000/svg">
<path d="M26.0191 38.416C24.5898 38.416 23.3738 37.936 22.3711 36.976C21.3898 35.9947 20.8991 34.5867 20.8991 32.752C20.8991 30.896 21.2938 29.232 22.0831 27.76C22.8725 26.288 23.9711 25.1147 25.3791 24.24C26.8085 23.344 28.4831 22.8747 30.4031 22.832L37.1871 22.64L36.8351 25.072L30.8511 24.624C31.7685 25.0933 32.5045 25.7653 33.0591 26.64C33.6351 27.5147 33.9231 28.5173 33.9231 29.648C33.9231 30.8213 33.7098 31.9307 33.2831 32.976C32.8778 34.0213 32.3125 34.96 31.5871 35.792C30.8618 36.6027 30.0191 37.2427 29.0591 37.712C28.0991 38.1813 27.0858 38.416 26.0191 38.416ZM23.4911 32.4C23.4911 34.0853 23.7578 35.3013 24.2911 36.048C24.8458 36.7733 25.5391 37.136 26.3711 37.136C27.3951 37.136 28.2911 36.784 29.0591 36.08C29.8271 35.3547 30.4245 34.4267 30.8511 33.296C31.2778 32.144 31.4911 30.928 31.4911 29.648C31.4911 28.24 31.2778 27.1307 30.8511 26.32C30.4458 25.5093 29.7311 24.9013 28.7071 24.496C27.6191 24.6667 26.6805 25.1253 25.8911 25.872C25.1231 26.6187 24.5258 27.5573 24.0991 28.688C23.6938 29.7973 23.4911 31.0347 23.4911 32.4Z" fill="black"/>
</svg>
