<svg width="227" height="64" viewBox="0 0 227 64" fill="none" xmlns="http://www.w3.org/2000/svg">
<rect x="46" y="40" width="10" height="11" fill="#FF0000" fill-opacity="0.2"/>
<path d="M49.2539 48.198C49.2539 48.47 49.3219 48.6853 49.4579 48.844C49.6052 49.0027 49.8149 49.082 50.0869 49.082C50.6989 49.082 51.2882 48.759 51.8549 48.113C52.2176 47.705 52.5179 47.1723 52.7559 46.515C52.9939 45.8463 53.1129 45.1947 53.1129 44.56C53.1129 44.0613 53.0222 43.6873 52.8409 43.438C52.6709 43.1773 52.4386 43.047 52.1439 43.047C51.8266 43.047 51.4866 43.1717 51.1239 43.421C50.7612 43.659 50.3702 43.9933 49.9509 44.424L49.5939 46.005C49.4806 46.5717 49.3956 47.0137 49.3389 47.331C49.2822 47.637 49.2539 47.926 49.2539 48.198ZM49.1349 50.238C48.6476 50.238 48.2396 50.102 47.9109 49.83C47.5936 49.5467 47.4349 49.1273 47.4349 48.572C47.4349 48.1753 47.4746 47.7447 47.5539 47.28C47.6446 46.804 47.7466 46.3053 47.8599 45.784L49.1689 39.239L47.7409 39.069L47.8429 38.491L51.0899 37.59L51.3109 37.76L50.0869 43.625C50.5856 43.0017 51.1239 42.5143 51.7019 42.163C52.2799 41.8003 52.8126 41.619 53.2999 41.619C53.7759 41.619 54.1726 41.789 54.4899 42.129C54.8072 42.469 54.9659 43.0413 54.9659 43.846C54.9659 44.458 54.8526 45.07 54.6259 45.682C54.4106 46.294 54.1102 46.8777 53.7249 47.433C53.3509 47.977 52.9146 48.4587 52.4159 48.878C51.9172 49.2973 51.3846 49.6317 50.8179 49.881C50.2626 50.119 49.7016 50.238 49.1349 50.238Z" fill="#FF0000" fill-opacity="0.2"/>
<path d="M12.6 40V39.136L14.52 38.8C14.536 38.144 14.544 37.504 14.544 36.88C14.56 36.24 14.568 35.6 14.568 34.96V24.424L12.6 24.184V23.344L16.344 22.264L16.68 22.456L16.584 25.864V34.96C16.584 35.6 16.584 36.24 16.584 36.88C16.6 37.52 16.616 38.16 16.632 38.8L18.552 39.136V40H12.6ZM25.7244 40.312C24.7964 40.312 23.9084 40.096 23.0604 39.664C22.2284 39.216 21.5484 38.552 21.0204 37.672C20.4924 36.776 20.2284 35.672 20.2284 34.36C20.2284 33.032 20.4924 31.92 21.0204 31.024C21.5484 30.112 22.2284 29.432 23.0604 28.984C23.9084 28.52 24.7964 28.288 25.7244 28.288C26.6524 28.288 27.5324 28.52 28.3644 28.984C29.2124 29.432 29.9004 30.112 30.4284 31.024C30.9724 31.92 31.2444 33.032 31.2444 34.36C31.2444 35.672 30.9724 36.776 30.4284 37.672C29.9004 38.552 29.2124 39.216 28.3644 39.664C27.5324 40.096 26.6524 40.312 25.7244 40.312ZM25.7244 39.232C26.7644 39.232 27.5644 38.824 28.1244 38.008C28.6844 37.176 28.9644 35.96 28.9644 34.36C28.9644 32.744 28.6844 31.512 28.1244 30.664C27.5644 29.816 26.7644 29.392 25.7244 29.392C24.6844 29.392 23.8844 29.816 23.3244 30.664C22.7804 31.512 22.5084 32.744 22.5084 34.36C22.5084 35.96 22.7804 37.176 23.3244 38.008C23.8844 38.824 24.6844 39.232 25.7244 39.232ZM38.0083 35.2C38.7763 35.2 39.3763 34.912 39.8083 34.336C40.2403 33.76 40.4563 33.032 40.4563 32.152C40.4563 31.304 40.2483 30.616 39.8323 30.088C39.4323 29.544 38.8563 29.272 38.1043 29.272C37.3523 29.272 36.7603 29.552 36.3283 30.112C35.8963 30.656 35.6803 31.368 35.6803 32.248C35.6803 33.128 35.8803 33.84 36.2803 34.384C36.6963 34.928 37.2723 35.2 38.0083 35.2ZM38.0563 36.16C37.4323 36.16 36.8403 36.072 36.2803 35.896C35.8803 36.408 35.6803 36.92 35.6803 37.432C35.6803 37.752 35.7683 38.008 35.9443 38.2C36.1363 38.392 36.5123 38.488 37.0723 38.488H40.2163C41.5443 38.488 42.5203 38.76 43.1443 39.304C43.7683 39.848 44.0803 40.608 44.0803 41.584C44.0803 42.272 43.8563 42.936 43.4083 43.576C42.9763 44.216 42.3203 44.736 41.4403 45.136C40.5603 45.536 39.4643 45.736 38.1523 45.736C36.4083 45.736 35.1443 45.464 34.3603 44.92C33.5763 44.376 33.1843 43.68 33.1843 42.832C33.1843 42.32 33.3523 41.84 33.6883 41.392C34.0403 40.96 34.6563 40.528 35.5363 40.096C34.4803 39.808 33.9523 39.2 33.9523 38.272C33.9523 37.888 34.0723 37.488 34.3123 37.072C34.5683 36.656 34.9923 36.168 35.5843 35.608C35.0083 35.288 34.5523 34.848 34.2163 34.288C33.8963 33.728 33.7363 33.04 33.7363 32.224C33.7363 30.96 34.1443 29.992 34.9603 29.32C35.7923 28.632 36.8323 28.288 38.0803 28.288C39.3443 28.288 40.3603 28.6 41.1283 29.224L43.8403 28.288L44.2003 28.528V30.04H41.8483C42.2163 30.632 42.4003 31.36 42.4003 32.224C42.4003 33.488 41.9843 34.464 41.1523 35.152C40.3363 35.824 39.3043 36.16 38.0563 36.16ZM35.1523 42.448C35.1523 43.232 35.4323 43.792 35.9923 44.128C36.5523 44.464 37.3043 44.632 38.2483 44.632C39.5603 44.632 40.5603 44.392 41.2483 43.912C41.9363 43.448 42.2803 42.88 42.2803 42.208C42.2803 41.68 42.0963 41.232 41.7283 40.864C41.3603 40.512 40.7443 40.336 39.8803 40.336H37.0723C36.9123 40.336 36.7443 40.328 36.5683 40.312C36.4083 40.312 36.2483 40.304 36.0883 40.288C35.7523 40.64 35.5123 40.984 35.3683 41.32C35.2243 41.672 35.1523 42.048 35.1523 42.448Z" fill="black"/>
<rect x="58" y="26" width="13" height="15" fill="#FF0000" fill-opacity="0.2"/>
<path d="M61.2172 36.136C61.2172 36.872 61.3372 37.416 61.5772 37.768C61.8332 38.104 62.1692 38.272 62.5852 38.272C62.9532 38.272 63.3612 38.136 63.8092 37.864C64.2572 37.576 64.7772 37.12 65.3692 36.496L66.7132 30.232C66.5052 30.12 66.2812 30.032 66.0412 29.968C65.8172 29.888 65.5852 29.848 65.3452 29.848C64.6732 29.848 63.9532 30.216 63.1852 30.952C62.8172 31.32 62.4812 31.792 62.1772 32.368C61.8732 32.928 61.6332 33.536 61.4572 34.192C61.2972 34.848 61.2172 35.496 61.2172 36.136ZM66.7132 40.336C66.2492 40.336 65.8652 40.192 65.5612 39.904C65.2572 39.6 65.1052 39.152 65.1052 38.56C65.1052 38.416 65.1052 38.28 65.1052 38.152C65.1212 38.008 65.1372 37.872 65.1532 37.744C64.4812 38.512 63.7772 39.136 63.0412 39.616C62.3052 40.096 61.6092 40.336 60.9532 40.336C60.3452 40.336 59.7932 40.104 59.2972 39.64C58.8012 39.16 58.5532 38.368 58.5532 37.264C58.5532 36.416 58.7132 35.56 59.0332 34.696C59.3532 33.832 59.7852 33.016 60.3292 32.248C60.8732 31.464 61.4812 30.768 62.1532 30.16C62.8252 29.536 63.5212 29.048 64.2412 28.696C64.9612 28.344 65.6492 28.168 66.3052 28.168C66.6252 28.168 66.9132 28.232 67.1692 28.36C67.4252 28.472 67.6732 28.64 67.9132 28.864L69.3772 28.024L69.7852 28.288L67.8652 36.712C67.7372 37.256 67.6732 37.656 67.6732 37.912C67.6732 38.248 67.8412 38.416 68.1772 38.416C68.4492 38.416 68.7532 38.272 69.0892 37.984C69.4412 37.68 69.8172 37.28 70.2172 36.784L70.8652 37.264C70.5612 37.744 70.1932 38.224 69.7612 38.704C69.3292 39.168 68.8572 39.56 68.3452 39.88C67.8332 40.184 67.2892 40.336 66.7132 40.336Z" fill="#FF0000" fill-opacity="0.2"/>
</svg>
