<svg width="227" height="64" viewBox="0 0 227 64" fill="none" xmlns="http://www.w3.org/2000/svg">
<path d="M30.5287 32.904C30.9927 33.352 31.3687 33.648 31.6567 33.792C31.9607 33.936 32.2407 34.008 32.4967 34.008C32.8167 34.008 33.0887 33.848 33.3127 33.528C33.5367 33.208 33.6807 32.608 33.7447 31.728L35.5927 31.92C35.5767 32.96 35.4247 33.8 35.1367 34.44C34.8487 35.064 34.4647 35.512 33.9847 35.784C33.5047 36.056 32.9687 36.192 32.3767 36.192C31.8647 36.192 31.3687 36.088 30.8887 35.88C30.4247 35.672 29.9367 35.32 29.4247 34.824C28.9767 34.36 28.6167 34.064 28.3447 33.936C28.0727 33.792 27.8007 33.72 27.5287 33.72C27.2087 33.72 26.9367 33.88 26.7127 34.2C26.4887 34.52 26.3367 35.12 26.2567 36L24.4327 35.808C24.4647 34.256 24.7767 33.16 25.3687 32.52C25.9607 31.864 26.7127 31.536 27.6247 31.536C28.0887 31.536 28.5607 31.64 29.0407 31.848C29.5367 32.056 30.0327 32.408 30.5287 32.904ZM30.5287 27.144C30.9927 27.592 31.3687 27.888 31.6567 28.032C31.9607 28.176 32.2407 28.248 32.4967 28.248C32.8167 28.248 33.0887 28.088 33.3127 27.768C33.5367 27.448 33.6807 26.848 33.7447 25.968L35.5927 26.16C35.5767 27.2 35.4247 28.04 35.1367 28.68C34.8487 29.304 34.4647 29.752 33.9847 30.024C33.5047 30.296 32.9687 30.432 32.3767 30.432C31.8647 30.432 31.3687 30.328 30.8887 30.12C30.4247 29.912 29.9367 29.56 29.4247 29.064C28.9767 28.6 28.6167 28.304 28.3447 28.176C28.0727 28.032 27.8007 27.96 27.5287 27.96C27.2087 27.96 26.9367 28.12 26.7127 28.44C26.4887 28.76 26.3367 29.36 26.2567 30.24L24.4327 30.048C24.4647 28.496 24.7767 27.4 25.3687 26.76C25.9607 26.104 26.7127 25.776 27.6247 25.776C28.0887 25.776 28.5607 25.88 29.0407 26.088C29.5367 26.296 30.0327 26.648 30.5287 27.144Z" fill="black"/>
</svg>
