<svg width="227" height="64" viewBox="0 0 227 64" fill="none" xmlns="http://www.w3.org/2000/svg">
<path d="M26.374 28.688L25.03 35.088C25.926 36.24 27.0673 36.816 28.454 36.816C29.478 36.816 30.374 36.464 31.142 35.76C31.91 35.056 32.5073 34.0853 32.934 32.848C33.3606 31.6107 33.574 30.192 33.574 28.592C33.574 26.9067 33.2966 25.6693 32.742 24.88C32.2086 24.0907 31.4726 23.696 30.534 23.696C29.574 23.696 28.7313 24.1227 28.006 24.976C27.2806 25.8293 26.7366 27.0667 26.374 28.688ZM21.094 44.016L20.678 43.76L23.686 29.712C24.1766 27.472 25.062 25.7013 26.342 24.4C27.622 23.0773 29.1686 22.416 30.982 22.416C32.454 22.416 33.6806 22.928 34.662 23.952C35.6646 24.9547 36.166 26.4693 36.166 28.496C36.166 29.84 35.9526 31.12 35.526 32.336C35.1206 33.5307 34.5553 34.5867 33.83 35.504C33.126 36.4 32.326 37.1147 31.43 37.648C30.534 38.16 29.5953 38.416 28.614 38.416C27.7606 38.416 26.9926 38.224 26.31 37.84C25.6486 37.4347 25.1046 36.8693 24.678 36.144L23.654 43.536L21.094 44.016Z" fill="#FAFAFA"/>
</svg>
