<svg width="227" height="64" viewBox="0 0 227 64" fill="none" xmlns="http://www.w3.org/2000/svg">
<path d="M16.7999 40.3121C16.1279 40.3121 15.5119 40.2321 14.9519 40.0721C14.3919 39.9281 13.8159 39.7041 13.2239 39.4001L13.1279 36.7601H14.4479L14.9039 38.8481C15.4639 39.1041 16.1119 39.2321 16.8479 39.2321C17.7599 39.2321 18.4319 39.0641 18.8639 38.7281C19.3119 38.3921 19.5359 37.9521 19.5359 37.4081C19.5359 36.8961 19.3519 36.4881 18.9839 36.1841C18.6159 35.8641 18.0559 35.5761 17.3039 35.3201L16.1999 34.9121C15.3199 34.5921 14.6159 34.1761 14.0879 33.6641C13.5599 33.1521 13.2959 32.4881 13.2959 31.6721C13.2959 31.0801 13.4559 30.5281 13.7759 30.0161C14.0959 29.5041 14.5679 29.0881 15.1919 28.7681C15.8159 28.4481 16.5759 28.2881 17.4719 28.2881C18.1279 28.2881 18.7199 28.3761 19.2479 28.5521C19.7919 28.7121 20.3199 28.9521 20.8319 29.2721L20.7359 31.7201H19.4879L19.1039 29.8001C18.5599 29.5281 18.0079 29.3921 17.4479 29.3921C16.7119 29.3921 16.1519 29.5441 15.7679 29.8481C15.3999 30.1361 15.2159 30.5281 15.2159 31.0241C15.2159 31.5521 15.3759 31.9521 15.6959 32.2241C16.0319 32.4961 16.6079 32.7841 17.4239 33.0881L18.1679 33.3521C19.3679 33.8001 20.2159 34.3121 20.7119 34.8881C21.2239 35.4641 21.4799 36.1281 21.4799 36.8801C21.4799 37.4881 21.3039 38.0561 20.9519 38.5841C20.5999 39.0961 20.0799 39.5121 19.3919 39.8321C18.7039 40.1521 17.8399 40.3121 16.7999 40.3121ZM28.8622 29.3921C28.4142 29.3921 27.9582 29.5201 27.4942 29.7761C27.0462 30.0321 26.6542 30.4401 26.3182 31.0001C25.9982 31.5601 25.7902 32.3041 25.6942 33.2321H30.0622C30.6382 33.2321 31.0142 33.1121 31.1902 32.8721C31.3822 32.6321 31.4782 32.3361 31.4782 31.9841C31.4782 31.5201 31.3582 31.0961 31.1182 30.7121C30.8942 30.3121 30.5822 29.9921 30.1822 29.7521C29.7982 29.5121 29.3582 29.3921 28.8622 29.3921ZM28.8382 40.3121C27.2222 40.3121 25.9262 39.7921 24.9502 38.7521C23.9742 37.6961 23.4862 36.2481 23.4862 34.4081C23.4862 33.1761 23.7342 32.1041 24.2302 31.1921C24.7422 30.2801 25.4142 29.5681 26.2462 29.0561C27.0942 28.5441 28.0142 28.2881 29.0062 28.2881C29.8382 28.2881 30.5902 28.4721 31.2622 28.8401C31.9342 29.2081 32.4702 29.7361 32.8702 30.4241C33.2702 31.0961 33.4702 31.9201 33.4702 32.8961C33.4702 33.1681 33.4542 33.4241 33.4222 33.6641C33.3902 33.8881 33.3502 34.0801 33.3022 34.2401H25.6462C25.6782 35.7121 26.0462 36.8321 26.7502 37.6001C27.4542 38.3681 28.3822 38.7521 29.5342 38.7521C30.3022 38.7521 30.9422 38.6001 31.4542 38.2961C31.9662 37.9761 32.4382 37.5681 32.8702 37.0721L33.4462 37.5281C32.9982 38.3761 32.3902 39.0561 31.6222 39.5681C30.8542 40.0641 29.9262 40.3121 28.8382 40.3121ZM41.0485 40.3121C39.4005 40.3121 38.0885 39.7761 37.1125 38.7041C36.1365 37.6321 35.6485 36.1761 35.6485 34.3361C35.6485 33.0721 35.9045 31.9921 36.4165 31.0961C36.9445 30.1841 37.6325 29.4881 38.4805 29.0081C39.3285 28.5281 40.2325 28.2881 41.1925 28.2881C41.9125 28.2881 42.5765 28.4241 43.1845 28.6961C43.7925 28.9681 44.2965 29.3441 44.6965 29.8241C45.0965 30.2881 45.3445 30.8161 45.4405 31.4081C45.3285 32.0161 44.9605 32.3201 44.3365 32.3201C43.9365 32.3201 43.6325 32.2161 43.4245 32.0081C43.2325 31.7841 43.0965 31.5041 43.0165 31.1681L42.5845 29.5841C42.3605 29.5041 42.1365 29.4561 41.9125 29.4401C41.7045 29.4081 41.4965 29.3921 41.2885 29.3921C40.2645 29.3921 39.4165 29.7921 38.7445 30.5921C38.0885 31.3921 37.7605 32.5601 37.7605 34.0961C37.7605 35.6001 38.1205 36.7521 38.8405 37.5521C39.5605 38.3521 40.4805 38.7521 41.6005 38.7521C42.2885 38.7521 42.9205 38.6001 43.4965 38.2961C44.0725 37.9761 44.5445 37.5201 44.9125 36.9281L45.5125 37.2401C45.1765 38.2321 44.6325 38.9921 43.8805 39.5201C43.1285 40.0481 42.1845 40.3121 41.0485 40.3121Z" fill="#FAFAFA"/>
<path d="M62 26H49V41H62V26Z" fill="#39B8FF" fill-opacity="0.3"/>
<path d="M52.2172 36.1359C52.2172 36.8719 52.3372 37.4159 52.5772 37.7679C52.8332 38.1039 53.1692 38.2719 53.5852 38.2719C53.9532 38.2719 54.3612 38.1359 54.8092 37.8639C55.2572 37.5759 55.7772 37.1199 56.3692 36.4959L57.7132 30.2319C57.5052 30.1199 57.2812 30.0319 57.0412 29.9679C56.8172 29.8879 56.5852 29.8479 56.3452 29.8479C55.6732 29.8479 54.9532 30.2159 54.1852 30.9519C53.8172 31.3199 53.4812 31.7919 53.1772 32.3679C52.8732 32.9279 52.6332 33.5359 52.4572 34.1919C52.2972 34.8479 52.2172 35.4959 52.2172 36.1359ZM57.7132 40.3359C57.2492 40.3359 56.8652 40.1919 56.5612 39.9039C56.2572 39.5999 56.1052 39.1519 56.1052 38.5599C56.1052 38.4159 56.1052 38.2799 56.1052 38.1519C56.1212 38.0079 56.1372 37.8719 56.1532 37.7439C55.4812 38.5119 54.7772 39.1359 54.0412 39.6159C53.3052 40.0959 52.6092 40.3359 51.9532 40.3359C51.3452 40.3359 50.7932 40.1039 50.2972 39.6399C49.8012 39.1599 49.5532 38.3679 49.5532 37.2639C49.5532 36.4159 49.7132 35.5599 50.0332 34.6959C50.3532 33.8319 50.7852 33.0159 51.3292 32.2479C51.8732 31.4639 52.4812 30.7679 53.1532 30.1599C53.8252 29.5359 54.5212 29.0479 55.2412 28.6959C55.9612 28.3439 56.6492 28.1679 57.3052 28.1679C57.6252 28.1679 57.9132 28.2319 58.1692 28.3599C58.4252 28.4719 58.6732 28.6399 58.9132 28.8639L60.3772 28.0239L60.7852 28.2879L58.8652 36.7119C58.7372 37.2559 58.6732 37.6559 58.6732 37.9119C58.6732 38.2479 58.8412 38.4159 59.1772 38.4159C59.4492 38.4159 59.7532 38.2719 60.0892 37.9839C60.4412 37.6799 60.8172 37.2799 61.2172 36.7839L61.8652 37.2639C61.5612 37.7439 61.1932 38.2239 60.7612 38.7039C60.3292 39.1679 59.8572 39.5599 59.3452 39.8799C58.8332 40.1839 58.2892 40.3359 57.7132 40.3359Z" fill="#39B8FF" fill-opacity="0.7"/>
</svg>
