<svg width="227" height="64" viewBox="0 0 227 64" fill="none" xmlns="http://www.w3.org/2000/svg">
<path d="M16.8 40.312C16.128 40.312 15.512 40.232 14.952 40.072C14.392 39.928 13.816 39.704 13.224 39.4L13.128 36.76H14.448L14.904 38.848C15.464 39.104 16.112 39.232 16.848 39.232C17.76 39.232 18.432 39.064 18.864 38.728C19.312 38.392 19.536 37.952 19.536 37.408C19.536 36.896 19.352 36.488 18.984 36.184C18.616 35.864 18.056 35.576 17.304 35.32L16.2 34.912C15.32 34.592 14.616 34.176 14.088 33.664C13.56 33.152 13.296 32.488 13.296 31.672C13.296 31.08 13.456 30.528 13.776 30.016C14.096 29.504 14.568 29.088 15.192 28.768C15.816 28.448 16.576 28.288 17.472 28.288C18.128 28.288 18.72 28.376 19.248 28.552C19.792 28.712 20.32 28.952 20.832 29.272L20.736 31.72H19.488L19.104 29.8C18.56 29.528 18.008 29.392 17.448 29.392C16.712 29.392 16.152 29.544 15.768 29.848C15.4 30.136 15.216 30.528 15.216 31.024C15.216 31.552 15.376 31.952 15.696 32.224C16.032 32.496 16.608 32.784 17.424 33.088L18.168 33.352C19.368 33.8 20.216 34.312 20.712 34.888C21.224 35.464 21.48 36.128 21.48 36.88C21.48 37.488 21.304 38.056 20.952 38.584C20.6 39.096 20.08 39.512 19.392 39.832C18.704 40.152 17.84 40.312 16.8 40.312ZM28.8623 29.392C28.4143 29.392 27.9583 29.52 27.4943 29.776C27.0463 30.032 26.6543 30.44 26.3183 31C25.9983 31.56 25.7903 32.304 25.6943 33.232H30.0623C30.6383 33.232 31.0143 33.112 31.1903 32.872C31.3823 32.632 31.4783 32.336 31.4783 31.984C31.4783 31.52 31.3583 31.096 31.1183 30.712C30.8943 30.312 30.5823 29.992 30.1823 29.752C29.7983 29.512 29.3583 29.392 28.8623 29.392ZM28.8383 40.312C27.2223 40.312 25.9263 39.792 24.9503 38.752C23.9743 37.696 23.4863 36.248 23.4863 34.408C23.4863 33.176 23.7343 32.104 24.2303 31.192C24.7423 30.28 25.4143 29.568 26.2463 29.056C27.0943 28.544 28.0143 28.288 29.0063 28.288C29.8383 28.288 30.5903 28.472 31.2623 28.84C31.9343 29.208 32.4703 29.736 32.8703 30.424C33.2703 31.096 33.4703 31.92 33.4703 32.896C33.4703 33.168 33.4543 33.424 33.4223 33.664C33.3903 33.888 33.3503 34.08 33.3023 34.24H25.6463C25.6783 35.712 26.0463 36.832 26.7503 37.6C27.4543 38.368 28.3823 38.752 29.5343 38.752C30.3023 38.752 30.9423 38.6 31.4543 38.296C31.9663 37.976 32.4383 37.568 32.8703 37.072L33.4463 37.528C32.9983 38.376 32.3903 39.056 31.6223 39.568C30.8543 40.064 29.9263 40.312 28.8383 40.312ZM41.0486 40.312C39.4006 40.312 38.0886 39.776 37.1126 38.704C36.1366 37.632 35.6486 36.176 35.6486 34.336C35.6486 33.072 35.9046 31.992 36.4166 31.096C36.9446 30.184 37.6326 29.488 38.4806 29.008C39.3286 28.528 40.2326 28.288 41.1926 28.288C41.9126 28.288 42.5766 28.424 43.1846 28.696C43.7926 28.968 44.2966 29.344 44.6966 29.824C45.0966 30.288 45.3446 30.816 45.4406 31.408C45.3286 32.016 44.9606 32.32 44.3366 32.32C43.9366 32.32 43.6326 32.216 43.4246 32.008C43.2326 31.784 43.0966 31.504 43.0166 31.168L42.5846 29.584C42.3606 29.504 42.1366 29.456 41.9126 29.44C41.7046 29.408 41.4966 29.392 41.2886 29.392C40.2646 29.392 39.4166 29.792 38.7446 30.592C38.0886 31.392 37.7606 32.56 37.7606 34.096C37.7606 35.6 38.1206 36.752 38.8406 37.552C39.5606 38.352 40.4806 38.752 41.6006 38.752C42.2886 38.752 42.9206 38.6 43.4966 38.296C44.0726 37.976 44.5446 37.52 44.9126 36.928L45.5126 37.24C45.1766 38.232 44.6326 38.992 43.8806 39.52C43.1286 40.048 42.1846 40.312 41.0486 40.312Z" fill="black"/>
<rect x="49" y="26" width="13" height="15" fill="#FF0000" fill-opacity="0.2"/>
<path d="M52.2172 36.136C52.2172 36.872 52.3372 37.416 52.5772 37.768C52.8332 38.104 53.1692 38.272 53.5852 38.272C53.9532 38.272 54.3612 38.136 54.8092 37.864C55.2572 37.576 55.7772 37.12 56.3692 36.496L57.7132 30.232C57.5052 30.12 57.2812 30.032 57.0412 29.968C56.8172 29.888 56.5852 29.848 56.3452 29.848C55.6732 29.848 54.9532 30.216 54.1852 30.952C53.8172 31.32 53.4812 31.792 53.1772 32.368C52.8732 32.928 52.6332 33.536 52.4572 34.192C52.2972 34.848 52.2172 35.496 52.2172 36.136ZM57.7132 40.336C57.2492 40.336 56.8652 40.192 56.5612 39.904C56.2572 39.6 56.1052 39.152 56.1052 38.56C56.1052 38.416 56.1052 38.28 56.1052 38.152C56.1212 38.008 56.1372 37.872 56.1532 37.744C55.4812 38.512 54.7772 39.136 54.0412 39.616C53.3052 40.096 52.6092 40.336 51.9532 40.336C51.3452 40.336 50.7932 40.104 50.2972 39.64C49.8012 39.16 49.5532 38.368 49.5532 37.264C49.5532 36.416 49.7132 35.56 50.0332 34.696C50.3532 33.832 50.7852 33.016 51.3292 32.248C51.8732 31.464 52.4812 30.768 53.1532 30.16C53.8252 29.536 54.5212 29.048 55.2412 28.696C55.9612 28.344 56.6492 28.168 57.3052 28.168C57.6252 28.168 57.9132 28.232 58.1692 28.36C58.4252 28.472 58.6732 28.64 58.9132 28.864L60.3772 28.024L60.7852 28.288L58.8652 36.712C58.7372 37.256 58.6732 37.656 58.6732 37.912C58.6732 38.248 58.8412 38.416 59.1772 38.416C59.4492 38.416 59.7532 38.272 60.0892 37.984C60.4412 37.68 60.8172 37.28 61.2172 36.784L61.8652 37.264C61.5612 37.744 61.1932 38.224 60.7612 38.704C60.3292 39.168 59.8572 39.56 59.3452 39.88C58.8332 40.184 58.2892 40.336 57.7132 40.336Z" fill="#FF0000" fill-opacity="0.2"/>
</svg>
