<svg width="227" height="64" viewBox="0 0 227 64" fill="none" xmlns="http://www.w3.org/2000/svg">
<path d="M36 11H22V26H36V11Z" fill="#39B8FF" fill-opacity="0.3"/>
<path d="M36 38H22V53H36V38Z" fill="#39B8FF" fill-opacity="0.3"/>
<path d="M22 32H36" stroke="#FAFAFA" stroke-width="2"/>
<path d="M26.2172 21.136C26.2172 21.872 26.3372 22.416 26.5772 22.768C26.8332 23.104 27.1692 23.272 27.5852 23.272C27.9532 23.272 28.3612 23.136 28.8092 22.864C29.2572 22.576 29.7772 22.12 30.3692 21.496L31.7132 15.232C31.5052 15.12 31.2812 15.032 31.0412 14.968C30.8172 14.888 30.5852 14.848 30.3452 14.848C29.6732 14.848 28.9532 15.216 28.1852 15.952C27.8172 16.32 27.4812 16.792 27.1772 17.368C26.8732 17.928 26.6332 18.536 26.4572 19.192C26.2972 19.848 26.2172 20.496 26.2172 21.136ZM31.7132 25.336C31.2492 25.336 30.8652 25.192 30.5612 24.904C30.2572 24.6 30.1052 24.152 30.1052 23.56C30.1052 23.416 30.1052 23.28 30.1052 23.152C30.1212 23.008 30.1372 22.872 30.1532 22.744C29.4812 23.512 28.7772 24.136 28.0412 24.616C27.3052 25.096 26.6092 25.336 25.9532 25.336C25.3452 25.336 24.7932 25.104 24.2972 24.64C23.8012 24.16 23.5532 23.368 23.5532 22.264C23.5532 21.416 23.7132 20.56 24.0332 19.696C24.3532 18.832 24.7852 18.016 25.3292 17.248C25.8732 16.464 26.4812 15.768 27.1532 15.16C27.8252 14.536 28.5212 14.048 29.2412 13.696C29.9612 13.344 30.6492 13.168 31.3052 13.168C31.6252 13.168 31.9132 13.232 32.1692 13.36C32.4252 13.472 32.6732 13.64 32.9132 13.864L34.3772 13.024L34.7852 13.288L32.8652 21.712C32.7372 22.256 32.6732 22.656 32.6732 22.912C32.6732 23.248 32.8412 23.416 33.1772 23.416C33.4492 23.416 33.7532 23.272 34.0892 22.984C34.4412 22.68 34.8172 22.28 35.2172 21.784L35.8652 22.264C35.5612 22.744 35.1932 23.224 34.7612 23.704C34.3292 24.168 33.8572 24.56 33.3452 24.88C32.8332 25.184 32.2892 25.336 31.7132 25.336Z" fill="#39B8FF" fill-opacity="0.7"/>
<path d="M26.7409 49.456C26.7409 49.84 26.8369 50.144 27.0289 50.368C27.2369 50.592 27.5329 50.704 27.9169 50.704C28.7809 50.704 29.6129 50.248 30.4129 49.336C30.9249 48.76 31.3489 48.008 31.6849 47.08C32.0209 46.136 32.1889 45.216 32.1889 44.32C32.1889 43.616 32.0609 43.088 31.8049 42.736C31.5649 42.368 31.2369 42.184 30.8209 42.184C30.3729 42.184 29.8929 42.36 29.3809 42.712C28.8689 43.048 28.3169 43.52 27.7249 44.128L27.2209 46.36C27.0609 47.16 26.9409 47.784 26.8609 48.232C26.7809 48.664 26.7409 49.072 26.7409 49.456ZM26.5729 52.336C25.8849 52.336 25.3089 52.144 24.8449 51.76C24.3969 51.36 24.1729 50.768 24.1729 49.984C24.1729 49.424 24.2289 48.816 24.3409 48.16C24.4689 47.488 24.6129 46.784 24.7729 46.048L26.6209 36.808L24.6049 36.568L24.7489 35.752L29.3329 34.48L29.6449 34.72L27.9169 43C28.6209 42.12 29.3809 41.432 30.1969 40.936C31.0129 40.424 31.7649 40.168 32.4529 40.168C33.1249 40.168 33.6849 40.408 34.1329 40.888C34.5809 41.368 34.8048 42.176 34.8048 43.312C34.8048 44.176 34.6449 45.04 34.3249 45.904C34.0209 46.768 33.5969 47.592 33.0529 48.376C32.5249 49.144 31.9089 49.824 31.2049 50.416C30.5009 51.008 29.7489 51.48 28.9489 51.832C28.1649 52.168 27.3729 52.336 26.5729 52.336Z" fill="#39B8FF" fill-opacity="0.7"/>
</svg>
