<svg width="227" height="64" viewBox="0 0 227 64" fill="none" xmlns="http://www.w3.org/2000/svg">
<path d="M19.3227 43.376L19.0667 43.024L26.9708 32.624L25.5948 26.864C25.4241 26.0747 25.1788 25.5093 24.8588 25.168C24.5601 24.8267 24.0054 24.656 23.1948 24.656C22.8108 24.656 22.3414 24.7733 21.7868 25.008L21.4988 24.016C21.7974 23.6107 22.1921 23.248 22.6828 22.928C23.1734 22.5867 23.6641 22.416 24.1548 22.416C24.9654 22.416 25.5734 22.6613 25.9788 23.152C26.3841 23.6427 26.6934 24.4747 26.9068 25.648L27.9308 31.504L34.2668 22.544L36.5388 22.704L36.7308 23.088L28.6348 33.68L30.0748 39.12C30.3094 40.016 30.6294 40.624 31.0348 40.944C31.4614 41.2853 31.9628 41.456 32.5388 41.456C32.8801 41.456 33.3708 41.3387 34.0108 41.104L34.2028 42.096C33.9041 42.5013 33.5094 42.864 33.0188 43.184C32.5494 43.5253 32.0588 43.696 31.5468 43.696C30.7574 43.696 30.1601 43.4613 29.7548 42.992C29.3494 42.544 29.0401 41.776 28.8268 40.688L27.6748 34.8L21.5948 43.536L19.3227 43.376Z" fill="black"/>
</svg>
