<svg width="227" height="64" viewBox="0 0 227 64" fill="none" xmlns="http://www.w3.org/2000/svg">
<path d="M33.5621 38.4161C32.9008 38.4161 32.4101 38.1174 32.0901 37.5201C31.7914 36.9228 31.5888 36.1228 31.4821 35.1201L30.3621 24.7521C29.0394 26.9921 27.7381 29.2428 26.4581 31.5041C25.1994 33.7654 23.9621 36.1014 22.7461 38.5121L20.3461 38.0001L20.1221 37.6481C21.7221 34.8534 23.3541 32.1441 25.0181 29.5201C26.6821 26.8961 28.3461 24.2934 30.0101 21.7121L29.9141 20.7521C29.7648 19.2588 29.4021 18.2241 28.8261 17.6481C28.2714 17.0721 27.5781 16.7841 26.7461 16.7841C26.2128 16.7841 25.6581 16.8481 25.0821 16.9761C24.5061 17.0828 23.8874 17.2854 23.2261 17.5841L22.7781 16.3681C23.6101 15.6214 24.3888 15.0988 25.1141 14.8001C25.8608 14.4801 26.5861 14.3201 27.2901 14.3201C28.4848 14.3201 29.3914 14.8214 30.0101 15.8241C30.6288 16.8268 31.0981 18.5548 31.4181 21.0081L33.0501 33.3921C33.1781 34.3734 33.3594 35.0561 33.5941 35.4401C33.8288 35.8028 34.1488 35.9841 34.5541 35.9841C34.8528 35.9841 35.1408 35.9094 35.4181 35.7601C35.7168 35.6108 36.0368 35.4188 36.3781 35.1841L36.8901 35.9201C36.3141 36.8161 35.7488 37.4561 35.1941 37.8401C34.6608 38.2241 34.1168 38.4161 33.5621 38.4161Z" fill="#FAFAFA"/>
</svg>
