<svg width="227" height="64" viewBox="0 0 227 64" fill="none" xmlns="http://www.w3.org/2000/svg">
<path d="M26.0634 44.016L25.7434 43.792L26.8634 38.416C25.0287 38.3733 23.61 37.8933 22.6074 36.976C21.626 36.0373 21.1354 34.9067 21.1354 33.584C21.1354 33.008 21.1994 32.3573 21.3274 31.632C21.4554 30.9067 21.6047 30.1707 21.7754 29.424C21.9674 28.656 22.1274 27.9413 22.2554 27.28C22.3834 26.5973 22.4474 26.0213 22.4474 25.552C22.4474 25.2107 22.3834 24.976 22.2554 24.848C22.1487 24.6987 21.946 24.624 21.6474 24.624C21.3487 24.624 21.018 24.6667 20.6554 24.752C20.314 24.816 19.8874 24.944 19.3754 25.136L18.9594 24.304C19.8127 23.5573 20.4954 23.056 21.0074 22.8C21.5194 22.544 22.074 22.416 22.6714 22.416C24.1007 22.416 24.8154 23.248 24.8154 24.912C24.8154 25.4667 24.7407 26.1173 24.5914 26.864C24.4634 27.5893 24.3034 28.3573 24.1114 29.168C23.9407 29.9787 23.7807 30.768 23.6314 31.536C23.5034 32.304 23.4394 32.9867 23.4394 33.584C23.4394 34.544 23.7487 35.312 24.3674 35.888C25.0074 36.4427 25.946 36.7627 27.1834 36.848L30.5754 18.096L32.0474 17.776L32.3354 18.096L29.5194 36.88C30.8634 36.7947 32.0367 36.3573 33.0394 35.568C34.042 34.7573 34.8207 33.7547 35.3754 32.56C35.93 31.344 36.2074 30.096 36.2074 28.816C36.2074 28.7733 36.2074 28.7307 36.2074 28.688C36.2074 28.624 36.2074 28.5707 36.2074 28.528C35.546 27.4827 35.1087 26.64 34.8954 26C34.682 25.3387 34.5754 24.7733 34.5754 24.304C34.5754 23.5573 34.7567 23.056 35.1194 22.8C35.5034 22.544 35.8767 22.416 36.2394 22.416C36.602 22.416 36.8794 22.4693 37.0714 22.576C37.2847 22.6827 37.4554 22.8427 37.5834 23.056C37.6687 23.5893 37.722 24.304 37.7434 25.2C37.7647 26.0747 37.7754 26.8427 37.7754 27.504C37.7754 29.296 37.5194 30.864 37.0074 32.208C36.5167 33.552 35.8554 34.6827 35.0234 35.6C34.2127 36.496 33.306 37.1787 32.3034 37.648C31.3007 38.1173 30.298 38.384 29.2954 38.448L28.7194 43.536L26.0634 44.016Z" fill="black"/>
</svg>
