<svg width="227" height="64" viewBox="0 0 227 64" fill="none" xmlns="http://www.w3.org/2000/svg">
<path d="M27.4694 38.416C25.784 38.416 24.504 37.7867 23.6294 36.528C22.776 35.248 22.3494 33.5733 22.3494 31.504C22.3494 29.072 22.584 26.8213 23.0534 24.752C23.544 22.6613 24.2054 20.8373 25.0374 19.28C25.8907 17.7227 26.872 16.5067 27.9814 15.632C29.112 14.7573 30.3067 14.32 31.5654 14.32C33.2294 14.32 34.4774 14.96 35.3094 16.24C36.1414 17.52 36.5574 19.2907 36.5574 21.552C36.5574 24.0053 36.3227 26.256 35.8534 28.304C35.384 30.352 34.7334 32.1333 33.9014 33.648C33.0694 35.1627 32.0987 36.336 30.9894 37.168C29.9014 38 28.728 38.416 27.4694 38.416ZM31.3094 15.632C30.0934 15.632 28.9414 16.4853 27.8534 18.192C26.7867 19.8987 25.9974 22.288 25.4854 25.36H33.7414C33.8267 24.5707 33.8907 23.76 33.9334 22.928C33.976 22.0747 33.9974 21.1893 33.9974 20.272C33.9974 18.6507 33.7947 17.4773 33.3894 16.752C33.0054 16.0053 32.312 15.632 31.3094 15.632ZM27.7894 37.136C29.0054 37.136 30.1467 36.272 31.2134 34.544C32.28 32.816 33.048 30.3413 33.5174 27.12H25.2294C25.0374 28.72 24.9414 30.4693 24.9414 32.368C24.9414 33.904 25.1547 35.088 25.5814 35.92C26.0294 36.7307 26.7654 37.136 27.7894 37.136Z" fill="black"/>
</svg>
