<svg width="227" height="64" viewBox="0 0 227 64" fill="none" xmlns="http://www.w3.org/2000/svg">
<path d="M21.7319 25.648V24.496C22.3292 24.0907 22.8839 23.7707 23.3959 23.536C23.9292 23.28 24.5372 23.0987 25.2199 22.992C25.9025 22.8853 26.7559 22.832 27.7799 22.832H38.7239L38.4039 25.072L34.5959 24.944C34.2332 26.992 33.9452 28.624 33.7319 29.84C33.5185 31.056 33.3585 31.984 33.2519 32.624C33.1665 33.2427 33.1025 33.712 33.0599 34.032C33.0385 34.3307 33.0279 34.608 33.0279 34.864C33.0279 35.7813 33.3479 36.24 33.9879 36.24C34.2865 36.24 34.6065 36.1547 34.9479 35.984C35.2892 35.8133 35.6305 35.5893 35.9719 35.312L36.4839 36.08C35.2465 37.6373 33.9772 38.416 32.6759 38.416C31.9719 38.416 31.4172 38.2027 31.0119 37.776C30.6065 37.3493 30.4039 36.7733 30.4039 36.048C30.4039 35.792 30.4252 35.4507 30.4679 35.024C30.5319 34.576 30.6385 33.9573 30.7879 33.168C30.9585 32.3787 31.2039 31.3227 31.5239 30C31.8652 28.656 32.3239 26.96 32.8999 24.912H27.6199C27.3212 26.32 27.0652 27.5147 26.8519 28.496C26.6385 29.456 26.4465 30.288 26.2759 30.992C26.1265 31.6747 25.9772 32.304 25.8279 32.88C25.6785 33.4347 25.5185 34.0107 25.3479 34.608C24.6439 37.1467 23.4172 38.416 21.6679 38.416C21.1559 38.416 20.7399 38.2987 20.4199 38.064C20.1212 37.8507 19.9719 37.5093 19.9719 37.04C19.9719 36.6347 20.0892 36.2933 20.3239 36.016C20.5799 35.7387 20.8252 35.5253 21.0599 35.376C21.8705 35.2053 22.7452 35.088 23.6839 35.024C24.1745 33.3387 24.6439 31.664 25.0919 30C25.5399 28.336 25.9452 26.6613 26.3079 24.976L21.7319 25.648Z" fill="black"/>
</svg>
