<svg width="227" height="64" viewBox="0 0 227 64" fill="none" xmlns="http://www.w3.org/2000/svg">
<path d="M24.9107 44.0159L24.5907 43.7919L25.8067 38.2559C23.7801 37.9146 22.1907 37.0932 21.0387 35.7919C19.9081 34.4906 19.3427 32.8479 19.3427 30.8639C19.3427 29.6692 19.6307 28.4746 20.2067 27.2799C20.7827 26.0852 21.5721 25.0292 22.5747 24.1119C23.5774 23.1732 24.7294 22.5012 26.0307 22.0959L26.3827 22.8319C25.4654 23.2586 24.6761 23.8772 24.0147 24.6879C23.3534 25.4772 22.8414 26.3946 22.4787 27.4399C22.1161 28.4639 21.9347 29.5412 21.9347 30.6719C21.9347 32.5919 22.3081 34.0426 23.0547 35.0239C23.8014 36.0052 24.8147 36.6559 26.0947 36.9759L28.0787 27.7919C28.4627 26.0212 29.1027 24.6879 29.9987 23.7919C30.9161 22.8746 32.0466 22.4159 33.3906 22.4159C34.3506 22.4159 35.1933 22.6719 35.9186 23.1839C36.6653 23.6746 37.2414 24.3572 37.6467 25.2319C38.0521 26.1066 38.2547 27.1199 38.2547 28.2719C38.2547 29.9572 37.8921 31.5252 37.1667 32.9759C36.4627 34.4266 35.3854 35.6319 33.9347 36.5919C32.4841 37.5519 30.6601 38.1386 28.4627 38.3519L27.6307 43.5359L24.9107 44.0159ZM30.1267 27.9519L28.6547 37.1039C30.9587 36.8052 32.7293 35.8452 33.9667 34.2239C35.2041 32.6026 35.8227 30.4692 35.8227 27.8239C35.8227 25.0719 34.9267 23.6959 33.1347 23.6959C32.4094 23.6959 31.7801 24.0266 31.2467 24.6879C30.7347 25.3279 30.3614 26.4159 30.1267 27.9519Z" fill="#FAFAFA"/>
</svg>
