<svg width="227" height="64" viewBox="0 0 227 64" fill="none" xmlns="http://www.w3.org/2000/svg">
<path d="M26.1471 23.088L24.1951 34.512C24.7285 35.1733 25.3685 35.664 26.1151 35.984C26.8618 36.304 27.6831 36.464 28.5791 36.464C30.0085 36.464 31.1605 35.9947 32.0351 35.056C32.9311 34.1173 33.3791 32.8907 33.3791 31.376C33.3791 29.5627 32.8671 28.304 31.8431 27.6C30.8191 26.896 29.5178 26.6613 27.9391 26.896L27.6511 25.392C32.0458 24.624 34.2431 22.5013 34.2431 19.024C34.2431 17.8933 34.0298 17.0507 33.6031 16.496C33.1765 15.92 32.4831 15.632 31.5231 15.632C30.1578 15.632 29.0271 16.1867 28.1311 17.296C27.2565 18.4053 26.5951 20.336 26.1471 23.088ZM20.1311 44.016L19.8111 43.76L21.7311 33.872L23.9391 22.288C24.4725 19.5787 25.4538 17.5733 26.8831 16.272C28.3338 14.9707 29.9871 14.32 31.8431 14.32C33.4218 14.32 34.6165 14.768 35.4271 15.664C36.2378 16.5387 36.6431 17.6053 36.6431 18.864C36.6431 20.4213 36.1098 21.7973 35.0431 22.992C33.9978 24.1653 32.5685 25.0507 30.7551 25.648C32.2058 25.904 33.4218 26.5227 34.4031 27.504C35.4058 28.4853 35.9071 29.7333 35.9071 31.248C35.9071 32.656 35.5978 33.904 34.9791 34.992C34.3605 36.0587 33.5285 36.9013 32.4831 37.52C31.4378 38.1173 30.2538 38.416 28.9311 38.416C27.9498 38.416 27.0111 38.1813 26.1151 37.712C25.2191 37.2427 24.4725 36.5707 23.8751 35.696L22.8191 43.536L20.1311 44.016Z" fill="black"/>
</svg>
