<svg width="227" height="64" viewBox="0 0 227 64" fill="none" xmlns="http://www.w3.org/2000/svg">
<path d="M23.8197 39.7681L22.6917 39.0001L33.4197 23.1841L34.5477 23.9521L23.8197 39.7681ZM21.7077 28.4401C21.7077 29.5441 21.7637 30.3921 21.8757 30.9841C21.9877 31.5761 22.1397 31.9841 22.3317 32.2081C22.5237 32.4161 22.7317 32.5201 22.9557 32.5201C23.1957 32.5201 23.4117 32.4081 23.6037 32.1841C23.7957 31.9601 23.9477 31.5601 24.0597 30.9841C24.1717 30.3921 24.2277 29.5441 24.2277 28.4401C24.2277 27.3201 24.1717 26.4721 24.0597 25.8961C23.9477 25.3041 23.7957 24.8961 23.6037 24.6721C23.4117 24.4481 23.1957 24.3361 22.9557 24.3361C22.7317 24.3361 22.5237 24.4481 22.3317 24.6721C22.1397 24.8801 21.9877 25.2801 21.8757 25.8721C21.7637 26.4641 21.7077 27.3201 21.7077 28.4401ZM22.9557 23.5201C23.5957 23.5201 24.1957 23.6961 24.7557 24.0481C25.3157 24.3841 25.7637 24.9201 26.0997 25.6561C26.4517 26.3761 26.6277 27.3041 26.6277 28.4401C26.6277 29.5601 26.4517 30.4801 26.0997 31.2001C25.7637 31.9201 25.3157 32.4561 24.7557 32.8081C24.1957 33.1441 23.5957 33.3121 22.9557 33.3121C22.3157 33.3121 21.7157 33.1441 21.1557 32.8081C20.5957 32.4561 20.1477 31.9201 19.8117 31.2001C19.4757 30.4801 19.3077 29.5601 19.3077 28.4401C19.3077 27.3041 19.4757 26.3761 19.8117 25.6561C20.1477 24.9201 20.5957 24.3841 21.1557 24.0481C21.7157 23.6961 22.3157 23.5201 22.9557 23.5201ZM32.7957 34.3441C32.7957 35.4481 32.8517 36.2961 32.9637 36.8881C33.0757 37.4801 33.2277 37.8881 33.4197 38.1121C33.6117 38.3201 33.8197 38.4241 34.0437 38.4241C34.2837 38.4241 34.4997 38.3121 34.6917 38.0881C34.8837 37.8641 35.0357 37.4641 35.1477 36.8881C35.2597 36.2961 35.3157 35.4481 35.3157 34.3441C35.3157 33.2241 35.2597 32.3761 35.1477 31.8001C35.0357 31.2081 34.8837 30.8001 34.6917 30.5761C34.4997 30.3521 34.2837 30.2401 34.0437 30.2401C33.8197 30.2401 33.6117 30.3521 33.4197 30.5761C33.2277 30.7841 33.0757 31.1841 32.9637 31.7761C32.8517 32.3681 32.7957 33.2241 32.7957 34.3441ZM34.0437 29.4241C34.6837 29.4241 35.2837 29.6001 35.8437 29.9521C36.4037 30.2881 36.8517 30.8241 37.1877 31.5601C37.5397 32.2801 37.7157 33.2081 37.7157 34.3441C37.7157 35.4641 37.5397 36.3841 37.1877 37.1041C36.8517 37.8241 36.4037 38.3601 35.8437 38.7121C35.2837 39.0481 34.6837 39.2161 34.0437 39.2161C33.4037 39.2161 32.8037 39.0481 32.2437 38.7121C31.6837 38.3601 31.2357 37.8241 30.8997 37.1041C30.5637 36.3841 30.3957 35.4641 30.3957 34.3441C30.3957 33.2081 30.5637 32.2801 30.8997 31.5601C31.2357 30.8241 31.6837 30.2881 32.2437 29.9521C32.8037 29.6001 33.4037 29.4241 34.0437 29.4241Z" fill="#FAFAFA"/>
</svg>
