<svg width="227" height="64" viewBox="0 0 227 64" fill="none" xmlns="http://www.w3.org/2000/svg">
<path d="M30.8604 23.792C30.3697 23.792 29.8257 23.984 29.2284 24.368C28.6524 24.752 28.087 25.2853 27.5324 25.968C26.9777 26.6507 26.5084 27.44 26.1244 28.336C25.7617 29.2107 25.5377 30.1493 25.4524 31.152C27.223 30.64 28.631 30.0747 29.6764 29.456C30.743 28.816 31.5004 28.176 31.9484 27.536C32.4177 26.8747 32.6524 26.256 32.6524 25.68C32.6524 25.0827 32.4817 24.624 32.1404 24.304C31.8204 23.9627 31.3937 23.792 30.8604 23.792ZM28.0444 38.416C26.6364 38.416 25.4737 37.936 24.5564 36.976C23.6604 36.016 23.2124 34.512 23.2124 32.464C23.2124 31.184 23.4364 29.9467 23.8844 28.752C24.3324 27.536 24.9404 26.4587 25.7084 25.52C26.4764 24.56 27.3617 23.8027 28.3644 23.248C29.3884 22.6933 30.455 22.416 31.5644 22.416C32.6097 22.416 33.399 22.672 33.9324 23.184C34.487 23.696 34.7644 24.4213 34.7644 25.36C34.7644 26.0427 34.4977 26.8 33.9644 27.632C33.431 28.4427 32.4817 29.264 31.1164 30.096C29.7724 30.928 27.8844 31.696 25.4524 32.4C25.5164 33.7653 25.8364 34.7467 26.4124 35.344C26.9884 35.92 27.767 36.208 28.7484 36.208C29.751 36.208 30.615 35.952 31.3404 35.44C32.0657 34.928 32.6417 34.4053 33.0684 33.872L33.8044 34.448C33.143 35.536 32.311 36.4747 31.3084 37.264C30.3057 38.032 29.2177 38.416 28.0444 38.416Z" fill="#FAFAFA"/>
</svg>
