<svg width="227" height="64" viewBox="0 0 227 64" fill="none" xmlns="http://www.w3.org/2000/svg">
<path d="M22.5273 38C22.9966 36.336 23.3913 34.8853 23.7113 33.648C24.0313 32.3893 24.3086 31.248 24.5433 30.224C24.7779 29.2 24.9806 28.176 25.1513 27.152C25.3219 26.2347 25.3539 25.584 25.2473 25.2C25.1406 24.816 24.8739 24.624 24.4473 24.624C24.0419 24.624 23.6899 24.6667 23.3913 24.752C23.0926 24.8373 22.6979 24.9653 22.2073 25.136L21.7913 24.304C22.6446 23.5573 23.3273 23.056 23.8393 22.8C24.3513 22.544 24.9059 22.416 25.5033 22.416C26.3779 22.416 26.9859 22.8 27.3273 23.568C27.6899 24.3147 27.7219 25.4027 27.4233 26.832L26.8793 29.456L35.4553 22.576C35.8179 22.5973 36.1273 22.736 36.3833 22.992C36.6393 23.2267 36.7673 23.5253 36.7673 23.888C36.7673 24.2933 36.5966 24.6667 36.2553 25.008C35.9353 25.328 35.2633 25.7653 34.2393 26.32L27.2633 30L27.8713 30.096C28.7673 30.2453 29.5246 30.5547 30.1433 31.024C30.7619 31.4933 31.2099 32.1653 31.4873 33.04L32.0313 34.704C32.2446 35.3227 32.4899 35.7387 32.7673 35.952C33.0446 36.144 33.3646 36.24 33.7273 36.24C34.0259 36.24 34.3246 36.1547 34.6233 35.984C34.9433 35.792 35.2419 35.5573 35.5193 35.28L36.0633 36.048C35.5086 36.7733 34.9326 37.3493 34.3353 37.776C33.7379 38.2027 33.1619 38.416 32.6073 38.416C31.3699 38.416 30.5273 37.6587 30.0793 36.144L29.5353 34.192C29.1939 32.9973 28.8206 32.176 28.4153 31.728C28.0099 31.28 27.4979 30.96 26.8793 30.768L26.6233 30.704L25.1513 38L22.8793 38.256L22.5273 38Z" fill="black"/>
</svg>
