<svg width="227" height="64" viewBox="0 0 227 64" fill="none" xmlns="http://www.w3.org/2000/svg">
<path d="M56 40H46V51H56V40Z" fill="#39B8FF" fill-opacity="0.3"/>
<path d="M49.2538 48.1981C49.2538 48.4701 49.3218 48.6854 49.4578 48.8441C49.6051 49.0028 49.8148 49.0821 50.0868 49.0821C50.6988 49.0821 51.2881 48.7591 51.8548 48.1131C52.2175 47.7051 52.5178 47.1724 52.7558 46.5151C52.9938 45.8464 53.1128 45.1948 53.1128 44.5601C53.1128 44.0614 53.0221 43.6874 52.8408 43.4381C52.6708 43.1774 52.4385 43.0471 52.1438 43.0471C51.8265 43.0471 51.4865 43.1718 51.1238 43.4211C50.7611 43.6591 50.3701 43.9934 49.9508 44.4241L49.5938 46.0051C49.4805 46.5718 49.3955 47.0138 49.3388 47.3311C49.2821 47.6371 49.2538 47.9261 49.2538 48.1981ZM49.1348 50.2381C48.6475 50.2381 48.2395 50.1021 47.9108 49.8301C47.5935 49.5468 47.4348 49.1274 47.4348 48.5721C47.4348 48.1754 47.4745 47.7448 47.5538 47.2801C47.6445 46.8041 47.7465 46.3054 47.8598 45.7841L49.1688 39.2391L47.7408 39.0691L47.8428 38.4911L51.0898 37.5901L51.3108 37.7601L50.0868 43.6251C50.5855 43.0018 51.1238 42.5144 51.7018 42.1631C52.2798 41.8004 52.8125 41.6191 53.2998 41.6191C53.7758 41.6191 54.1725 41.7891 54.4898 42.1291C54.8071 42.4691 54.9658 43.0414 54.9658 43.8461C54.9658 44.4581 54.8525 45.0701 54.6258 45.6821C54.4105 46.2941 54.1101 46.8778 53.7248 47.4331C53.3508 47.9771 52.9145 48.4588 52.4158 48.8781C51.9171 49.2974 51.3845 49.6318 50.8178 49.8811C50.2625 50.1191 49.7015 50.2381 49.1348 50.2381Z" fill="#39B8FF" fill-opacity="0.7"/>
<path d="M12.6001 39.9999V39.1359L14.5201 38.7999C14.5361 38.1439 14.5441 37.5039 14.5441 36.8799C14.5601 36.2399 14.5681 35.5999 14.5681 34.9599V24.4239L12.6001 24.1839V23.3439L16.3441 22.2639L16.6801 22.4559L16.5841 25.8639V34.9599C16.5841 35.5999 16.5841 36.2399 16.5841 36.8799C16.6001 37.5199 16.6161 38.1599 16.6321 38.7999L18.5521 39.1359V39.9999H12.6001ZM25.7245 40.3119C24.7965 40.3119 23.9085 40.0959 23.0605 39.6639C22.2285 39.2159 21.5485 38.5519 21.0205 37.6719C20.4925 36.7759 20.2285 35.6719 20.2285 34.3599C20.2285 33.0319 20.4925 31.9199 21.0205 31.0239C21.5485 30.1119 22.2285 29.4319 23.0605 28.9839C23.9085 28.5199 24.7965 28.2879 25.7245 28.2879C26.6525 28.2879 27.5325 28.5199 28.3645 28.9839C29.2125 29.4319 29.9005 30.1119 30.4285 31.0239C30.9725 31.9199 31.2445 33.0319 31.2445 34.3599C31.2445 35.6719 30.9725 36.7759 30.4285 37.6719C29.9005 38.5519 29.2125 39.2159 28.3645 39.6639C27.5325 40.0959 26.6525 40.3119 25.7245 40.3119ZM25.7245 39.2319C26.7645 39.2319 27.5645 38.8239 28.1245 38.0079C28.6845 37.1759 28.9645 35.9599 28.9645 34.3599C28.9645 32.7439 28.6845 31.5119 28.1245 30.6639C27.5645 29.8159 26.7645 29.3919 25.7245 29.3919C24.6845 29.3919 23.8845 29.8159 23.3245 30.6639C22.7805 31.5119 22.5085 32.7439 22.5085 34.3599C22.5085 35.9599 22.7805 37.1759 23.3245 38.0079C23.8845 38.8239 24.6845 39.2319 25.7245 39.2319ZM38.0084 35.1999C38.7764 35.1999 39.3764 34.9119 39.8084 34.3359C40.2404 33.7599 40.4564 33.0319 40.4564 32.1519C40.4564 31.3039 40.2484 30.6159 39.8324 30.0879C39.4324 29.5439 38.8564 29.2719 38.1044 29.2719C37.3524 29.2719 36.7604 29.5519 36.3284 30.1119C35.8964 30.6559 35.6804 31.3679 35.6804 32.2479C35.6804 33.1279 35.8804 33.8399 36.2804 34.3839C36.6964 34.9279 37.2724 35.1999 38.0084 35.1999ZM38.0564 36.1599C37.4324 36.1599 36.8404 36.0719 36.2804 35.8959C35.8804 36.4079 35.6804 36.9199 35.6804 37.4319C35.6804 37.7519 35.7684 38.0079 35.9444 38.1999C36.1364 38.3919 36.5124 38.4879 37.0724 38.4879H40.2164C41.5444 38.4879 42.5204 38.7599 43.1444 39.3039C43.7684 39.8479 44.0804 40.6079 44.0804 41.5839C44.0804 42.2719 43.8564 42.9359 43.4084 43.5759C42.9764 44.2159 42.3204 44.7359 41.4404 45.1359C40.5604 45.5359 39.4644 45.7359 38.1524 45.7359C36.4084 45.7359 35.1444 45.4639 34.3604 44.9199C33.5764 44.3759 33.1844 43.6799 33.1844 42.8319C33.1844 42.3199 33.3524 41.8399 33.6884 41.3919C34.0404 40.9599 34.6564 40.5279 35.5364 40.0959C34.4804 39.8079 33.9524 39.1999 33.9524 38.2719C33.9524 37.8879 34.0724 37.4879 34.3124 37.0719C34.5684 36.6559 34.9924 36.1679 35.5844 35.6079C35.0084 35.2879 34.5524 34.8479 34.2164 34.2879C33.8964 33.7279 33.7364 33.0399 33.7364 32.2239C33.7364 30.9599 34.1444 29.9919 34.9604 29.3199C35.7924 28.6319 36.8324 28.2879 38.0804 28.2879C39.3444 28.2879 40.3604 28.5999 41.1284 29.2239L43.8404 28.2879L44.2004 28.5279V30.0399H41.8484C42.2164 30.6319 42.4004 31.3599 42.4004 32.2239C42.4004 33.4879 41.9844 34.4639 41.1524 35.1519C40.3364 35.8239 39.3044 36.1599 38.0564 36.1599ZM35.1524 42.4479C35.1524 43.2319 35.4324 43.7919 35.9924 44.1279C36.5524 44.4639 37.3044 44.6319 38.2484 44.6319C39.5604 44.6319 40.5604 44.3919 41.2484 43.9119C41.9364 43.4479 42.2804 42.8799 42.2804 42.2079C42.2804 41.6799 42.0964 41.2319 41.7284 40.8639C41.3604 40.5119 40.7444 40.3359 39.8804 40.3359H37.0724C36.9124 40.3359 36.7444 40.3279 36.5684 40.3119C36.4084 40.3119 36.2484 40.3039 36.0884 40.2879C35.7524 40.6399 35.5124 40.9839 35.3684 41.3199C35.2244 41.6719 35.1524 42.0479 35.1524 42.4479Z" fill="#FAFAFA"/>
<path d="M71 26H58V41H71V26Z" fill="#39B8FF" fill-opacity="0.3"/>
<path d="M61.2172 36.1359C61.2172 36.8719 61.3372 37.4159 61.5772 37.7679C61.8332 38.1039 62.1692 38.2719 62.5852 38.2719C62.9532 38.2719 63.3612 38.1359 63.8092 37.8639C64.2572 37.5759 64.7772 37.1199 65.3692 36.4959L66.7132 30.2319C66.5052 30.1199 66.2812 30.0319 66.0412 29.9679C65.8172 29.8879 65.5852 29.8479 65.3452 29.8479C64.6732 29.8479 63.9532 30.2159 63.1852 30.9519C62.8172 31.3199 62.4812 31.7919 62.1772 32.3679C61.8732 32.9279 61.6332 33.5359 61.4572 34.1919C61.2972 34.8479 61.2172 35.4959 61.2172 36.1359ZM66.7132 40.3359C66.2492 40.3359 65.8652 40.1919 65.5612 39.9039C65.2572 39.5999 65.1052 39.1519 65.1052 38.5599C65.1052 38.4159 65.1052 38.2799 65.1052 38.1519C65.1212 38.0079 65.1372 37.8719 65.1532 37.7439C64.4812 38.5119 63.7772 39.1359 63.0412 39.6159C62.3052 40.0959 61.6092 40.3359 60.9532 40.3359C60.3452 40.3359 59.7932 40.1039 59.2972 39.6399C58.8012 39.1599 58.5532 38.3679 58.5532 37.2639C58.5532 36.4159 58.7132 35.5599 59.0332 34.6959C59.3532 33.8319 59.7852 33.0159 60.3292 32.2479C60.8732 31.4639 61.4812 30.7679 62.1532 30.1599C62.8252 29.5359 63.5212 29.0479 64.2412 28.6959C64.9612 28.3439 65.6492 28.1679 66.3052 28.1679C66.6252 28.1679 66.9132 28.2319 67.1692 28.3599C67.4252 28.4719 67.6732 28.6399 67.9132 28.8639L69.3772 28.0239L69.7852 28.2879L67.8652 36.7119C67.7372 37.2559 67.6732 37.6559 67.6732 37.9119C67.6732 38.2479 67.8412 38.4159 68.1772 38.4159C68.4492 38.4159 68.7532 38.2719 69.0892 37.9839C69.4412 37.6799 69.8172 37.2799 70.2172 36.7839L70.8652 37.2639C70.5612 37.7439 70.1932 38.2239 69.7612 38.7039C69.3292 39.1679 68.8572 39.5599 68.3452 39.8799C67.8332 40.1839 67.2892 40.3359 66.7132 40.3359Z" fill="#39B8FF" fill-opacity="0.7"/>
</svg>
