<svg width="227" height="64" viewBox="0 0 227 64" fill="none" xmlns="http://www.w3.org/2000/svg">
<path d="M18.408 40.312C16.76 40.312 15.448 39.776 14.472 38.704C13.496 37.632 13.008 36.176 13.008 34.336C13.008 33.072 13.264 31.992 13.776 31.096C14.304 30.184 14.992 29.488 15.84 29.008C16.688 28.528 17.592 28.288 18.552 28.288C19.272 28.288 19.936 28.424 20.544 28.696C21.152 28.968 21.656 29.344 22.056 29.824C22.456 30.288 22.704 30.816 22.8 31.408C22.688 32.016 22.32 32.32 21.696 32.32C21.296 32.32 20.992 32.216 20.784 32.008C20.592 31.784 20.456 31.504 20.376 31.168L19.944 29.584C19.72 29.504 19.496 29.456 19.272 29.44C19.064 29.408 18.856 29.392 18.648 29.392C17.624 29.392 16.776 29.792 16.104 30.592C15.448 31.392 15.12 32.56 15.12 34.096C15.12 35.6 15.48 36.752 16.2 37.552C16.92 38.352 17.84 38.752 18.96 38.752C19.648 38.752 20.28 38.6 20.856 38.296C21.432 37.976 21.904 37.52 22.272 36.928L22.872 37.24C22.536 38.232 21.992 38.992 21.24 39.52C20.488 40.048 19.544 40.312 18.408 40.312ZM28.5188 40.312C27.8468 40.312 27.2308 40.232 26.6708 40.072C26.1108 39.928 25.5348 39.704 24.9428 39.4L24.8468 36.76H26.1668L26.6228 38.848C27.1828 39.104 27.8308 39.232 28.5668 39.232C29.4788 39.232 30.1508 39.064 30.5828 38.728C31.0308 38.392 31.2548 37.952 31.2548 37.408C31.2548 36.896 31.0708 36.488 30.7028 36.184C30.3348 35.864 29.7748 35.576 29.0228 35.32L27.9188 34.912C27.0388 34.592 26.3348 34.176 25.8068 33.664C25.2788 33.152 25.0148 32.488 25.0148 31.672C25.0148 31.08 25.1748 30.528 25.4948 30.016C25.8148 29.504 26.2868 29.088 26.9108 28.768C27.5348 28.448 28.2948 28.288 29.1908 28.288C29.8468 28.288 30.4388 28.376 30.9668 28.552C31.5108 28.712 32.0388 28.952 32.5508 29.272L32.4548 31.72H31.2068L30.8228 29.8C30.2788 29.528 29.7268 29.392 29.1668 29.392C28.4308 29.392 27.8708 29.544 27.4868 29.848C27.1188 30.136 26.9348 30.528 26.9348 31.024C26.9348 31.552 27.0948 31.952 27.4148 32.224C27.7508 32.496 28.3268 32.784 29.1428 33.088L29.8867 33.352C31.0868 33.8 31.9348 34.312 32.4308 34.888C32.9428 35.464 33.1988 36.128 33.1988 36.88C33.1988 37.488 33.0228 38.056 32.6708 38.584C32.3188 39.096 31.7988 39.512 31.1108 39.832C30.4228 40.152 29.5588 40.312 28.5188 40.312ZM40.533 40.312C38.885 40.312 37.573 39.776 36.597 38.704C35.621 37.632 35.133 36.176 35.133 34.336C35.133 33.072 35.389 31.992 35.901 31.096C36.429 30.184 37.117 29.488 37.965 29.008C38.813 28.528 39.717 28.288 40.677 28.288C41.397 28.288 42.061 28.424 42.669 28.696C43.277 28.968 43.781 29.344 44.181 29.824C44.581 30.288 44.829 30.816 44.925 31.408C44.813 32.016 44.445 32.32 43.821 32.32C43.421 32.32 43.117 32.216 42.909 32.008C42.717 31.784 42.581 31.504 42.501 31.168L42.069 29.584C41.845 29.504 41.621 29.456 41.397 29.44C41.189 29.408 40.981 29.392 40.773 29.392C39.749 29.392 38.901 29.792 38.229 30.592C37.573 31.392 37.245 32.56 37.245 34.096C37.245 35.6 37.605 36.752 38.325 37.552C39.045 38.352 39.965 38.752 41.085 38.752C41.773 38.752 42.405 38.6 42.981 38.296C43.557 37.976 44.029 37.52 44.397 36.928L44.997 37.24C44.661 38.232 44.117 38.992 43.365 39.52C42.613 40.048 41.669 40.312 40.533 40.312Z" fill="black"/>
<rect x="49" y="26" width="13" height="15" fill="#FF0000" fill-opacity="0.2"/>
<path d="M52.2172 36.136C52.2172 36.872 52.3372 37.416 52.5772 37.768C52.8332 38.104 53.1692 38.272 53.5852 38.272C53.9532 38.272 54.3612 38.136 54.8092 37.864C55.2572 37.576 55.7772 37.12 56.3692 36.496L57.7132 30.232C57.5052 30.12 57.2812 30.032 57.0412 29.968C56.8172 29.888 56.5852 29.848 56.3452 29.848C55.6732 29.848 54.9532 30.216 54.1852 30.952C53.8172 31.32 53.4812 31.792 53.1772 32.368C52.8732 32.928 52.6332 33.536 52.4572 34.192C52.2972 34.848 52.2172 35.496 52.2172 36.136ZM57.7132 40.336C57.2492 40.336 56.8652 40.192 56.5612 39.904C56.2572 39.6 56.1052 39.152 56.1052 38.56C56.1052 38.416 56.1052 38.28 56.1052 38.152C56.1212 38.008 56.1372 37.872 56.1532 37.744C55.4812 38.512 54.7772 39.136 54.0412 39.616C53.3052 40.096 52.6092 40.336 51.9532 40.336C51.3452 40.336 50.7932 40.104 50.2972 39.64C49.8012 39.16 49.5532 38.368 49.5532 37.264C49.5532 36.416 49.7132 35.56 50.0332 34.696C50.3532 33.832 50.7852 33.016 51.3292 32.248C51.8732 31.464 52.4812 30.768 53.1532 30.16C53.8252 29.536 54.5212 29.048 55.2412 28.696C55.9612 28.344 56.6492 28.168 57.3052 28.168C57.6252 28.168 57.9132 28.232 58.1692 28.36C58.4252 28.472 58.6732 28.64 58.9132 28.864L60.3772 28.024L60.7852 28.288L58.8652 36.712C58.7372 37.256 58.6732 37.656 58.6732 37.912C58.6732 38.248 58.8412 38.416 59.1772 38.416C59.4492 38.416 59.7532 38.272 60.0892 37.984C60.4412 37.68 60.8172 37.28 61.2172 36.784L61.8652 37.264C61.5612 37.744 61.1932 38.224 60.7612 38.704C60.3292 39.168 59.8572 39.56 59.3452 39.88C58.8332 40.184 58.2892 40.336 57.7132 40.336Z" fill="#FF0000" fill-opacity="0.2"/>
</svg>
