<svg width="227" height="64" viewBox="0 0 227 64" fill="none" xmlns="http://www.w3.org/2000/svg">
<path d="M56 11H42V26H56V11Z" fill="#39B8FF" fill-opacity="0.3"/>
<path d="M36 26H23V41H36V26Z" fill="#39B8FF" fill-opacity="0.3"/>
<path d="M56 38H42V53H56V38Z" fill="#39B8FF" fill-opacity="0.3"/>
<path d="M42 32H56" stroke="#FAFAFA" stroke-width="2"/>
<path d="M46.7409 22.456C46.7409 22.84 46.8369 23.144 47.0289 23.368C47.2369 23.592 47.5329 23.704 47.9169 23.704C48.7809 23.704 49.6129 23.248 50.4129 22.336C50.9249 21.76 51.3489 21.008 51.6849 20.08C52.0209 19.136 52.1889 18.216 52.1889 17.32C52.1889 16.616 52.0609 16.088 51.8049 15.736C51.5649 15.368 51.2369 15.184 50.8209 15.184C50.3729 15.184 49.8929 15.36 49.3809 15.712C48.8689 16.048 48.3169 16.52 47.7249 17.128L47.2209 19.36C47.0609 20.16 46.9409 20.784 46.8609 21.232C46.7809 21.664 46.7409 22.072 46.7409 22.456ZM46.5729 25.336C45.8849 25.336 45.3089 25.144 44.8449 24.76C44.3969 24.36 44.1729 23.768 44.1729 22.984C44.1729 22.424 44.2289 21.816 44.3409 21.16C44.4689 20.488 44.6129 19.784 44.7729 19.048L46.6209 9.80798L44.6049 9.56798L44.7489 8.75198L49.3329 7.47998L49.6449 7.71998L47.9169 16C48.6209 15.12 49.3809 14.432 50.1969 13.936C51.0129 13.424 51.7649 13.168 52.4529 13.168C53.1249 13.168 53.6849 13.408 54.1329 13.888C54.5809 14.368 54.8049 15.176 54.8049 16.312C54.8049 17.176 54.6449 18.04 54.3249 18.904C54.0209 19.768 53.5969 20.592 53.0529 21.376C52.5249 22.144 51.9089 22.824 51.2049 23.416C50.5009 24.008 49.7489 24.48 48.9489 24.832C48.1649 25.168 47.3729 25.336 46.5729 25.336Z" fill="#39B8FF" fill-opacity="0.7"/>
<path d="M26.2172 36.136C26.2172 36.872 26.3372 37.416 26.5772 37.768C26.8332 38.104 27.1692 38.272 27.5852 38.272C27.9532 38.272 28.3612 38.136 28.8092 37.864C29.2572 37.576 29.7772 37.12 30.3692 36.496L31.7132 30.232C31.5052 30.12 31.2812 30.032 31.0412 29.968C30.8172 29.888 30.5852 29.848 30.3452 29.848C29.6732 29.848 28.9532 30.216 28.1852 30.952C27.8172 31.32 27.4812 31.792 27.1772 32.368C26.8732 32.928 26.6332 33.536 26.4572 34.192C26.2972 34.848 26.2172 35.496 26.2172 36.136ZM31.7132 40.336C31.2492 40.336 30.8652 40.192 30.5612 39.904C30.2572 39.6 30.1052 39.152 30.1052 38.56C30.1052 38.416 30.1052 38.28 30.1052 38.152C30.1212 38.008 30.1372 37.872 30.1532 37.744C29.4812 38.512 28.7772 39.136 28.0412 39.616C27.3052 40.096 26.6092 40.336 25.9532 40.336C25.3452 40.336 24.7932 40.104 24.2972 39.64C23.8012 39.16 23.5532 38.368 23.5532 37.264C23.5532 36.416 23.7132 35.56 24.0332 34.696C24.3532 33.832 24.7852 33.016 25.3292 32.248C25.8732 31.464 26.4812 30.768 27.1532 30.16C27.8252 29.536 28.5212 29.048 29.2412 28.696C29.9612 28.344 30.6492 28.168 31.3052 28.168C31.6252 28.168 31.9132 28.232 32.1692 28.36C32.4252 28.472 32.6732 28.64 32.9132 28.864L34.3772 28.024L34.7852 28.288L32.8652 36.712C32.7372 37.256 32.6732 37.656 32.6732 37.912C32.6732 38.248 32.8412 38.416 33.1772 38.416C33.4492 38.416 33.7532 38.272 34.0892 37.984C34.4412 37.68 34.8172 37.28 35.2172 36.784L35.8652 37.264C35.5612 37.744 35.1932 38.224 34.7612 38.704C34.3292 39.168 33.8572 39.56 33.3452 39.88C32.8332 40.184 32.2892 40.336 31.7132 40.336Z" fill="#39B8FF" fill-opacity="0.7"/>
<path d="M48.3738 52.336C47.2538 52.336 46.3258 51.952 45.5898 51.184C44.8698 50.4 44.5098 49.28 44.5098 47.824C44.5098 46.8 44.6858 45.832 45.0378 44.92C45.3898 43.992 45.8698 43.176 46.4778 42.472C47.1018 41.752 47.8058 41.192 48.5898 40.792C49.3898 40.376 50.2298 40.168 51.1098 40.168C51.9098 40.168 52.5658 40.352 53.0778 40.72C53.5898 41.072 53.9258 41.552 54.0858 42.16C54.0538 42.528 53.9018 42.824 53.6298 43.048C53.3738 43.256 53.0778 43.36 52.7418 43.36C52.4058 43.36 52.1178 43.256 51.8778 43.048C51.6378 42.824 51.4138 42.568 51.2058 42.28L50.4618 41.248C49.8058 41.584 49.2218 42.072 48.7098 42.712C48.2138 43.336 47.8218 44.048 47.5338 44.848C47.2618 45.648 47.1258 46.48 47.1258 47.344C47.1258 48.336 47.3578 49.072 47.8218 49.552C48.3018 50.032 48.9338 50.272 49.7178 50.272C50.2938 50.272 50.8378 50.104 51.3498 49.768C51.8618 49.416 52.3178 49 52.7178 48.52L53.3178 48.976C52.9978 49.568 52.5818 50.12 52.0698 50.632C51.5578 51.144 50.9898 51.56 50.3658 51.88C49.7418 52.184 49.0778 52.336 48.3738 52.336Z" fill="#39B8FF" fill-opacity="0.7"/>
</svg>
