<svg width="227" height="64" viewBox="0 0 227 64" fill="none" xmlns="http://www.w3.org/2000/svg">
<path d="M28.9273 38.416C28.2659 38.416 27.7433 38.2027 27.3593 37.776C26.9753 37.328 26.7833 36.7093 26.7833 35.92C26.7833 35.6853 26.8046 35.3973 26.8473 35.056C26.8899 34.6933 26.9753 34.1493 27.1033 33.424C27.2313 32.6773 27.4339 31.6107 27.7113 30.224L29.1513 22.992L31.8073 22.416L32.0633 22.736L30.9753 26.64C30.3139 28.9867 29.8339 30.8107 29.5353 32.112C29.2579 33.392 29.1193 34.3627 29.1193 35.024C29.1193 35.8347 29.4393 36.24 30.0793 36.24C30.3779 36.24 30.6659 36.1547 30.9433 35.984C31.2206 35.792 31.5299 35.5573 31.8713 35.28L32.3833 36.048C31.7859 36.816 31.2099 37.4027 30.6553 37.808C30.1006 38.2133 29.5246 38.416 28.9273 38.416Z" fill="black"/>
</svg>
