<svg width="227" height="64" viewBox="0 0 227 64" fill="none" xmlns="http://www.w3.org/2000/svg">
<path d="M16.9201 40.3119C16.0881 40.3119 15.4241 40.0879 14.9281 39.6399C14.4321 39.1919 14.1841 38.5039 14.1841 37.5759C14.1841 37.2719 14.1841 36.9759 14.1841 36.6879C14.2001 36.3839 14.2081 35.9999 14.2081 35.5359V29.8719H12.2161V28.8159L14.3521 28.5519L14.9761 25.3359H16.4161L16.2721 28.5999H19.5121V29.8719H16.2481V37.3119C16.2481 37.9199 16.3681 38.3679 16.6081 38.6559C16.8481 38.9279 17.1681 39.0639 17.5681 39.0639C17.8401 39.0639 18.0961 39.0079 18.3361 38.8959C18.5921 38.7839 18.8721 38.6239 19.1761 38.4159L19.7521 39.0399C19.0961 39.8879 18.1521 40.3119 16.9201 40.3119ZM29.7888 40.2399C29.2128 40.2399 28.7328 40.0719 28.3488 39.7359C27.9648 39.3999 27.7248 38.9519 27.6288 38.3919C26.9728 39.0319 26.3968 39.5119 25.9008 39.8319C25.4048 40.1519 24.8048 40.3119 24.1008 40.3119C23.2208 40.3119 22.4608 40.0639 21.8208 39.5679C21.1968 39.0559 20.8848 38.3039 20.8848 37.3119C20.8848 36.8479 20.9888 36.4159 21.1968 36.0159C21.4208 35.6159 21.8208 35.2239 22.3968 34.8399C22.9728 34.4559 23.7968 34.0719 24.8688 33.6879C25.2368 33.5599 25.6608 33.4239 26.1408 33.2799C26.6208 33.1359 27.1008 33.0079 27.5808 32.8959V32.2959C27.5808 31.1279 27.4048 30.3519 27.0528 29.9679C26.7008 29.5839 26.1248 29.3919 25.3248 29.3919C25.1488 29.3919 24.9488 29.3999 24.7248 29.4159C24.5168 29.4319 24.2848 29.4719 24.0288 29.5359L23.5728 31.0959C23.3488 31.8639 22.9328 32.2479 22.3248 32.2479C21.6528 32.2479 21.2768 31.9199 21.1968 31.2639C21.4208 30.3519 21.9488 29.6319 22.7808 29.1039C23.6288 28.5599 24.6608 28.2879 25.8768 28.2879C27.1408 28.2879 28.0768 28.6079 28.6848 29.2479C29.2928 29.8719 29.5968 30.9439 29.5968 32.4639V37.5759C29.5968 38.0879 29.6768 38.4559 29.8368 38.6799C29.9968 38.8879 30.2048 38.9919 30.4608 38.9919C30.6688 38.9919 30.8448 38.9439 30.9888 38.8479C31.1328 38.7519 31.2688 38.6239 31.3968 38.4639L31.8768 38.9919C31.5888 39.4559 31.2688 39.7839 30.9168 39.9759C30.5808 40.1519 30.2048 40.2399 29.7888 40.2399ZM23.0208 36.9519C23.0208 37.5919 23.2048 38.0479 23.5728 38.3199C23.9408 38.5919 24.3968 38.7279 24.9408 38.7279C25.1808 38.7279 25.4048 38.6959 25.6128 38.6319C25.8368 38.5679 26.1008 38.4479 26.4048 38.2719C26.7088 38.0799 27.1008 37.8079 27.5808 37.4559V33.7839C27.1648 33.8959 26.7568 34.0239 26.3568 34.1679C25.9568 34.2959 25.6288 34.4079 25.3728 34.5039C24.6848 34.7759 24.1728 35.0559 23.8368 35.3439C23.5008 35.6319 23.2768 35.9119 23.1648 36.1839C23.0688 36.4559 23.0208 36.7119 23.0208 36.9519ZM32.8585 39.9999V39.1359L34.6345 38.7999C34.6505 38.1919 34.6585 37.5359 34.6585 36.8319C34.6745 36.1279 34.6825 35.5039 34.6825 34.9599V33.8079C34.6825 33.1519 34.6745 32.6079 34.6585 32.1759C34.6585 31.7439 34.6425 31.2879 34.6105 30.8079L32.7145 30.5919V29.7519L36.0745 28.2879L36.4345 28.5279L36.6265 30.4479C37.2185 29.8079 37.8985 29.2879 38.6665 28.8879C39.4345 28.4879 40.1865 28.2879 40.9225 28.2879C41.9625 28.2879 42.7305 28.6399 43.2265 29.3439C43.7385 30.0319 43.9945 31.1599 43.9945 32.7279V34.9599C43.9945 35.5039 43.9945 36.1279 43.9945 36.8319C44.0105 37.5359 44.0265 38.1919 44.0425 38.7999L45.7225 39.1359V39.9999H40.1545V39.1359L41.9305 38.7999C41.9465 38.2079 41.9545 37.5599 41.9545 36.8559C41.9705 36.1359 41.9785 35.5039 41.9785 34.9599V32.9199C41.9785 31.8159 41.8185 31.0559 41.4985 30.6399C41.1945 30.2239 40.6905 30.0159 39.9865 30.0159C39.4425 30.0159 38.9145 30.1279 38.4025 30.3519C37.8905 30.5759 37.3305 30.9439 36.7225 31.4559V34.9599C36.7225 35.4879 36.7225 36.1119 36.7225 36.8319C36.7385 37.5359 36.7545 38.1919 36.7705 38.7999L38.4265 39.1359V39.9999H32.8585Z" fill="#FAFAFA"/>
<path d="M62 26H49V41H62V26Z" fill="#39B8FF" fill-opacity="0.3"/>
<path d="M52.2172 36.1359C52.2172 36.8719 52.3372 37.4159 52.5772 37.7679C52.8332 38.1039 53.1692 38.2719 53.5852 38.2719C53.9532 38.2719 54.3612 38.1359 54.8092 37.8639C55.2572 37.5759 55.7772 37.1199 56.3692 36.4959L57.7132 30.2319C57.5052 30.1199 57.2812 30.0319 57.0412 29.9679C56.8172 29.8879 56.5852 29.8479 56.3452 29.8479C55.6732 29.8479 54.9532 30.2159 54.1852 30.9519C53.8172 31.3199 53.4812 31.7919 53.1772 32.3679C52.8732 32.9279 52.6332 33.5359 52.4572 34.1919C52.2972 34.8479 52.2172 35.4959 52.2172 36.1359ZM57.7132 40.3359C57.2492 40.3359 56.8652 40.1919 56.5612 39.9039C56.2572 39.5999 56.1052 39.1519 56.1052 38.5599C56.1052 38.4159 56.1052 38.2799 56.1052 38.1519C56.1212 38.0079 56.1372 37.8719 56.1532 37.7439C55.4812 38.5119 54.7772 39.1359 54.0412 39.6159C53.3052 40.0959 52.6092 40.3359 51.9532 40.3359C51.3452 40.3359 50.7932 40.1039 50.2972 39.6399C49.8012 39.1599 49.5532 38.3679 49.5532 37.2639C49.5532 36.4159 49.7132 35.5599 50.0332 34.6959C50.3532 33.8319 50.7852 33.0159 51.3292 32.2479C51.8732 31.4639 52.4812 30.7679 53.1532 30.1599C53.8252 29.5359 54.5212 29.0479 55.2412 28.6959C55.9612 28.3439 56.6492 28.1679 57.3052 28.1679C57.6252 28.1679 57.9132 28.2319 58.1692 28.3599C58.4252 28.4719 58.6732 28.6399 58.9132 28.8639L60.3772 28.0239L60.7852 28.2879L58.8652 36.7119C58.7372 37.2559 58.6732 37.6559 58.6732 37.9119C58.6732 38.2479 58.8412 38.4159 59.1772 38.4159C59.4492 38.4159 59.7532 38.2719 60.0892 37.9839C60.4412 37.6799 60.8172 37.2799 61.2172 36.7839L61.8652 37.2639C61.5612 37.7439 61.1932 38.2239 60.7612 38.7039C60.3292 39.1679 59.8572 39.5599 59.3452 39.8799C58.8332 40.1839 58.2892 40.3359 57.7132 40.3359Z" fill="#39B8FF" fill-opacity="0.7"/>
</svg>
