<svg width="227" height="64" viewBox="0 0 227 64" fill="none" xmlns="http://www.w3.org/2000/svg">
<path d="M26.0688 38.0001C26.0474 35.5254 25.9834 33.3601 25.8768 31.5041C25.7701 29.6268 25.5994 27.8348 25.3648 26.1281C25.2794 25.5094 25.1514 25.1041 24.9808 24.9121C24.8101 24.7201 24.5541 24.6241 24.2128 24.6241C23.9354 24.6241 23.6474 24.6668 23.3488 24.7521C23.0714 24.8374 22.7088 24.9654 22.2608 25.1361L21.8448 24.3041C22.6768 23.5788 23.3274 23.0881 23.7968 22.8321C24.2874 22.5548 24.8208 22.4161 25.3968 22.4161C26.0154 22.4161 26.5168 22.6188 26.9008 23.0241C27.2848 23.4294 27.5514 24.0694 27.7008 24.9441C27.9354 26.3948 28.0848 28.0481 28.1488 29.9041C28.2341 31.7388 28.2554 33.6054 28.2128 35.5041C29.3648 34.1814 30.3568 32.8801 31.1888 31.6001C32.0421 30.3201 32.8314 29.0188 33.5568 27.6961C33.5994 27.6534 33.6314 27.6108 33.6528 27.5681C33.6741 27.5041 33.6954 27.4508 33.7168 27.4081L33.4288 25.7441C33.4074 25.5308 33.3754 25.3068 33.3328 25.0721C33.3114 24.8374 33.3008 24.6454 33.3008 24.4961C33.3008 23.6854 33.4501 23.1094 33.7488 22.7681C34.0688 22.4054 34.4954 22.2241 35.0288 22.2241C35.3274 22.2241 35.5834 22.2774 35.7968 22.3841C36.0101 22.4694 36.1594 22.5548 36.2448 22.6401C36.3514 22.8534 36.4048 23.1414 36.4048 23.5041C36.4048 24.0588 36.2768 24.6988 36.0208 25.4241C35.7861 26.1281 35.3808 27.0134 34.8048 28.0801C33.9088 29.7441 32.7994 31.4614 31.4768 33.2321C30.1541 35.0028 28.7568 36.6134 27.2848 38.0641L26.2288 38.1601L26.0688 38.0001Z" fill="#FAFAFA"/>
</svg>
