<svg width="227" height="64" viewBox="0 0 227 64" fill="none" xmlns="http://www.w3.org/2000/svg">
<path d="M24 19H14V30H24V19Z" fill="#39B8FF" fill-opacity="0.3"/>
<path d="M17.2538 27.1981C17.2538 27.4701 17.3218 27.6854 17.4578 27.8441C17.6051 28.0028 17.8148 28.0821 18.0868 28.0821C18.6988 28.0821 19.2881 27.7591 19.8548 27.1131C20.2175 26.7051 20.5178 26.1724 20.7558 25.5151C20.9938 24.8464 21.1128 24.1948 21.1128 23.5601C21.1128 23.0614 21.0221 22.6874 20.8408 22.4381C20.6708 22.1774 20.4385 22.0471 20.1438 22.0471C19.8265 22.0471 19.4865 22.1718 19.1238 22.4211C18.7611 22.6591 18.3701 22.9934 17.9508 23.4241L17.5938 25.0051C17.4805 25.5718 17.3955 26.0138 17.3388 26.3311C17.2821 26.6371 17.2538 26.9261 17.2538 27.1981ZM17.1348 29.2381C16.6475 29.2381 16.2395 29.1021 15.9108 28.8301C15.5935 28.5468 15.4348 28.1274 15.4348 27.5721C15.4348 27.1754 15.4745 26.7448 15.5538 26.2801C15.6445 25.8041 15.7465 25.3054 15.8598 24.7841L17.1688 18.2391L15.7408 18.0691L15.8428 17.4911L19.0898 16.5901L19.3108 16.7601L18.0868 22.6251C18.5855 22.0018 19.1238 21.5144 19.7018 21.1631C20.2798 20.8004 20.8125 20.6191 21.2998 20.6191C21.7758 20.6191 22.1725 20.7891 22.4898 21.1291C22.8071 21.4691 22.9658 22.0414 22.9658 22.8461C22.9658 23.4581 22.8525 24.0701 22.6258 24.6821C22.4105 25.2941 22.1101 25.8778 21.7248 26.4331C21.3508 26.9771 20.9145 27.4588 20.4158 27.8781C19.9171 28.2974 19.3845 28.6318 18.8178 28.8811C18.2625 29.1191 17.7015 29.2381 17.1348 29.2381Z" fill="#39B8FF" fill-opacity="0.7"/>
<path d="M30.4163 21.2319L23.4323 42.3999H22.2563L19.3283 32.6799H17.4563V31.5039H20.7203L23.1683 39.9039L28.5443 21.2319H30.4163Z" fill="#FAFAFA"/>
<path d="M42 26H29V41H42V26Z" fill="#39B8FF" fill-opacity="0.3"/>
<path d="M32.2172 36.1359C32.2172 36.8719 32.3372 37.4159 32.5772 37.7679C32.8332 38.1039 33.1692 38.2719 33.5852 38.2719C33.9532 38.2719 34.3612 38.1359 34.8092 37.8639C35.2572 37.5759 35.7772 37.1199 36.3692 36.4959L37.7132 30.2319C37.5052 30.1199 37.2812 30.0319 37.0412 29.9679C36.8172 29.8879 36.5852 29.8479 36.3452 29.8479C35.6732 29.8479 34.9532 30.2159 34.1852 30.9519C33.8172 31.3199 33.4812 31.7919 33.1772 32.3679C32.8732 32.9279 32.6332 33.5359 32.4572 34.1919C32.2972 34.8479 32.2172 35.4959 32.2172 36.1359ZM37.7132 40.3359C37.2492 40.3359 36.8652 40.1919 36.5612 39.9039C36.2572 39.5999 36.1052 39.1519 36.1052 38.5599C36.1052 38.4159 36.1052 38.2799 36.1052 38.1519C36.1212 38.0079 36.1372 37.8719 36.1532 37.7439C35.4812 38.5119 34.7772 39.1359 34.0412 39.6159C33.3052 40.0959 32.6092 40.3359 31.9532 40.3359C31.3452 40.3359 30.7932 40.1039 30.2972 39.6399C29.8012 39.1599 29.5532 38.3679 29.5532 37.2639C29.5532 36.4159 29.7132 35.5599 30.0332 34.6959C30.3532 33.8319 30.7852 33.0159 31.3292 32.2479C31.8732 31.4639 32.4812 30.7679 33.1532 30.1599C33.8252 29.5359 34.5212 29.0479 35.2412 28.6959C35.9612 28.3439 36.6492 28.1679 37.3052 28.1679C37.6252 28.1679 37.9132 28.2319 38.1692 28.3599C38.4252 28.4719 38.6732 28.6399 38.9132 28.8639L40.3772 28.0239L40.7852 28.2879L38.8652 36.7119C38.7372 37.2559 38.6732 37.6559 38.6732 37.9119C38.6732 38.2479 38.8412 38.4159 39.1772 38.4159C39.4492 38.4159 39.7532 38.2719 40.0892 37.9839C40.4412 37.6799 40.8172 37.2799 41.2172 36.7839L41.8652 37.2639C41.5612 37.7439 41.1932 38.2239 40.7612 38.7039C40.3292 39.1679 39.8572 39.5599 39.3452 39.8799C38.8332 40.1839 38.2892 40.3359 37.7132 40.3359Z" fill="#39B8FF" fill-opacity="0.7"/>
<path d="M42 21H29V23H42V21Z" fill="#FAFAFA"/>
</svg>
