<svg width="227" height="64" viewBox="0 0 227 64" fill="none" xmlns="http://www.w3.org/2000/svg">
<path d="M25.1596 39.768L24.0316 39L34.7596 23.184L35.8876 23.952L25.1596 39.768ZM23.0476 28.44C23.0476 29.544 23.1036 30.392 23.2156 30.984C23.3276 31.576 23.4796 31.984 23.6716 32.208C23.8636 32.416 24.0716 32.52 24.2956 32.52C24.5356 32.52 24.7516 32.408 24.9436 32.184C25.1356 31.96 25.2876 31.56 25.3996 30.984C25.5116 30.392 25.5676 29.544 25.5676 28.44C25.5676 27.32 25.5116 26.472 25.3996 25.896C25.2876 25.304 25.1356 24.896 24.9436 24.672C24.7516 24.448 24.5356 24.336 24.2956 24.336C24.0716 24.336 23.8636 24.448 23.6716 24.672C23.4796 24.88 23.3276 25.28 23.2156 25.872C23.1036 26.464 23.0476 27.32 23.0476 28.44ZM24.2956 23.52C24.9356 23.52 25.5356 23.696 26.0956 24.048C26.6556 24.384 27.1036 24.92 27.4396 25.656C27.7916 26.376 27.9676 27.304 27.9676 28.44C27.9676 29.56 27.7916 30.48 27.4396 31.2C27.1036 31.92 26.6556 32.456 26.0956 32.808C25.5356 33.144 24.9356 33.312 24.2956 33.312C23.6556 33.312 23.0556 33.144 22.4956 32.808C21.9356 32.456 21.4876 31.92 21.1516 31.2C20.8156 30.48 20.6476 29.56 20.6476 28.44C20.6476 27.304 20.8156 26.376 21.1516 25.656C21.4876 24.92 21.9356 24.384 22.4956 24.048C23.0556 23.696 23.6556 23.52 24.2956 23.52ZM34.1356 34.344C34.1356 35.448 34.1916 36.296 34.3036 36.888C34.4156 37.48 34.5676 37.888 34.7596 38.112C34.9516 38.32 35.1596 38.424 35.3836 38.424C35.6236 38.424 35.8396 38.312 36.0316 38.088C36.2236 37.864 36.3756 37.464 36.4876 36.888C36.5996 36.296 36.6556 35.448 36.6556 34.344C36.6556 33.224 36.5996 32.376 36.4876 31.8C36.3756 31.208 36.2236 30.8 36.0316 30.576C35.8396 30.352 35.6236 30.24 35.3836 30.24C35.1596 30.24 34.9516 30.352 34.7596 30.576C34.5676 30.784 34.4156 31.184 34.3036 31.776C34.1916 32.368 34.1356 33.224 34.1356 34.344ZM35.3836 29.424C36.0236 29.424 36.6236 29.6 37.1836 29.952C37.7436 30.288 38.1916 30.824 38.5276 31.56C38.8796 32.28 39.0556 33.208 39.0556 34.344C39.0556 35.464 38.8796 36.384 38.5276 37.104C38.1916 37.824 37.7436 38.36 37.1836 38.712C36.6236 39.048 36.0236 39.216 35.3836 39.216C34.7436 39.216 34.1436 39.048 33.5836 38.712C33.0236 38.36 32.5756 37.824 32.2396 37.104C31.9036 36.384 31.7356 35.464 31.7356 34.344C31.7356 33.208 31.9036 32.28 32.2396 31.56C32.5756 30.824 33.0236 30.288 33.5836 29.952C34.1436 29.6 34.7436 29.424 35.3836 29.424ZM42.6796 34.344C42.6796 35.448 42.7356 36.296 42.8476 36.888C42.9596 37.48 43.1116 37.888 43.3036 38.112C43.4956 38.32 43.7036 38.424 43.9276 38.424C44.1676 38.424 44.3836 38.312 44.5756 38.088C44.7676 37.864 44.9196 37.464 45.0316 36.888C45.1436 36.296 45.1996 35.448 45.1996 34.344C45.1996 33.224 45.1436 32.376 45.0316 31.8C44.9196 31.208 44.7676 30.8 44.5756 30.576C44.3836 30.352 44.1676 30.24 43.9276 30.24C43.7036 30.24 43.4956 30.352 43.3036 30.576C43.1116 30.784 42.9596 31.184 42.8476 31.776C42.7356 32.368 42.6796 33.224 42.6796 34.344ZM43.9276 29.424C44.5676 29.424 45.1676 29.6 45.7276 29.952C46.2876 30.288 46.7356 30.824 47.0716 31.56C47.4236 32.28 47.5996 33.208 47.5996 34.344C47.5996 35.464 47.4236 36.384 47.0716 37.104C46.7356 37.824 46.2876 38.36 45.7276 38.712C45.1676 39.048 44.5676 39.216 43.9276 39.216C43.2876 39.216 42.6876 39.048 42.1276 38.712C41.5676 38.36 41.1196 37.824 40.7836 37.104C40.4476 36.384 40.2796 35.464 40.2796 34.344C40.2796 33.208 40.4476 32.28 40.7836 31.56C41.1196 30.824 41.5676 30.288 42.1276 29.952C42.6876 29.6 43.2876 29.424 43.9276 29.424Z" fill="black"/>
</svg>
