<svg width="227" height="64" viewBox="0 0 227 64" fill="none" xmlns="http://www.w3.org/2000/svg">
<path d="M27.6463 38.416C26.0036 38.416 24.7343 38.0853 23.8383 37.424C22.9636 36.7627 22.5263 35.8133 22.5263 34.576C22.5263 33.4453 23.0169 32.4747 23.9983 31.664C24.9796 30.832 26.2276 30.3093 27.7423 30.096C25.5023 29.7333 24.3823 28.6133 24.3823 26.736C24.3823 25.904 24.6489 25.168 25.1823 24.528C25.7369 23.8667 26.4836 23.3547 27.4223 22.992C28.3823 22.608 29.4596 22.416 30.6543 22.416C31.7849 22.416 32.7663 22.5547 33.5983 22.832C34.4516 23.1093 35.0276 23.4933 35.3263 23.984C35.3049 24.5173 35.1449 24.944 34.8463 25.264C34.5476 25.5627 34.1529 25.712 33.6623 25.712C33.3423 25.712 33.0009 25.6053 32.6383 25.392C32.2756 25.1573 31.9023 24.8587 31.5183 24.496L30.5263 23.568C29.3956 23.5893 28.5209 23.856 27.9023 24.368C27.2836 24.8587 26.9743 25.5413 26.9743 26.416C26.9743 27.2053 27.2943 27.8347 27.9343 28.304C28.5743 28.752 29.4809 28.976 30.6543 28.976C31.0383 28.976 31.3049 28.976 31.4543 28.976C31.6036 28.976 31.8809 28.9653 32.2863 28.944L31.8383 31.024C31.6463 31.0027 31.4436 30.992 31.2303 30.992C31.0169 30.992 30.7929 30.992 30.5583 30.992C28.9369 30.992 27.6463 31.2693 26.6863 31.824C25.7263 32.3787 25.2463 33.136 25.2463 34.096C25.2463 34.928 25.5023 35.536 26.0143 35.92C26.5476 36.2827 27.3369 36.464 28.3823 36.464C29.4489 36.464 30.3663 36.336 31.1343 36.08C31.9236 35.8027 32.7129 35.3333 33.5023 34.672L34.1103 35.376C33.2783 36.3573 32.2969 37.1147 31.1663 37.648C30.0356 38.16 28.8623 38.416 27.6463 38.416Z" fill="black"/>
</svg>
