<svg width="227" height="64" viewBox="0 0 227 64" fill="none" xmlns="http://www.w3.org/2000/svg">
<path d="M27.6569 38.4161C26.4835 38.4161 25.4809 38.1388 24.6489 37.5841C23.8169 37.0081 23.1769 36.2508 22.7289 35.3121C22.3022 34.3521 22.0889 33.3174 22.0889 32.2081C22.0889 30.6508 22.3982 29.2534 23.0169 28.0161C23.6569 26.7574 24.4995 25.7228 25.5449 24.9121C26.6115 24.1014 27.7849 23.6108 29.0649 23.4401C28.0195 22.4588 27.2835 21.6054 26.8569 20.8801C26.4515 20.1548 26.2489 19.3868 26.2489 18.5761C26.2489 17.3814 26.7182 16.3788 27.6569 15.5681C28.6169 14.7361 29.9609 14.3201 31.6889 14.3201C33.0542 14.3201 34.1849 14.6081 35.0809 15.1841C35.9982 15.7388 36.6169 16.4214 36.9369 17.2321C36.8942 17.6801 36.7342 18.0214 36.4569 18.2561C36.2009 18.4694 35.9129 18.5761 35.5929 18.5761C35.1875 18.5761 34.8355 18.4588 34.5369 18.2241C34.2595 17.9894 33.9715 17.6694 33.6729 17.2641L32.5529 15.5361C32.4675 15.5148 32.3822 15.5041 32.2969 15.5041C32.2329 15.5041 32.1582 15.5041 32.0729 15.5041C30.8355 15.5041 29.9182 15.7494 29.3209 16.2401C28.7235 16.7308 28.4249 17.3494 28.4249 18.0961C28.4249 18.4161 28.4995 18.7574 28.6489 19.1201C28.8195 19.4828 29.1502 19.9308 29.6409 20.4641C30.1315 20.9974 30.8462 21.7014 31.7849 22.5761C33.0435 23.7494 33.9395 24.8588 34.4729 25.9041C35.0275 26.9494 35.3049 28.1228 35.3049 29.4241C35.3049 31.1521 34.9635 32.6988 34.2809 34.0641C33.6195 35.4081 32.7129 36.4748 31.5609 37.2641C30.4089 38.0321 29.1075 38.4161 27.6569 38.4161ZM24.6809 32.4321C24.6809 33.9894 24.9689 35.1628 25.5449 35.9521C26.1422 36.7414 26.8995 37.1361 27.8169 37.1361C28.7342 37.1361 29.5555 36.8268 30.2809 36.2081C31.0275 35.5894 31.6142 34.7468 32.0409 33.6801C32.4675 32.6134 32.6809 31.4188 32.6809 30.0961C32.6809 27.7708 31.7635 25.8188 29.9289 24.2401C29.9075 24.2188 29.8862 24.1974 29.8649 24.1761C29.8435 24.1548 29.8115 24.1334 29.7689 24.1121C28.9155 24.3468 28.0942 24.8374 27.3049 25.5841C26.5369 26.3094 25.9075 27.2481 25.4169 28.4001C24.9262 29.5521 24.6809 30.8961 24.6809 32.4321Z" fill="#FAFAFA"/>
</svg>
