<svg width="227" height="64" viewBox="0 0 227 64" fill="none" xmlns="http://www.w3.org/2000/svg">
<path d="M30.7732 43.7919C31.0719 43.3226 31.3172 42.8319 31.5092 42.3199C31.7012 41.8292 31.7972 41.3386 31.7972 40.8479C31.7972 40.3786 31.7332 39.9839 31.6052 39.6639C31.4772 39.3652 31.2106 39.0879 30.8052 38.8319C30.4212 38.5759 29.8346 38.3092 29.0452 38.0319C27.4239 37.4346 26.2399 36.6986 25.4932 35.8239C24.7679 34.9492 24.4052 33.8506 24.4052 32.5279C24.4052 31.5252 24.7679 30.2986 25.4932 28.8479C26.2399 27.3972 27.4772 25.6692 29.2052 23.6639C30.9332 21.6586 33.2692 19.3119 36.2132 16.6239H27.6372L28.0852 14.1599L38.5812 14.6399L38.3252 16.2399C36.0852 18.4372 34.2399 20.3466 32.7892 21.9679C31.3386 23.5892 30.1972 24.9972 29.3652 26.1919C28.5332 27.3866 27.9466 28.4532 27.6052 29.3919C27.2639 30.3306 27.0932 31.2052 27.0932 32.0159C27.0932 32.9332 27.3172 33.6692 27.7652 34.2239C28.2346 34.7786 29.0986 35.3012 30.3572 35.7919C31.7439 36.3252 32.7039 36.8799 33.2372 37.4559C33.7706 38.0319 34.0372 38.8106 34.0372 39.7919C34.0372 40.5386 33.8559 41.2532 33.4932 41.9359C33.1306 42.6186 32.5226 43.4399 31.6692 44.3999L30.7732 43.7919Z" fill="#FAFAFA"/>
</svg>
