<svg width="227" height="64" viewBox="0 0 227 64" fill="none" xmlns="http://www.w3.org/2000/svg">
<path d="M26.0192 38.4159C24.5899 38.4159 23.3739 37.9359 22.3712 36.9759C21.3899 35.9946 20.8992 34.5866 20.8992 32.7519C20.8992 30.8959 21.2939 29.2319 22.0832 27.7599C22.8726 26.2879 23.9712 25.1146 25.3792 24.2399C26.8086 23.3439 28.4832 22.8746 30.4032 22.8319L37.1872 22.6399L36.8352 25.0719L30.8512 24.6239C31.7686 25.0932 32.5046 25.7652 33.0592 26.6399C33.6352 27.5146 33.9232 28.5172 33.9232 29.6479C33.9232 30.8212 33.7099 31.9306 33.2832 32.9759C32.8779 34.0212 32.3126 34.9599 31.5872 35.7919C30.8619 36.6026 30.0192 37.2426 29.0592 37.7119C28.0992 38.1812 27.0859 38.4159 26.0192 38.4159ZM23.4912 32.3999C23.4912 34.0852 23.7579 35.3012 24.2912 36.0479C24.8459 36.7732 25.5392 37.1359 26.3712 37.1359C27.3952 37.1359 28.2912 36.7839 29.0592 36.0799C29.8272 35.3546 30.4246 34.4266 30.8512 33.2959C31.2779 32.1439 31.4912 30.9279 31.4912 29.6479C31.4912 28.2399 31.2779 27.1306 30.8512 26.3199C30.4459 25.5092 29.7312 24.9012 28.7072 24.4959C27.6192 24.6666 26.6806 25.1252 25.8912 25.8719C25.1232 26.6186 24.5259 27.5572 24.0992 28.6879C23.6939 29.7972 23.4912 31.0346 23.4912 32.3999Z" fill="#FAFAFA"/>
</svg>
