<svg width="227" height="64" viewBox="0 0 227 64" fill="none" xmlns="http://www.w3.org/2000/svg">
<path d="M16.3185 44V20H18.6705V44H16.3185Z" fill="black"/>
<path d="M42.3185 44V20H44.6705V44H42.3185Z" fill="black"/>
<rect x="24" y="24" width="13" height="15" fill="#FF0000" fill-opacity="0.2"/>
<path d="M27.2172 34.136C27.2172 34.872 27.3372 35.416 27.5772 35.768C27.8332 36.104 28.1692 36.272 28.5852 36.272C28.9532 36.272 29.3612 36.136 29.8092 35.864C30.2572 35.576 30.7772 35.12 31.3692 34.496L32.7132 28.232C32.5052 28.12 32.2812 28.032 32.0412 27.968C31.8172 27.888 31.5852 27.848 31.3452 27.848C30.6732 27.848 29.9532 28.216 29.1852 28.952C28.8172 29.32 28.4812 29.792 28.1772 30.368C27.8732 30.928 27.6332 31.536 27.4572 32.192C27.2972 32.848 27.2172 33.496 27.2172 34.136ZM32.7132 38.336C32.2492 38.336 31.8652 38.192 31.5612 37.904C31.2572 37.6 31.1052 37.152 31.1052 36.56C31.1052 36.416 31.1052 36.28 31.1052 36.152C31.1212 36.008 31.1372 35.872 31.1532 35.744C30.4812 36.512 29.7772 37.136 29.0412 37.616C28.3052 38.096 27.6092 38.336 26.9532 38.336C26.3452 38.336 25.7932 38.104 25.2972 37.64C24.8012 37.16 24.5532 36.368 24.5532 35.264C24.5532 34.416 24.7132 33.56 25.0332 32.696C25.3532 31.832 25.7852 31.016 26.3292 30.248C26.8732 29.464 27.4812 28.768 28.1532 28.16C28.8252 27.536 29.5212 27.048 30.2412 26.696C30.9612 26.344 31.6492 26.168 32.3052 26.168C32.6252 26.168 32.9132 26.232 33.1692 26.36C33.4252 26.472 33.6732 26.64 33.9132 26.864L35.3772 26.024L35.7852 26.288L33.8652 34.712C33.7372 35.256 33.6732 35.656 33.6732 35.912C33.6732 36.248 33.8412 36.416 34.1772 36.416C34.4492 36.416 34.7532 36.272 35.0892 35.984C35.4412 35.68 35.8172 35.28 36.2172 34.784L36.8652 35.264C36.5612 35.744 36.1932 36.224 35.7612 36.704C35.3292 37.168 34.8572 37.56 34.3452 37.88C33.8332 38.184 33.2892 38.336 32.7132 38.336Z" fill="#FF0000" fill-opacity="0.2"/>
</svg>
