<svg width="227" height="64" viewBox="0 0 227 64" fill="none" xmlns="http://www.w3.org/2000/svg">
<path d="M24.9106 44.016L24.5906 43.792L25.8066 38.256C23.78 37.9147 22.1906 37.0933 21.0386 35.792C19.908 34.4907 19.3426 32.848 19.3426 30.864C19.3426 29.6693 19.6306 28.4747 20.2066 27.28C20.7826 26.0853 21.572 25.0293 22.5746 24.112C23.5773 23.1733 24.7293 22.5013 26.0306 22.096L26.3826 22.832C25.4653 23.2587 24.676 23.8773 24.0146 24.688C23.3533 25.4773 22.8413 26.3947 22.4786 27.44C22.116 28.464 21.9346 29.5413 21.9346 30.672C21.9346 32.592 22.308 34.0427 23.0546 35.024C23.8013 36.0053 24.8146 36.656 26.0946 36.976L28.0786 27.792C28.4626 26.0213 29.1026 24.688 29.9986 23.792C30.916 22.8747 32.0466 22.416 33.3906 22.416C34.3506 22.416 35.1933 22.672 35.9186 23.184C36.6653 23.6747 37.2413 24.3573 37.6466 25.232C38.052 26.1067 38.2546 27.12 38.2546 28.272C38.2546 29.9573 37.892 31.5253 37.1666 32.976C36.4626 34.4267 35.3853 35.632 33.9346 36.592C32.484 37.552 30.66 38.1387 28.4626 38.352L27.6306 43.536L24.9106 44.016ZM30.1266 27.952L28.6546 37.104C30.9586 36.8053 32.7293 35.8453 33.9666 34.224C35.204 32.6027 35.8226 30.4693 35.8226 27.824C35.8226 25.072 34.9266 23.696 33.1346 23.696C32.4093 23.696 31.78 24.0267 31.2466 24.688C30.7346 25.328 30.3613 26.416 30.1266 27.952Z" fill="black"/>
</svg>
