<svg width="24" height="24" viewBox="0 0 24 24" fill="none" xmlns="http://www.w3.org/2000/svg">
<path d="M4.20186 16.425C4.30186 16.0417 4.47686 15.7583 4.72686 15.575C4.99352 15.375 5.28519 15.275 5.60186 15.275C5.93519 15.275 6.21852 15.3667 6.45186 15.55C6.68519 15.7167 6.93519 16.05 7.20186 16.55L7.30186 16.725C7.40186 16.6583 7.48519 16.575 7.55186 16.475C8.08519 15.875 8.58519 15.2667 9.05186 14.65C9.53519 14.0167 10.0102 13.3667 10.4769 12.7L9.32686 9.075C9.17686 8.59167 9.02686 8.26667 8.87686 8.1C8.74352 7.91667 8.54352 7.825 8.27686 7.825C8.09352 7.825 7.85186 7.90833 7.55186 8.075C7.25186 8.24167 6.93519 8.59167 6.60186 9.125L6.02686 8.575C6.57686 7.59167 7.14352 6.86667 7.72686 6.4C8.31019 5.91667 8.89352 5.675 9.47686 5.675C10.0602 5.675 10.5019 5.85 10.8019 6.2C11.1185 6.55 11.3935 7.11667 11.6269 7.9L12.4019 10.375C12.8852 9.59167 13.3352 8.90833 13.7519 8.325C14.1852 7.725 14.5435 7.24167 14.8269 6.875C15.2102 6.425 15.5685 6.11667 15.9019 5.95C16.2519 5.76667 16.6352 5.675 17.0519 5.675C17.4352 5.675 17.8019 5.8 18.1519 6.05C18.5185 6.28333 18.7602 6.64167 18.8769 7.125C18.8602 7.575 18.7269 7.94167 18.4769 8.225C18.2435 8.49167 17.9352 8.625 17.5519 8.625C17.2352 8.625 16.9519 8.55833 16.7019 8.425C16.4519 8.275 16.2019 8.01667 15.9519 7.65L15.8519 7.475C15.8185 7.525 15.7685 7.58333 15.7019 7.65C15.1852 8.26667 14.6769 8.89167 14.1769 9.525C13.6935 10.1583 13.2102 10.8 12.7269 11.45L13.8519 15C14.0185 15.55 14.1852 15.9167 14.3519 16.1C14.5352 16.2667 14.7685 16.35 15.0519 16.35C15.3352 16.35 15.6602 16.2 16.0269 15.9C16.3935 15.6 16.7769 15.1917 17.1769 14.675L17.8769 15.175C17.3102 16.0917 16.6769 16.8583 15.9769 17.475C15.2769 18.0917 14.5435 18.4 13.7769 18.4C13.3102 18.4 12.9019 18.2667 12.5519 18C12.2019 17.7167 11.9102 17.2 11.6769 16.45L10.8269 13.75C10.3769 14.4667 9.95186 15.125 9.55186 15.725C9.15186 16.325 8.74352 16.8667 8.32686 17.35C8.04352 17.6833 7.74352 17.9333 7.42686 18.1C7.12686 18.2667 6.76852 18.35 6.35186 18.35C5.85186 18.35 5.38519 18.2 4.95186 17.9C4.51852 17.5833 4.26852 17.0917 4.20186 16.425Z" fill="black"/>
</svg>
