<svg width="24" height="24" viewBox="0 0 24 24" fill="none" xmlns="http://www.w3.org/2000/svg">
<path d="M18.1278 22.009C17.7984 22.009 17.5169 21.9028 17.2832 21.6903C17.0601 21.4778 16.9486 21.2123 16.9486 20.8935C16.9486 20.5748 17.0601 20.3093 17.2832 20.0968C17.5169 19.8737 17.7984 19.7622 18.1278 19.7622C18.4677 19.7622 18.7492 19.8737 18.9723 20.0968C19.1954 20.3093 19.307 20.5748 19.307 20.8935C19.307 21.2123 19.1954 21.4778 18.9723 21.6903C18.7492 21.9028 18.4677 22.009 18.1278 22.009ZM18.1278 16.0811C17.7984 16.0811 17.5169 15.9749 17.2832 15.7624C17.0601 15.5394 16.9486 15.2685 16.9486 14.9498C16.9486 14.6311 17.0601 14.3655 17.2832 14.153C17.5169 13.9299 17.7984 13.8184 18.1278 13.8184C18.4677 13.8184 18.7492 13.9299 18.9723 14.153C19.1954 14.3655 19.307 14.6311 19.307 14.9498C19.307 15.2685 19.1954 15.5394 18.9723 15.7624C18.7492 15.9749 18.4677 16.0811 18.1278 16.0811ZM22 18.6148H14.2715V17.2125H22V18.6148Z" fill="black"/>
<path d="M8.57898 21.6425L5.87002 18.9336L3.16105 21.6425L2.15714 20.6227L4.8661 17.9137L2.15714 15.2047L3.16105 14.2008L5.87002 16.9098L8.57898 14.2008L9.59883 15.2047L6.88986 17.9137L9.59883 20.6227L8.57898 21.6425Z" fill="black"/>
<path d="M5.13698 9.65565V6.35708H2.0137V4.95479H5.13698V1.7359H6.60301V4.95479H9.74223V6.35708H6.60301V9.65565H5.13698Z" fill="black"/>
<path d="M16.6777 6.49196V5.0578H20.8049V6.49196H16.6777Z" fill="black"/>
</svg>
