<svg width="24" height="24" viewBox="0 0 24 24" fill="none" xmlns="http://www.w3.org/2000/svg">
<path d="M4.23443 7.76639L4 6.6291C4.4884 6.21926 4.96703 5.90164 5.4359 5.67623C5.9243 5.43033 6.49084 5.25615 7.13553 5.15369C7.78022 5.05123 8.6105 5 9.62637 5H19.8828L20 7.21311L16.2198 7.09016L16.4542 15.2971C16.4933 16.3217 16.6593 17.0082 16.9524 17.3566C17.2454 17.7049 17.6752 17.8791 18.2418 17.8791C18.4371 17.8791 18.652 17.8586 18.8864 17.8176C19.1209 17.7561 19.3358 17.6844 19.5311 17.6025L19.7656 18.3709C19.4139 18.9242 19.033 19.334 18.6227 19.6004C18.232 19.8668 17.7436 20 17.1575 20C16.1416 20 15.3895 19.6926 14.9011 19.0779C14.4322 18.4426 14.1978 17.4898 14.1978 16.2193C14.1978 14.9488 14.2271 13.5041 14.2857 11.8852C14.3639 10.2459 14.442 8.63729 14.5201 7.05943H9.8022C9.78266 8.6168 9.75336 10.1742 9.71429 11.7316C9.69475 13.2889 9.63614 14.8156 9.53846 16.3115C9.44078 17.623 9.13797 18.5656 8.63004 19.1393C8.1221 19.7131 7.43834 20 6.57875 20C6.05128 20 5.62149 19.8668 5.28938 19.6004C4.95727 19.3135 4.79121 18.9344 4.79121 18.4631C4.79121 18.0943 4.84005 17.8074 4.93773 17.6025C5.05495 17.3771 5.21123 17.1824 5.40659 17.0184C6.14896 16.875 7.00855 16.752 7.98535 16.6496C8.14164 15.0717 8.24908 13.4939 8.30769 11.916C8.38584 10.3176 8.44444 8.71926 8.48352 7.1209L4.23443 7.76639Z" fill="black"/>
</svg>
