<svg width="110" height="32" viewBox="0 0 110 32" fill="none" xmlns="http://www.w3.org/2000/svg">
<path class="logo__text" d="M12.6699 30V28.688L15.5499 28.272V10.256L12.6699 9.904V8.592H18.5899L25.7579 26.192L32.5419 8.592H38.8459V9.904L35.9019 10.256C35.8805 11.6 35.8592 12.9653 35.8379 14.352C35.8379 15.7387 35.8379 17.1253 35.8379 18.512V20.08C35.8379 21.4453 35.8379 22.8213 35.8379 24.208C35.8592 25.5733 35.8805 26.9493 35.9019 28.336L38.8459 28.688V30H30.1419V28.688L32.8299 28.336C32.8725 26.992 32.8939 25.6267 32.8939 24.24C32.8939 22.8533 32.8939 21.4773 32.8939 20.112V12.144L25.9499 30H24.3499L17.0219 12.144L17.2139 18.192V28.272L19.8379 28.688V30H12.6699ZM52.9839 30.32C52.2159 30.32 51.5759 30.096 51.0639 29.648C50.5519 29.2 50.2319 28.6027 50.1039 27.856C49.2292 28.7093 48.4612 29.3493 47.7999 29.776C47.1385 30.2027 46.3385 30.416 45.3999 30.416C44.2265 30.416 43.2132 30.0853 42.3599 29.424C41.5279 28.7413 41.1119 27.7387 41.1119 26.416C41.1119 25.7973 41.2505 25.2213 41.5279 24.688C41.8265 24.1547 42.3599 23.632 43.1279 23.12C43.8959 22.608 44.9945 22.096 46.4239 21.584C46.9145 21.4133 47.4799 21.232 48.1199 21.04C48.7599 20.848 49.3999 20.6773 50.0399 20.528V19.728C50.0399 18.1707 49.8052 17.136 49.3359 16.624C48.8665 16.112 48.0985 15.856 47.0319 15.856C46.7972 15.856 46.5305 15.8667 46.2319 15.888C45.9545 15.9093 45.6452 15.9627 45.3039 16.048L44.6959 18.128C44.3972 19.152 43.8425 19.664 43.0319 19.664C42.1359 19.664 41.6345 19.2267 41.5279 18.352C41.8265 17.136 42.5305 16.176 43.6399 15.472C44.7705 14.7467 46.1465 14.384 47.7679 14.384C49.4532 14.384 50.7012 14.8107 51.5119 15.664C52.3225 16.496 52.7279 17.9253 52.7279 19.952V26.768C52.7279 27.4507 52.8345 27.9413 53.0479 28.24C53.2612 28.5173 53.5385 28.656 53.8799 28.656C54.1572 28.656 54.3919 28.592 54.5839 28.464C54.7759 28.336 54.9572 28.1653 55.1279 27.952L55.7679 28.656C55.3839 29.2747 54.9572 29.712 54.4879 29.968C54.0399 30.2027 53.5385 30.32 52.9839 30.32ZM43.9599 25.936C43.9599 26.7893 44.2052 27.3973 44.6959 27.76C45.1865 28.1227 45.7945 28.304 46.5199 28.304C46.8399 28.304 47.1385 28.2613 47.4159 28.176C47.7145 28.0907 48.0665 27.9307 48.4719 27.696C48.8772 27.44 49.3999 27.0773 50.0399 26.608V21.712C49.4852 21.8613 48.9412 22.032 48.4079 22.224C47.8745 22.3947 47.4372 22.544 47.0959 22.672C46.1785 23.0347 45.4959 23.408 45.0479 23.792C44.5999 24.176 44.3012 24.5493 44.1519 24.912C44.0239 25.2747 43.9599 25.616 43.9599 25.936ZM62.5131 30.416C61.4038 30.416 60.5185 30.1173 59.8571 29.52C59.1958 28.9227 58.8651 28.0053 58.8651 26.768C58.8651 26.3627 58.8651 25.968 58.8651 25.584C58.8865 25.1787 58.8971 24.6667 58.8971 24.048V16.496H56.2411V15.088L59.0891 14.736L59.9211 10.448H61.8411L61.6491 14.8H65.9691V16.496H61.6171V26.416C61.6171 27.2267 61.7771 27.824 62.0971 28.208C62.4171 28.5707 62.8438 28.752 63.3771 28.752C63.7398 28.752 64.0811 28.6773 64.4011 28.528C64.7425 28.3787 65.1158 28.1653 65.5211 27.888L66.2891 28.72C65.4145 29.8507 64.1558 30.416 62.5131 30.416ZM67.3194 30V28.848L69.7194 28.4C69.7407 27.5893 69.7514 26.7147 69.7514 25.776C69.7727 24.816 69.7834 23.984 69.7834 23.28V9.232L67.1594 8.912V7.792L72.0554 6.352L72.5034 6.608L72.3754 11.152V17.328C73.1647 16.4533 74.082 15.7493 75.1274 15.216C76.1727 14.6613 77.2074 14.384 78.2314 14.384C79.618 14.384 80.642 14.8533 81.3034 15.792C81.986 16.7093 82.3274 18.2133 82.3274 20.304V23.28C82.3274 24.0053 82.3274 24.8373 82.3274 25.776C82.3487 26.7147 82.37 27.5893 82.3914 28.4L84.6314 28.848V30H77.2074V28.848L79.5434 28.432C79.5647 27.6213 79.5754 26.7467 79.5754 25.808C79.5967 24.848 79.6074 24.0053 79.6074 23.28V20.56C79.6074 19.088 79.4047 18.0747 78.9994 17.52C78.594 16.9653 77.922 16.688 76.9834 16.688C76.194 16.688 75.4474 16.848 74.7434 17.168C74.0394 17.488 73.282 18.0213 72.4714 18.768V23.28C72.4714 23.984 72.4714 24.816 72.4714 25.776C72.4927 26.7147 72.514 27.5893 72.5354 28.4L74.7434 28.848V30H67.3194Z" fill="black"/>
<rect class="logo__cursor" x="88" y="6" width="2" height="24" fill="#4080C6"/>
</svg>
