<svg width="227" height="64" viewBox="0 0 227 64" fill="none" xmlns="http://www.w3.org/2000/svg">
<path d="M27.4694 38.4161C25.784 38.4161 24.504 37.7868 23.6294 36.5281C22.776 35.2481 22.3494 33.5734 22.3494 31.5041C22.3494 29.0721 22.584 26.8214 23.0534 24.7521C23.544 22.6614 24.2054 20.8374 25.0374 19.2801C25.8907 17.7228 26.872 16.5068 27.9814 15.6321C29.112 14.7574 30.3067 14.3201 31.5654 14.3201C33.2294 14.3201 34.4774 14.9601 35.3094 16.2401C36.1414 17.5201 36.5574 19.2908 36.5574 21.5521C36.5574 24.0054 36.3227 26.2561 35.8534 28.3041C35.384 30.3521 34.7334 32.1334 33.9014 33.6481C33.0694 35.1628 32.0987 36.3361 30.9894 37.1681C29.9014 38.0001 28.728 38.4161 27.4694 38.4161ZM31.3094 15.6321C30.0934 15.6321 28.9414 16.4854 27.8534 18.1921C26.7867 19.8988 25.9974 22.2881 25.4854 25.3601H33.7414C33.8267 24.5708 33.8907 23.7601 33.9334 22.9281C33.976 22.0748 33.9974 21.1894 33.9974 20.2721C33.9974 18.6508 33.7947 17.4774 33.3894 16.7521C33.0054 16.0054 32.312 15.6321 31.3094 15.6321ZM27.7894 37.1361C29.0054 37.1361 30.1467 36.2721 31.2134 34.5441C32.28 32.8161 33.048 30.3414 33.5174 27.1201H25.2294C25.0374 28.7201 24.9414 30.4694 24.9414 32.3681C24.9414 33.9041 25.1547 35.0881 25.5814 35.9201C26.0294 36.7308 26.7654 37.1361 27.7894 37.1361Z" fill="#FAFAFA"/>
</svg>
