<svg width="227" height="64" viewBox="0 0 227 64" fill="none" xmlns="http://www.w3.org/2000/svg">
<path d="M26.1472 23.0881L24.1952 34.5121C24.7286 35.1734 25.3686 35.6641 26.1152 35.9841C26.8619 36.3041 27.6832 36.4641 28.5792 36.4641C30.0086 36.4641 31.1606 35.9948 32.0352 35.0561C32.9312 34.1174 33.3792 32.8908 33.3792 31.3761C33.3792 29.5628 32.8672 28.3041 31.8432 27.6001C30.8192 26.8961 29.5179 26.6614 27.9392 26.8961L27.6512 25.3921C32.0459 24.6241 34.2432 22.5014 34.2432 19.0241C34.2432 17.8934 34.0299 17.0508 33.6032 16.4961C33.1766 15.9201 32.4832 15.6321 31.5232 15.6321C30.1579 15.6321 29.0272 16.1868 28.1312 17.2961C27.2566 18.4054 26.5952 20.3361 26.1472 23.0881ZM20.1312 44.0161L19.8112 43.7601L21.7312 33.8721L23.9392 22.2881C24.4726 19.5788 25.4539 17.5734 26.8832 16.2721C28.3339 14.9708 29.9872 14.3201 31.8432 14.3201C33.4219 14.3201 34.6166 14.7681 35.4272 15.6641C36.2379 16.5388 36.6432 17.6054 36.6432 18.8641C36.6432 20.4214 36.1099 21.7974 35.0432 22.9921C33.9979 24.1654 32.5686 25.0508 30.7552 25.6481C32.2059 25.9041 33.4219 26.5228 34.4032 27.5041C35.4059 28.4854 35.9072 29.7334 35.9072 31.2481C35.9072 32.6561 35.5979 33.9041 34.9792 34.9921C34.3606 36.0588 33.5286 36.9014 32.4832 37.5201C31.4379 38.1174 30.2539 38.4161 28.9312 38.4161C27.9499 38.4161 27.0112 38.1814 26.1152 37.7121C25.2192 37.2428 24.4726 36.5708 23.8752 35.6961L22.8192 43.5361L20.1312 44.0161Z" fill="#FAFAFA"/>
</svg>
