<svg width="227" height="64" viewBox="0 0 227 64" fill="none" xmlns="http://www.w3.org/2000/svg">
<path d="M16.8 40.312C16.128 40.312 15.512 40.232 14.952 40.072C14.392 39.928 13.816 39.704 13.224 39.4L13.128 36.76H14.448L14.904 38.848C15.464 39.104 16.112 39.232 16.848 39.232C17.76 39.232 18.432 39.064 18.864 38.728C19.312 38.392 19.536 37.952 19.536 37.408C19.536 36.896 19.352 36.488 18.984 36.184C18.616 35.864 18.056 35.576 17.304 35.32L16.2 34.912C15.32 34.592 14.616 34.176 14.088 33.664C13.56 33.152 13.296 32.488 13.296 31.672C13.296 31.08 13.456 30.528 13.776 30.016C14.096 29.504 14.568 29.088 15.192 28.768C15.816 28.448 16.576 28.288 17.472 28.288C18.128 28.288 18.72 28.376 19.248 28.552C19.792 28.712 20.32 28.952 20.832 29.272L20.736 31.72H19.488L19.104 29.8C18.56 29.528 18.008 29.392 17.448 29.392C16.712 29.392 16.152 29.544 15.768 29.848C15.4 30.136 15.216 30.528 15.216 31.024C15.216 31.552 15.376 31.952 15.696 32.224C16.032 32.496 16.608 32.784 17.424 33.088L18.168 33.352C19.368 33.8 20.216 34.312 20.712 34.888C21.224 35.464 21.48 36.128 21.48 36.88C21.48 37.488 21.304 38.056 20.952 38.584C20.6 39.096 20.08 39.512 19.392 39.832C18.704 40.152 17.84 40.312 16.8 40.312ZM23.2463 40V39.136L25.0463 38.8C25.0623 38.192 25.0703 37.536 25.0703 36.832C25.0863 36.112 25.0943 35.488 25.0943 34.96V33.832C25.0943 33.176 25.0863 32.632 25.0703 32.2C25.0703 31.752 25.0543 31.288 25.0223 30.808L23.1023 30.592V29.752L26.7983 28.288L27.1583 28.528L27.0863 31.792V34.96C27.0863 35.488 27.0863 36.112 27.0863 36.832C27.1023 37.536 27.1183 38.192 27.1343 38.8L28.8143 39.136V40H23.2463ZM26.0783 25.648C25.6303 25.648 25.2463 25.504 24.9263 25.216C24.6223 24.928 24.4703 24.56 24.4703 24.112C24.4703 23.648 24.6223 23.28 24.9263 23.008C25.2463 22.72 25.6303 22.576 26.0783 22.576C26.5263 22.576 26.9023 22.72 27.2063 23.008C27.5263 23.28 27.6863 23.648 27.6863 24.112C27.6863 24.56 27.5263 24.928 27.2063 25.216C26.9023 25.504 26.5263 25.648 26.0783 25.648ZM30.5147 40V39.136L32.2907 38.8C32.3067 38.192 32.3147 37.536 32.3147 36.832C32.3307 36.128 32.3387 35.504 32.3387 34.96V33.808C32.3387 33.152 32.3307 32.608 32.3147 32.176C32.3147 31.744 32.2987 31.288 32.2667 30.808L30.3707 30.592V29.752L33.7307 28.288L34.0907 28.528L34.2827 30.448C34.8747 29.808 35.5547 29.288 36.3227 28.888C37.0907 28.488 37.8427 28.288 38.5787 28.288C39.6187 28.288 40.3867 28.64 40.8827 29.344C41.3947 30.032 41.6507 31.16 41.6507 32.728V34.96C41.6507 35.504 41.6507 36.128 41.6507 36.832C41.6667 37.536 41.6827 38.192 41.6987 38.8L43.3787 39.136V40H37.8107V39.136L39.5867 38.8C39.6027 38.208 39.6107 37.56 39.6107 36.856C39.6267 36.136 39.6347 35.504 39.6347 34.96V32.92C39.6347 31.816 39.4747 31.056 39.1547 30.64C38.8507 30.224 38.3467 30.016 37.6427 30.016C37.0987 30.016 36.5707 30.128 36.0587 30.352C35.5467 30.576 34.9867 30.944 34.3787 31.456V34.96C34.3787 35.488 34.3787 36.112 34.3787 36.832C34.3947 37.536 34.4107 38.192 34.4267 38.8L36.0827 39.136V40H30.5147Z" fill="black"/>
<rect x="47" y="26" width="13" height="15" fill="#FF0000" fill-opacity="0.2"/>
<path d="M50.2172 36.136C50.2172 36.872 50.3372 37.416 50.5772 37.768C50.8332 38.104 51.1692 38.272 51.5852 38.272C51.9532 38.272 52.3612 38.136 52.8092 37.864C53.2572 37.576 53.7772 37.12 54.3692 36.496L55.7132 30.232C55.5052 30.12 55.2812 30.032 55.0412 29.968C54.8172 29.888 54.5852 29.848 54.3452 29.848C53.6732 29.848 52.9532 30.216 52.1852 30.952C51.8172 31.32 51.4812 31.792 51.1772 32.368C50.8732 32.928 50.6332 33.536 50.4572 34.192C50.2972 34.848 50.2172 35.496 50.2172 36.136ZM55.7132 40.336C55.2492 40.336 54.8652 40.192 54.5612 39.904C54.2572 39.6 54.1052 39.152 54.1052 38.56C54.1052 38.416 54.1052 38.28 54.1052 38.152C54.1212 38.008 54.1372 37.872 54.1532 37.744C53.4812 38.512 52.7772 39.136 52.0412 39.616C51.3052 40.096 50.6092 40.336 49.9532 40.336C49.3452 40.336 48.7932 40.104 48.2972 39.64C47.8012 39.16 47.5532 38.368 47.5532 37.264C47.5532 36.416 47.7132 35.56 48.0332 34.696C48.3532 33.832 48.7852 33.016 49.3292 32.248C49.8732 31.464 50.4812 30.768 51.1532 30.16C51.8252 29.536 52.5212 29.048 53.2412 28.696C53.9612 28.344 54.6492 28.168 55.3052 28.168C55.6252 28.168 55.9132 28.232 56.1692 28.36C56.4252 28.472 56.6732 28.64 56.9132 28.864L58.3772 28.024L58.7852 28.288L56.8652 36.712C56.7372 37.256 56.6732 37.656 56.6732 37.912C56.6732 38.248 56.8412 38.416 57.1772 38.416C57.4492 38.416 57.7532 38.272 58.0892 37.984C58.4412 37.68 58.8172 37.28 59.2172 36.784L59.8652 37.264C59.5612 37.744 59.1932 38.224 58.7612 38.704C58.3292 39.168 57.8572 39.56 57.3452 39.88C56.8332 40.184 56.2892 40.336 55.7132 40.336Z" fill="#FF0000" fill-opacity="0.2"/>
</svg>
