<svg width="227" height="64" viewBox="0 0 227 64" fill="none" xmlns="http://www.w3.org/2000/svg">
<path d="M19.3227 43.376L19.0667 43.024L26.9708 32.624L25.5948 26.864C25.4241 26.0747 25.1788 25.5093 24.8588 25.168C24.5601 24.8267 24.0053 24.656 23.1947 24.656C22.8107 24.656 22.3414 24.7733 21.7868 25.008L21.4988 24.016C21.7974 23.6107 22.1921 23.248 22.6828 22.928C23.1734 22.5867 23.6641 22.416 24.1548 22.416C24.9654 22.416 25.5734 22.6613 25.9788 23.152C26.3841 23.6427 26.6933 24.4747 26.9067 25.648L27.9307 31.504L34.2668 22.544L36.5387 22.704L36.7308 23.088L28.6348 33.68L30.0748 39.12C30.3094 40.016 30.6293 40.624 31.0347 40.944C31.4613 41.2853 31.9627 41.456 32.5387 41.456C32.88 41.456 33.3707 41.3387 34.0107 41.104L34.2028 42.096C33.9041 42.5013 33.5093 42.864 33.0187 43.184C32.5493 43.5253 32.0588 43.696 31.5468 43.696C30.7574 43.696 30.1601 43.4613 29.7548 42.992C29.3494 42.544 29.04 41.776 28.8267 40.688L27.6748 34.8L21.5948 43.536L19.3227 43.376Z" fill="#FAFAFA"/>
</svg>
