<svg width="227" height="64" viewBox="0 0 227 64" fill="none" xmlns="http://www.w3.org/2000/svg">
<path d="M30.5286 32.904C30.9926 33.352 31.3686 33.648 31.6566 33.792C31.9606 33.936 32.2406 34.008 32.4966 34.008C32.8166 34.008 33.0886 33.848 33.3126 33.528C33.5366 33.208 33.6806 32.608 33.7446 31.728L35.5926 31.92C35.5766 32.96 35.4246 33.8 35.1366 34.44C34.8486 35.064 34.4646 35.512 33.9846 35.784C33.5046 36.056 32.9686 36.192 32.3766 36.192C31.8646 36.192 31.3686 36.088 30.8886 35.88C30.4246 35.672 29.9366 35.32 29.4246 34.824C28.9766 34.36 28.6166 34.064 28.3446 33.936C28.0726 33.792 27.8006 33.72 27.5286 33.72C27.2086 33.72 26.9366 33.88 26.7126 34.2C26.4886 34.52 26.3366 35.12 26.2566 36L24.4326 35.808C24.4646 34.256 24.7766 33.16 25.3686 32.52C25.9606 31.864 26.7126 31.536 27.6246 31.536C28.0886 31.536 28.5606 31.64 29.0406 31.848C29.5366 32.056 30.0326 32.408 30.5286 32.904ZM30.5286 27.144C30.9926 27.592 31.3686 27.888 31.6566 28.032C31.9606 28.176 32.2406 28.248 32.4966 28.248C32.8166 28.248 33.0886 28.088 33.3126 27.768C33.5366 27.448 33.6806 26.848 33.7446 25.968L35.5926 26.16C35.5766 27.2 35.4246 28.04 35.1366 28.68C34.8486 29.304 34.4646 29.752 33.9846 30.024C33.5046 30.296 32.9686 30.432 32.3766 30.432C31.8646 30.432 31.3686 30.328 30.8886 30.12C30.4246 29.912 29.9366 29.56 29.4246 29.064C28.9766 28.6 28.6166 28.304 28.3446 28.176C28.0726 28.032 27.8006 27.96 27.5286 27.96C27.2086 27.96 26.9366 28.12 26.7126 28.44C26.4886 28.76 26.3366 29.36 26.2566 30.24L24.4326 30.048C24.4646 28.496 24.7766 27.4 25.3686 26.76C25.9606 26.104 26.7126 25.776 27.6246 25.776C28.0886 25.776 28.5606 25.88 29.0406 26.088C29.5366 26.296 30.0326 26.648 30.5286 27.144Z" fill="#FAFAFA"/>
</svg>
