<svg width="227" height="64" viewBox="0 0 227 64" fill="none" xmlns="http://www.w3.org/2000/svg">
<path d="M30.498 44.4L29.57 43.792C29.9113 43.216 30.1673 42.704 30.338 42.256C30.5087 41.808 30.594 41.2853 30.594 40.688C30.594 40.176 30.4447 39.7173 30.146 39.312C29.8687 38.9067 29.1967 38.5227 28.13 38.16C26.466 37.5627 25.2287 36.8373 24.418 35.984C23.6073 35.1093 23.202 33.904 23.202 32.368C23.202 31.472 23.426 30.608 23.874 29.776C24.322 28.9227 25.0153 28.1867 25.954 27.568C26.914 26.9493 28.13 26.5227 29.602 26.288C28.386 25.8827 27.458 25.2747 26.818 24.464C26.178 23.6533 25.858 22.7893 25.858 21.872C25.858 20.5493 26.242 19.44 27.01 18.544C27.778 17.648 28.8127 16.9973 30.114 16.592H25.186L25.602 14.16L37.09 14.64L36.77 16.464C34.6367 16.464 32.9513 16.6667 31.714 17.072C30.4767 17.456 29.5913 18.0107 29.058 18.736C28.5247 19.4613 28.258 20.3467 28.258 21.392C28.258 22.032 28.4393 22.6507 28.802 23.248C29.1647 23.824 29.6873 24.304 30.37 24.688C31.0527 25.0507 31.8847 25.232 32.866 25.232C33.122 25.232 33.3887 25.2213 33.666 25.2C33.9433 25.1787 34.2847 25.1573 34.69 25.136L34.242 27.312H31.682C29.7407 27.312 28.2687 27.7387 27.266 28.592C26.2633 29.424 25.762 30.544 25.762 31.952C25.762 32.8053 26.0287 33.552 26.562 34.192C27.1167 34.8107 28.1193 35.3973 29.57 35.952C30.5087 36.2933 31.2127 36.6773 31.682 37.104C32.1513 37.5307 32.4607 37.968 32.61 38.416C32.7593 38.8853 32.834 39.3653 32.834 39.856C32.834 40.4747 32.674 41.1253 32.354 41.808C32.034 42.4907 31.4153 43.3547 30.498 44.4Z" fill="black"/>
</svg>
