<svg width="227" height="64" viewBox="0 0 227 64" fill="none" xmlns="http://www.w3.org/2000/svg">
<path d="M19.8795 25.68L19.6235 24.496C20.1569 24.0693 20.6795 23.7387 21.1915 23.504C21.7249 23.248 22.3435 23.0667 23.0475 22.96C23.7515 22.8533 24.6582 22.8 25.7675 22.8H36.9675L37.0955 25.104L32.9675 24.976L33.2235 33.5201C33.2662 34.5868 33.4475 35.3014 33.7675 35.6641C34.0875 36.0268 34.5569 36.208 35.1755 36.208C35.3889 36.208 35.6235 36.1868 35.8795 36.1441C36.1355 36.0801 36.3702 36.0053 36.5835 35.92L36.8395 36.7201C36.4555 37.2961 36.0395 37.7227 35.5915 38C35.1649 38.2773 34.6315 38.416 33.9915 38.416C32.8822 38.416 32.0609 38.0961 31.5275 37.4561C31.0155 36.7948 30.7595 35.8027 30.7595 34.48C30.7595 33.1573 30.7915 31.6533 30.8555 29.9681C30.9409 28.2614 31.0262 26.5867 31.1115 24.944H25.9595C25.9382 26.5653 25.9062 28.1868 25.8635 29.8081C25.8422 31.4294 25.7782 33.0187 25.6715 34.576C25.5649 35.9413 25.2342 36.9228 24.6795 37.5201C24.1249 38.1174 23.3782 38.416 22.4395 38.416C21.8635 38.416 21.3942 38.2773 21.0315 38C20.6689 37.7013 20.4875 37.3068 20.4875 36.8161C20.4875 36.4321 20.5409 36.1333 20.6475 35.92C20.7755 35.6853 20.9462 35.4827 21.1595 35.312C21.9702 35.1627 22.9089 35.0348 23.9755 34.9281C24.1462 33.2854 24.2635 31.6427 24.3275 30C24.4129 28.336 24.4769 26.672 24.5195 25.008L19.8795 25.68Z" fill="#FAFAFA"/>
</svg>
