<svg width="227" height="64" viewBox="0 0 227 64" fill="none" xmlns="http://www.w3.org/2000/svg">
<rect x="14" y="19" width="10" height="11" fill="#FF0000" fill-opacity="0.2"/>
<path d="M17.2539 27.198C17.2539 27.47 17.3219 27.6853 17.4579 27.844C17.6052 28.0027 17.8149 28.082 18.0869 28.082C18.6989 28.082 19.2882 27.759 19.8549 27.113C20.2176 26.705 20.5179 26.1723 20.7559 25.515C20.9939 24.8463 21.1129 24.1947 21.1129 23.56C21.1129 23.0613 21.0222 22.6873 20.8409 22.438C20.6709 22.1773 20.4386 22.047 20.1439 22.047C19.8266 22.047 19.4866 22.1717 19.1239 22.421C18.7612 22.659 18.3702 22.9933 17.9509 23.424L17.5939 25.005C17.4806 25.5717 17.3956 26.0137 17.3389 26.331C17.2822 26.637 17.2539 26.926 17.2539 27.198ZM17.1349 29.238C16.6476 29.238 16.2396 29.102 15.9109 28.83C15.5936 28.5467 15.4349 28.1273 15.4349 27.572C15.4349 27.1753 15.4746 26.7447 15.5539 26.28C15.6446 25.804 15.7466 25.3053 15.8599 24.784L17.1689 18.239L15.7409 18.069L15.8429 17.491L19.0899 16.59L19.3109 16.76L18.0869 22.625C18.5856 22.0017 19.1239 21.5143 19.7019 21.163C20.2799 20.8003 20.8126 20.619 21.2999 20.619C21.7759 20.619 22.1726 20.789 22.4899 21.129C22.8072 21.469 22.9659 22.0413 22.9659 22.846C22.9659 23.458 22.8526 24.07 22.6259 24.682C22.4106 25.294 22.1102 25.8777 21.7249 26.433C21.3509 26.977 20.9146 27.4587 20.4159 27.878C19.9172 28.2973 19.3846 28.6317 18.8179 28.881C18.2626 29.119 17.7016 29.238 17.1349 29.238Z" fill="#FF0000" fill-opacity="0.2"/>
<path d="M30.4163 21.232L23.4323 42.4H22.2563L19.3283 32.68H17.4563V31.504H20.7203L23.1683 39.904L28.5443 21.232H30.4163Z" fill="black"/>
<rect x="29" y="26" width="13" height="15" fill="#FF0000" fill-opacity="0.2"/>
<path d="M32.2172 36.136C32.2172 36.872 32.3372 37.416 32.5772 37.768C32.8332 38.104 33.1692 38.272 33.5852 38.272C33.9532 38.272 34.3612 38.136 34.8092 37.864C35.2572 37.576 35.7772 37.12 36.3692 36.496L37.7132 30.232C37.5052 30.12 37.2812 30.032 37.0412 29.968C36.8172 29.888 36.5852 29.848 36.3452 29.848C35.6732 29.848 34.9532 30.216 34.1852 30.952C33.8172 31.32 33.4812 31.792 33.1772 32.368C32.8732 32.928 32.6332 33.536 32.4572 34.192C32.2972 34.848 32.2172 35.496 32.2172 36.136ZM37.7132 40.336C37.2492 40.336 36.8652 40.192 36.5612 39.904C36.2572 39.6 36.1052 39.152 36.1052 38.56C36.1052 38.416 36.1052 38.28 36.1052 38.152C36.1212 38.008 36.1372 37.872 36.1532 37.744C35.4812 38.512 34.7772 39.136 34.0412 39.616C33.3052 40.096 32.6092 40.336 31.9532 40.336C31.3452 40.336 30.7932 40.104 30.2972 39.64C29.8012 39.16 29.5532 38.368 29.5532 37.264C29.5532 36.416 29.7132 35.56 30.0332 34.696C30.3532 33.832 30.7852 33.016 31.3292 32.248C31.8732 31.464 32.4812 30.768 33.1532 30.16C33.8252 29.536 34.5212 29.048 35.2412 28.696C35.9612 28.344 36.6492 28.168 37.3052 28.168C37.6252 28.168 37.9132 28.232 38.1692 28.36C38.4252 28.472 38.6732 28.64 38.9132 28.864L40.3772 28.024L40.7852 28.288L38.8652 36.712C38.7372 37.256 38.6732 37.656 38.6732 37.912C38.6732 38.248 38.8412 38.416 39.1772 38.416C39.4492 38.416 39.7532 38.272 40.0892 37.984C40.4412 37.68 40.8172 37.28 41.2172 36.784L41.8652 37.264C41.5612 37.744 41.1932 38.224 40.7612 38.704C40.3292 39.168 39.8572 39.56 39.3452 39.88C38.8332 40.184 38.2892 40.336 37.7132 40.336Z" fill="#FF0000" fill-opacity="0.2"/>
<rect x="29" y="21" width="13" height="2" fill="black"/>
</svg>
