<svg width="227" height="64" viewBox="0 0 227 64" fill="none" xmlns="http://www.w3.org/2000/svg">
<path d="M28.0023 31.224C27.3943 31.224 26.8823 31.016 26.4663 30.6C26.0503 30.184 25.8423 29.68 25.8423 29.088C25.8423 28.496 26.0503 27.984 26.4663 27.552C26.8823 27.12 27.3943 26.904 28.0023 26.904C28.6103 26.904 29.1223 27.12 29.5383 27.552C29.9543 27.984 30.1623 28.496 30.1623 29.088C30.1623 29.68 29.9543 30.184 29.5383 30.6C29.1223 31.016 28.6103 31.224 28.0023 31.224ZM28.0023 39.36C27.3943 39.36 26.8823 39.152 26.4663 38.736C26.0503 38.32 25.8423 37.816 25.8423 37.224C25.8423 36.632 26.0503 36.12 26.4663 35.688C26.8823 35.256 27.3943 35.04 28.0023 35.04C28.6103 35.04 29.1223 35.256 29.5383 35.688C29.9543 36.12 30.1623 36.632 30.1623 37.224C30.1623 37.816 29.9543 38.32 29.5383 38.736C29.1223 39.152 28.6103 39.36 28.0023 39.36Z" fill="black"/>
</svg>
