<svg width="227" height="64" viewBox="0 0 227 64" fill="none" xmlns="http://www.w3.org/2000/svg">
<path d="M24.5647 44.016L24.2447 43.76L26.1647 37.872C26.1007 35.4187 26.0047 33.2747 25.8767 31.44C25.7487 29.584 25.5673 27.8133 25.3327 26.128C25.2473 25.5093 25.1193 25.104 24.9487 24.912C24.778 24.72 24.5327 24.624 24.2127 24.624C23.9353 24.624 23.6473 24.6667 23.3487 24.752C23.0713 24.8373 22.7087 24.9653 22.2607 25.136L21.8447 24.304C22.6767 23.5787 23.3273 23.088 23.7967 22.832C24.2873 22.5547 24.8207 22.416 25.3967 22.416C26.0153 22.416 26.5167 22.6187 26.9007 23.024C27.2847 23.4293 27.5513 24.0693 27.7007 24.944C27.9353 26.416 28.0847 28.0907 28.1487 29.968C28.2127 31.8453 28.2447 33.7333 28.2447 35.632C29.3753 34.2667 30.3353 32.9333 31.1247 31.632C31.9353 30.3093 32.7033 28.9653 33.4287 27.6C33.4713 27.5147 33.514 27.44 33.5567 27.376C33.5993 27.312 33.6313 27.248 33.6527 27.184L33.4287 25.936C33.4073 25.7227 33.3753 25.4987 33.3327 25.264C33.3113 25.0293 33.3007 24.8373 33.3007 24.688C33.3007 23.8773 33.45 23.3013 33.7487 22.96C34.0687 22.5973 34.4953 22.416 35.0287 22.416C35.3273 22.416 35.5833 22.4693 35.7967 22.576C36.01 22.6613 36.1593 22.7467 36.2447 22.832C36.3513 23.0453 36.4047 23.344 36.4047 23.728C36.4047 24.2613 36.2767 24.8587 36.0207 25.52C35.786 26.16 35.3807 27.0133 34.8047 28.08C34.0153 29.5733 33.0127 31.152 31.7967 32.816C30.602 34.4587 29.3647 35.9733 28.0847 37.36L27.2527 43.536L24.5647 44.016Z" fill="#FAFAFA"/>
</svg>
