<svg width="227" height="64" viewBox="0 0 227 64" fill="none" xmlns="http://www.w3.org/2000/svg">
<path d="M35 28H22V43H35V28Z" fill="#39B8FF" fill-opacity="0.3"/>
<path d="M45 17H35V28H45V17Z" fill="#39B8FF" fill-opacity="0.3"/>
<path d="M25.2172 38.136C25.2172 38.872 25.3372 39.416 25.5772 39.768C25.8332 40.104 26.1692 40.272 26.5852 40.272C26.9532 40.272 27.3612 40.136 27.8092 39.864C28.2572 39.576 28.7772 39.12 29.3692 38.496L30.7132 32.232C30.5052 32.12 30.2812 32.032 30.0412 31.968C29.8172 31.888 29.5852 31.848 29.3452 31.848C28.6732 31.848 27.9532 32.216 27.1852 32.952C26.8172 33.32 26.4812 33.792 26.1772 34.368C25.8732 34.928 25.6332 35.536 25.4572 36.192C25.2972 36.848 25.2172 37.496 25.2172 38.136ZM30.7132 42.336C30.2492 42.336 29.8652 42.192 29.5612 41.904C29.2572 41.6 29.1052 41.152 29.1052 40.56C29.1052 40.416 29.1052 40.28 29.1052 40.152C29.1212 40.008 29.1372 39.872 29.1532 39.744C28.4812 40.512 27.7772 41.136 27.0412 41.616C26.3052 42.096 25.6092 42.336 24.9532 42.336C24.3452 42.336 23.7932 42.104 23.2972 41.64C22.8012 41.16 22.5532 40.368 22.5532 39.264C22.5532 38.416 22.7132 37.56 23.0332 36.696C23.3532 35.832 23.7852 35.016 24.3292 34.248C24.8732 33.464 25.4812 32.768 26.1532 32.16C26.8252 31.536 27.5212 31.048 28.2412 30.696C28.9612 30.344 29.6492 30.168 30.3052 30.168C30.6252 30.168 30.9132 30.232 31.1692 30.36C31.4252 30.472 31.6732 30.64 31.9132 30.864L33.3772 30.024L33.7852 30.288L31.8652 38.712C31.7372 39.256 31.6732 39.656 31.6732 39.912C31.6732 40.248 31.8412 40.416 32.1772 40.416C32.4492 40.416 32.7532 40.272 33.0892 39.984C33.4412 39.68 33.8172 39.28 34.2172 38.784L34.8652 39.264C34.5612 39.744 34.1932 40.224 33.7612 40.704C33.3292 41.168 32.8572 41.56 32.3452 41.88C31.8332 42.184 31.2892 42.336 30.7132 42.336Z" fill="#39B8FF" fill-opacity="0.7"/>
<path d="M38.2538 25.198C38.2538 25.47 38.3218 25.6853 38.4578 25.844C38.6051 26.0027 38.8148 26.082 39.0868 26.082C39.6988 26.082 40.2881 25.759 40.8548 25.113C41.2175 24.705 41.5178 24.1723 41.7558 23.515C41.9938 22.8463 42.1128 22.1947 42.1128 21.56C42.1128 21.0613 42.0221 20.6873 41.8408 20.438C41.6708 20.1773 41.4385 20.047 41.1438 20.047C40.8265 20.047 40.4865 20.1717 40.1238 20.421C39.7611 20.659 39.3701 20.9933 38.9508 21.424L38.5938 23.005C38.4805 23.5717 38.3955 24.0137 38.3388 24.331C38.2821 24.637 38.2538 24.926 38.2538 25.198ZM38.1348 27.238C37.6475 27.238 37.2395 27.102 36.9108 26.83C36.5935 26.5467 36.4348 26.1273 36.4348 25.572C36.4348 25.1753 36.4745 24.7447 36.5538 24.28C36.6445 23.804 36.7465 23.3053 36.8598 22.784L38.1688 16.239L36.7408 16.069L36.8428 15.491L40.0898 14.59L40.3108 14.76L39.0868 20.625C39.5855 20.0017 40.1238 19.5143 40.7018 19.163C41.2798 18.8003 41.8125 18.619 42.2998 18.619C42.7758 18.619 43.1725 18.789 43.4898 19.129C43.8071 19.469 43.9658 20.0413 43.9658 20.846C43.9658 21.458 43.8525 22.07 43.6258 22.682C43.4105 23.294 43.1101 23.8777 42.7248 24.433C42.3508 24.977 41.9145 25.4587 41.4158 25.878C40.9171 26.2973 40.3845 26.6317 39.8178 26.881C39.2625 27.119 38.7015 27.238 38.1348 27.238Z" fill="#39B8FF" fill-opacity="0.7"/>
</svg>
