<svg width="227" height="64" viewBox="0 0 227 64" fill="none" xmlns="http://www.w3.org/2000/svg">
<path d="M27.2729 38.416C26.3129 38.416 25.4275 38.2027 24.6169 37.776C23.8275 37.3493 23.1982 36.72 22.7289 35.888C22.2595 35.0347 22.0249 34 22.0249 32.784C22.0249 31.3333 22.2382 29.9893 22.6649 28.752C23.1129 27.4933 23.7102 26.3947 24.4569 25.456C25.2249 24.496 26.1102 23.7493 27.1129 23.216C28.1155 22.6827 29.1715 22.416 30.2809 22.416C31.7529 22.416 32.9689 22.896 33.9289 23.856C34.8889 24.816 35.3689 26.2027 35.3689 28.016C35.3689 29.4027 35.1555 30.7253 34.7289 31.984C34.3022 33.2213 33.7155 34.3307 32.9689 35.312C32.2222 36.272 31.3582 37.0293 30.3769 37.584C29.4169 38.1387 28.3822 38.416 27.2729 38.416ZM27.6249 37.136C28.3929 37.136 29.0862 36.8907 29.7049 36.4C30.3449 35.9093 30.8889 35.248 31.3369 34.416C31.8062 33.584 32.1582 32.656 32.3929 31.632C32.6489 30.608 32.7769 29.5627 32.7769 28.496C32.7769 26.768 32.5102 25.5413 31.9769 24.816C31.4435 24.0693 30.7609 23.696 29.9289 23.696C28.9475 23.696 28.0515 24.0907 27.2409 24.88C26.4515 25.6693 25.8222 26.7253 25.3529 28.048C24.8835 29.3493 24.6489 30.8 24.6489 32.4C24.6489 34.0853 24.9262 35.3013 25.4809 36.048C26.0569 36.7733 26.7715 37.136 27.6249 37.136Z" fill="black"/>
</svg>
