<svg width="227" height="64" viewBox="0 0 227 64" fill="none" xmlns="http://www.w3.org/2000/svg">
<path d="M23.3739 38.416C22.0299 38.416 20.9952 37.9467 20.2699 37.008C19.5659 36.0693 19.2139 34.7893 19.2139 33.168C19.2139 31.6533 19.4592 30.2133 19.9499 28.848C20.4619 27.4613 21.1872 26.224 22.1259 25.136C23.0859 24.0267 24.2272 23.152 25.5499 22.512L26.1259 23.28C24.6325 24.5387 23.5232 26.032 22.7979 27.76C22.0725 29.488 21.7099 31.2587 21.7099 33.072C21.7099 34.3307 21.8912 35.2587 22.2539 35.856C22.6165 36.432 23.1179 36.72 23.7579 36.72C24.4832 36.72 25.1232 36.4747 25.6779 35.984C26.2539 35.472 26.7339 34.7893 27.1179 33.936C27.5019 33.0827 27.7792 32.1333 27.9499 31.088L28.4939 27.568L31.1179 26.992L31.4059 27.344L30.3819 30.96C30.2965 31.3013 30.2219 31.664 30.1579 32.048C30.1152 32.4107 30.0939 32.7413 30.0939 33.04C30.0939 35.4933 30.8939 36.72 32.4939 36.72C33.2619 36.72 33.9659 36.368 34.6059 35.664C35.2459 34.9387 35.7579 33.9787 36.1419 32.784C36.5259 31.5893 36.7179 30.288 36.7179 28.88C36.7179 27.664 36.5899 26.6507 36.3339 25.84C36.0992 25.0293 35.6832 24.1547 35.0859 23.216L35.9499 22.512C36.9312 23.3013 37.7099 24.2613 38.2859 25.392C38.8619 26.5013 39.1499 27.92 39.1499 29.648C39.1499 30.7573 38.9579 31.8453 38.5739 32.912C38.2112 33.9573 37.6992 34.896 37.0379 35.728C36.3765 36.5387 35.6192 37.1893 34.7659 37.68C33.9125 38.1707 33.0165 38.416 32.0779 38.416C31.0539 38.416 30.2325 38.0427 29.6139 37.296C29.0165 36.528 28.6859 35.3333 28.6219 33.712C28.0885 35.056 27.3739 36.176 26.4779 37.072C25.6032 37.968 24.5685 38.416 23.3739 38.416Z" fill="black"/>
</svg>
