<svg width="227" height="64" viewBox="0 0 227 64" fill="none" xmlns="http://www.w3.org/2000/svg">
<path d="M33.562 38.416C32.9007 38.416 32.41 38.1173 32.09 37.52C31.7913 36.9227 31.5887 36.1227 31.482 35.12L30.362 24.752C29.0393 26.992 27.738 29.2427 26.458 31.504C25.1993 33.7653 23.962 36.1013 22.746 38.512L20.346 38L20.122 37.648C21.722 34.8533 23.354 32.144 25.018 29.52C26.682 26.896 28.346 24.2933 30.01 21.712L29.914 20.752C29.7647 19.2587 29.402 18.224 28.826 17.648C28.2713 17.072 27.578 16.784 26.746 16.784C26.2127 16.784 25.658 16.848 25.082 16.976C24.506 17.0827 23.8873 17.2853 23.226 17.584L22.778 16.368C23.61 15.6213 24.3887 15.0987 25.114 14.8C25.8607 14.48 26.586 14.32 27.29 14.32C28.4847 14.32 29.3913 14.8213 30.01 15.824C30.6287 16.8267 31.098 18.5547 31.418 21.008L33.05 33.392C33.178 34.3733 33.3593 35.056 33.594 35.44C33.8287 35.8027 34.1487 35.984 34.554 35.984C34.8527 35.984 35.1407 35.9093 35.418 35.76C35.7167 35.6107 36.0367 35.4187 36.378 35.184L36.89 35.92C36.314 36.816 35.7487 37.456 35.194 37.84C34.6607 38.224 34.1167 38.416 33.562 38.416Z" fill="black"/>
</svg>
