<svg width="227" height="64" viewBox="0 0 227 64" fill="none" xmlns="http://www.w3.org/2000/svg">
<path d="M23.1726 33.104C23.1726 35.1733 23.6953 36.208 24.7406 36.208C25.4233 36.208 26.202 35.8133 27.0766 35.024C27.9726 34.2347 28.9966 33.0293 30.1486 31.408L29.7006 27.408C29.5513 26.0853 29.3166 25.1787 28.9966 24.688C28.698 24.176 28.2926 23.92 27.7806 23.92C27.1406 23.92 26.5433 24.24 25.9886 24.88C25.434 25.4987 24.9433 26.2987 24.5166 27.28C24.09 28.24 23.7593 29.2427 23.5246 30.288C23.29 31.3333 23.1726 32.272 23.1726 33.104ZM23.7486 38.416C22.7033 38.416 21.9033 38.0427 21.3486 37.296C20.794 36.5493 20.5166 35.4827 20.5166 34.096C20.5166 33.136 20.6446 32.1227 20.9006 31.056C21.1566 29.9893 21.5193 28.944 21.9886 27.92C22.458 26.896 23.0126 25.968 23.6526 25.136C24.2926 24.304 24.9966 23.6427 25.7646 23.152C26.554 22.6613 27.386 22.416 28.2606 22.416C29.2206 22.416 29.9993 22.7147 30.5966 23.312C31.194 23.888 31.5886 24.9333 31.7806 26.448L32.0366 28.592L35.1406 22.32L37.4766 23.344V23.6L32.3246 30.672L32.7406 34C32.8473 34.9173 32.9966 35.5253 33.1886 35.824C33.3806 36.1013 33.7006 36.24 34.1486 36.24C34.7033 36.24 35.354 35.9093 36.1006 35.248L36.6126 36.016C35.3326 37.616 34.074 38.416 32.8366 38.416C32.1326 38.416 31.61 38.2027 31.2686 37.776C30.9486 37.328 30.7353 36.592 30.6286 35.568L30.3406 32.944C29.4446 34.352 28.6126 35.4507 27.8446 36.24C27.0766 37.0293 26.3513 37.5947 25.6686 37.936C25.0073 38.256 24.3673 38.416 23.7486 38.416Z" fill="black"/>
</svg>
