<svg width="227" height="64" viewBox="0 0 227 64" fill="none" xmlns="http://www.w3.org/2000/svg">
<path d="M23.8197 39.768L22.6917 39L33.4197 23.184L34.5477 23.952L23.8197 39.768ZM21.7077 28.44C21.7077 29.544 21.7637 30.392 21.8757 30.984C21.9877 31.576 22.1397 31.984 22.3317 32.208C22.5237 32.416 22.7317 32.52 22.9557 32.52C23.1957 32.52 23.4117 32.408 23.6037 32.184C23.7957 31.96 23.9477 31.56 24.0597 30.984C24.1717 30.392 24.2277 29.544 24.2277 28.44C24.2277 27.32 24.1717 26.472 24.0597 25.896C23.9477 25.304 23.7957 24.896 23.6037 24.672C23.4117 24.448 23.1957 24.336 22.9557 24.336C22.7317 24.336 22.5237 24.448 22.3317 24.672C22.1397 24.88 21.9877 25.28 21.8757 25.872C21.7637 26.464 21.7077 27.32 21.7077 28.44ZM22.9557 23.52C23.5957 23.52 24.1957 23.696 24.7557 24.048C25.3157 24.384 25.7637 24.92 26.0997 25.656C26.4517 26.376 26.6277 27.304 26.6277 28.44C26.6277 29.56 26.4517 30.48 26.0997 31.2C25.7637 31.92 25.3157 32.456 24.7557 32.808C24.1957 33.144 23.5957 33.312 22.9557 33.312C22.3157 33.312 21.7157 33.144 21.1557 32.808C20.5957 32.456 20.1477 31.92 19.8117 31.2C19.4757 30.48 19.3077 29.56 19.3077 28.44C19.3077 27.304 19.4757 26.376 19.8117 25.656C20.1477 24.92 20.5957 24.384 21.1557 24.048C21.7157 23.696 22.3157 23.52 22.9557 23.52ZM32.7957 34.344C32.7957 35.448 32.8517 36.296 32.9637 36.888C33.0757 37.48 33.2277 37.888 33.4197 38.112C33.6117 38.32 33.8197 38.424 34.0437 38.424C34.2837 38.424 34.4997 38.312 34.6917 38.088C34.8837 37.864 35.0357 37.464 35.1477 36.888C35.2597 36.296 35.3157 35.448 35.3157 34.344C35.3157 33.224 35.2597 32.376 35.1477 31.8C35.0357 31.208 34.8837 30.8 34.6917 30.576C34.4997 30.352 34.2837 30.24 34.0437 30.24C33.8197 30.24 33.6117 30.352 33.4197 30.576C33.2277 30.784 33.0757 31.184 32.9637 31.776C32.8517 32.368 32.7957 33.224 32.7957 34.344ZM34.0437 29.424C34.6837 29.424 35.2837 29.6 35.8437 29.952C36.4037 30.288 36.8517 30.824 37.1877 31.56C37.5397 32.28 37.7157 33.208 37.7157 34.344C37.7157 35.464 37.5397 36.384 37.1877 37.104C36.8517 37.824 36.4037 38.36 35.8437 38.712C35.2837 39.048 34.6837 39.216 34.0437 39.216C33.4037 39.216 32.8037 39.048 32.2437 38.712C31.6837 38.36 31.2357 37.824 30.8997 37.104C30.5637 36.384 30.3957 35.464 30.3957 34.344C30.3957 33.208 30.5637 32.28 30.8997 31.56C31.2357 30.824 31.6837 30.288 32.2437 29.952C32.8037 29.6 33.4037 29.424 34.0437 29.424Z" fill="black"/>
</svg>
