<svg width="227" height="64" viewBox="0 0 227 64" fill="none" xmlns="http://www.w3.org/2000/svg">
<path d="M23.3121 25.648V24.496C23.9308 24.0693 24.5281 23.7387 25.1041 23.504C25.6801 23.2693 26.3415 23.0987 27.0881 22.992C27.8561 22.8853 28.7948 22.832 29.9041 22.832H36.4001L36.0801 25.072L30.9281 24.944C30.5655 26.928 30.2775 28.5173 30.0641 29.712C29.8721 30.9067 29.7228 31.8347 29.6161 32.496C29.5308 33.1573 29.4775 33.6587 29.4561 34C29.4348 34.32 29.4241 34.608 29.4241 34.864C29.4241 35.7813 29.7441 36.24 30.3841 36.24C30.6828 36.24 31.0028 36.1547 31.3441 35.984C31.6855 35.8133 32.0268 35.5893 32.3681 35.312L32.8801 36.08C31.6428 37.6373 30.3735 38.416 29.0721 38.416C28.3681 38.416 27.8135 38.2027 27.4081 37.776C27.0028 37.3493 26.8001 36.7733 26.8001 36.048C26.8001 35.792 26.8215 35.4507 26.8641 35.024C26.9281 34.576 27.0348 33.9573 27.1841 33.168C27.3548 32.3787 27.6001 31.3227 27.9201 30C28.2615 28.656 28.7095 26.96 29.2641 24.912L23.3121 25.648Z" fill="black"/>
</svg>
