<svg width="227" height="64" viewBox="0 0 227 64" fill="none" xmlns="http://www.w3.org/2000/svg">
<path d="M16.92 40.312C16.088 40.312 15.424 40.088 14.928 39.64C14.432 39.192 14.184 38.504 14.184 37.576C14.184 37.272 14.184 36.976 14.184 36.688C14.2 36.384 14.208 36 14.208 35.536V29.872H12.216V28.816L14.352 28.552L14.976 25.336H16.416L16.272 28.6H19.512V29.872H16.248V37.312C16.248 37.92 16.368 38.368 16.608 38.656C16.848 38.928 17.168 39.064 17.568 39.064C17.84 39.064 18.096 39.008 18.336 38.896C18.592 38.784 18.872 38.624 19.176 38.416L19.752 39.04C19.096 39.888 18.152 40.312 16.92 40.312ZM29.7887 40.24C29.2127 40.24 28.7327 40.072 28.3487 39.736C27.9647 39.4 27.7247 38.952 27.6287 38.392C26.9727 39.032 26.3967 39.512 25.9007 39.832C25.4047 40.152 24.8047 40.312 24.1007 40.312C23.2207 40.312 22.4607 40.064 21.8207 39.568C21.1967 39.056 20.8847 38.304 20.8847 37.312C20.8847 36.848 20.9887 36.416 21.1967 36.016C21.4207 35.616 21.8207 35.224 22.3967 34.84C22.9727 34.456 23.7967 34.072 24.8687 33.688C25.2367 33.56 25.6607 33.424 26.1407 33.28C26.6207 33.136 27.1007 33.008 27.5807 32.896V32.296C27.5807 31.128 27.4047 30.352 27.0527 29.968C26.7007 29.584 26.1247 29.392 25.3247 29.392C25.1487 29.392 24.9487 29.4 24.7247 29.416C24.5167 29.432 24.2847 29.472 24.0287 29.536L23.5727 31.096C23.3487 31.864 22.9327 32.248 22.3247 32.248C21.6527 32.248 21.2767 31.92 21.1967 31.264C21.4207 30.352 21.9487 29.632 22.7807 29.104C23.6287 28.56 24.6607 28.288 25.8767 28.288C27.1407 28.288 28.0767 28.608 28.6847 29.248C29.2927 29.872 29.5967 30.944 29.5967 32.464V37.576C29.5967 38.088 29.6767 38.456 29.8367 38.68C29.9967 38.888 30.2047 38.992 30.4607 38.992C30.6687 38.992 30.8447 38.944 30.9887 38.848C31.1327 38.752 31.2687 38.624 31.3967 38.464L31.8767 38.992C31.5887 39.456 31.2687 39.784 30.9167 39.976C30.5807 40.152 30.2047 40.24 29.7887 40.24ZM23.0207 36.952C23.0207 37.592 23.2047 38.048 23.5727 38.32C23.9407 38.592 24.3967 38.728 24.9407 38.728C25.1807 38.728 25.4047 38.696 25.6127 38.632C25.8367 38.568 26.1007 38.448 26.4047 38.272C26.7087 38.08 27.1007 37.808 27.5807 37.456V33.784C27.1647 33.896 26.7567 34.024 26.3567 34.168C25.9567 34.296 25.6287 34.408 25.3727 34.504C24.6847 34.776 24.1727 35.056 23.8367 35.344C23.5007 35.632 23.2767 35.912 23.1647 36.184C23.0687 36.456 23.0207 36.712 23.0207 36.952ZM32.8584 40V39.136L34.6344 38.8C34.6504 38.192 34.6584 37.536 34.6584 36.832C34.6744 36.128 34.6824 35.504 34.6824 34.96V33.808C34.6824 33.152 34.6744 32.608 34.6584 32.176C34.6584 31.744 34.6424 31.288 34.6104 30.808L32.7144 30.592V29.752L36.0744 28.288L36.4344 28.528L36.6264 30.448C37.2184 29.808 37.8984 29.288 38.6664 28.888C39.4344 28.488 40.1864 28.288 40.9224 28.288C41.9624 28.288 42.7304 28.64 43.2264 29.344C43.7384 30.032 43.9944 31.16 43.9944 32.728V34.96C43.9944 35.504 43.9944 36.128 43.9944 36.832C44.0104 37.536 44.0264 38.192 44.0424 38.8L45.7224 39.136V40H40.1544V39.136L41.9304 38.8C41.9464 38.208 41.9544 37.56 41.9544 36.856C41.9704 36.136 41.9784 35.504 41.9784 34.96V32.92C41.9784 31.816 41.8184 31.056 41.4984 30.64C41.1944 30.224 40.6904 30.016 39.9864 30.016C39.4424 30.016 38.9144 30.128 38.4024 30.352C37.8904 30.576 37.3304 30.944 36.7224 31.456V34.96C36.7224 35.488 36.7224 36.112 36.7224 36.832C36.7384 37.536 36.7544 38.192 36.7704 38.8L38.4264 39.136V40H32.8584Z" fill="black"/>
<rect x="49" y="26" width="13" height="15" fill="#FF0000" fill-opacity="0.2"/>
<path d="M52.2172 36.136C52.2172 36.872 52.3372 37.416 52.5772 37.768C52.8332 38.104 53.1692 38.272 53.5852 38.272C53.9532 38.272 54.3612 38.136 54.8092 37.864C55.2572 37.576 55.7772 37.12 56.3692 36.496L57.7132 30.232C57.5052 30.12 57.2812 30.032 57.0412 29.968C56.8172 29.888 56.5852 29.848 56.3452 29.848C55.6732 29.848 54.9532 30.216 54.1852 30.952C53.8172 31.32 53.4812 31.792 53.1772 32.368C52.8732 32.928 52.6332 33.536 52.4572 34.192C52.2972 34.848 52.2172 35.496 52.2172 36.136ZM57.7132 40.336C57.2492 40.336 56.8652 40.192 56.5612 39.904C56.2572 39.6 56.1052 39.152 56.1052 38.56C56.1052 38.416 56.1052 38.28 56.1052 38.152C56.1212 38.008 56.1372 37.872 56.1532 37.744C55.4812 38.512 54.7772 39.136 54.0412 39.616C53.3052 40.096 52.6092 40.336 51.9532 40.336C51.3452 40.336 50.7932 40.104 50.2972 39.64C49.8012 39.16 49.5532 38.368 49.5532 37.264C49.5532 36.416 49.7132 35.56 50.0332 34.696C50.3532 33.832 50.7852 33.016 51.3292 32.248C51.8732 31.464 52.4812 30.768 53.1532 30.16C53.8252 29.536 54.5212 29.048 55.2412 28.696C55.9612 28.344 56.6492 28.168 57.3052 28.168C57.6252 28.168 57.9132 28.232 58.1692 28.36C58.4252 28.472 58.6732 28.64 58.9132 28.864L60.3772 28.024L60.7852 28.288L58.8652 36.712C58.7372 37.256 58.6732 37.656 58.6732 37.912C58.6732 38.248 58.8412 38.416 59.1772 38.416C59.4492 38.416 59.7532 38.272 60.0892 37.984C60.4412 37.68 60.8172 37.28 61.2172 36.784L61.8652 37.264C61.5612 37.744 61.1932 38.224 60.7612 38.704C60.3292 39.168 59.8572 39.56 59.3452 39.88C58.8332 40.184 58.2892 40.336 57.7132 40.336Z" fill="#FF0000" fill-opacity="0.2"/>
</svg>
