<svg width="227" height="64" viewBox="0 0 227 64" fill="none" xmlns="http://www.w3.org/2000/svg">
<path d="M26.0688 38C26.0474 35.5253 25.9834 33.36 25.8768 31.504C25.7701 29.6267 25.5994 27.8347 25.3648 26.128C25.2794 25.5093 25.1514 25.104 24.9808 24.912C24.8101 24.72 24.5541 24.624 24.2128 24.624C23.9354 24.624 23.6474 24.6667 23.3488 24.752C23.0714 24.8373 22.7088 24.9653 22.2608 25.136L21.8448 24.304C22.6768 23.5787 23.3274 23.088 23.7968 22.832C24.2874 22.5547 24.8208 22.416 25.3968 22.416C26.0154 22.416 26.5168 22.6187 26.9008 23.024C27.2848 23.4293 27.5514 24.0693 27.7008 24.944C27.9354 26.3947 28.0848 28.048 28.1488 29.904C28.2341 31.7387 28.2554 33.6053 28.2128 35.504C29.3648 34.1813 30.3568 32.88 31.1888 31.6C32.0421 30.32 32.8314 29.0187 33.5568 27.696C33.5994 27.6533 33.6314 27.6107 33.6528 27.568C33.6741 27.504 33.6954 27.4507 33.7168 27.408L33.4288 25.744C33.4074 25.5307 33.3754 25.3067 33.3328 25.072C33.3114 24.8373 33.3008 24.6453 33.3008 24.496C33.3008 23.6853 33.4501 23.1093 33.7488 22.768C34.0688 22.4053 34.4954 22.224 35.0288 22.224C35.3274 22.224 35.5834 22.2773 35.7968 22.384C36.0101 22.4693 36.1594 22.5547 36.2448 22.64C36.3514 22.8533 36.4048 23.1413 36.4048 23.504C36.4048 24.0587 36.2768 24.6987 36.0208 25.424C35.7861 26.128 35.3808 27.0133 34.8048 28.08C33.9088 29.744 32.7994 31.4613 31.4768 33.232C30.1541 35.0027 28.7568 36.6133 27.2848 38.064L26.2288 38.16L26.0688 38Z" fill="black"/>
</svg>
