<svg width="227" height="64" viewBox="0 0 227 64" fill="none" xmlns="http://www.w3.org/2000/svg">
<path d="M24.5648 44.016L24.2448 43.76L26.1648 37.872C26.1008 35.4187 26.0048 33.2747 25.8768 31.44C25.7488 29.584 25.5674 27.8133 25.3328 26.128C25.2474 25.5093 25.1194 25.104 24.9488 24.912C24.7781 24.72 24.5328 24.624 24.2128 24.624C23.9354 24.624 23.6474 24.6667 23.3488 24.752C23.0714 24.8373 22.7088 24.9653 22.2608 25.136L21.8448 24.304C22.6768 23.5787 23.3274 23.088 23.7968 22.832C24.2874 22.5547 24.8208 22.416 25.3968 22.416C26.0154 22.416 26.5168 22.6187 26.9008 23.024C27.2848 23.4293 27.5514 24.0693 27.7008 24.944C27.9354 26.416 28.0848 28.0907 28.1488 29.968C28.2128 31.8453 28.2448 33.7333 28.2448 35.632C29.3754 34.2667 30.3354 32.9333 31.1248 31.632C31.9354 30.3093 32.7034 28.9653 33.4288 27.6C33.4714 27.5147 33.5141 27.44 33.5568 27.376C33.5994 27.312 33.6314 27.248 33.6528 27.184L33.4288 25.936C33.4074 25.7227 33.3754 25.4987 33.3328 25.264C33.3114 25.0293 33.3008 24.8373 33.3008 24.688C33.3008 23.8773 33.4501 23.3013 33.7488 22.96C34.0688 22.5973 34.4954 22.416 35.0288 22.416C35.3274 22.416 35.5834 22.4693 35.7968 22.576C36.0101 22.6613 36.1594 22.7467 36.2448 22.832C36.3514 23.0453 36.4048 23.344 36.4048 23.728C36.4048 24.2613 36.2768 24.8587 36.0208 25.52C35.7861 26.16 35.3808 27.0133 34.8048 28.08C34.0154 29.5733 33.0128 31.152 31.7968 32.816C30.6021 34.4587 29.3648 35.9733 28.0848 37.36L27.2528 43.536L24.5648 44.016Z" fill="black"/>
</svg>
