<svg width="24" height="24" viewBox="0 0 24 24" fill="none" xmlns="http://www.w3.org/2000/svg">
<path d="M5.20513 8.39754L5 7.41188C5.42735 7.05669 5.84615 6.78142 6.25641 6.58607C6.68376 6.37295 7.17949 6.22199 7.74359 6.1332C8.30769 6.0444 9.03419 6 9.92308 6H18.8974L19 7.91803L15.6923 7.81147L15.8974 14.9242C15.9316 15.8122 16.0769 16.4071 16.3333 16.709C16.5897 17.0109 16.9658 17.1619 17.4615 17.1619C17.6325 17.1619 17.8205 17.1441 18.0256 17.1086C18.2308 17.0553 18.4188 16.9932 18.5897 16.9221L18.7949 17.5881C18.4872 18.0676 18.1538 18.4228 17.7949 18.6537C17.453 18.8846 17.0256 19 16.5128 19C15.6239 19 14.9658 18.7336 14.5385 18.2008C14.1282 17.6503 13.9231 16.8245 13.9231 15.7234C13.9231 14.6223 13.9487 13.3702 14 11.9672C14.0684 10.5464 14.1368 9.15232 14.2051 7.78484H10.0769C10.0598 9.13456 10.0342 10.4843 10 11.834C9.98291 13.1837 9.93162 14.5068 9.84615 15.8033C9.76068 16.9399 9.49573 17.7568 9.05128 18.2541C8.60684 18.7514 8.00855 19 7.25641 19C6.79487 19 6.4188 18.8846 6.12821 18.6537C5.83761 18.4051 5.69231 18.0765 5.69231 17.668C5.69231 17.3484 5.73504 17.0997 5.82051 16.9221C5.92308 16.7268 6.05983 16.5581 6.23077 16.416C6.88034 16.2917 7.63248 16.1851 8.48718 16.0963C8.62393 14.7288 8.71795 13.3613 8.76923 11.9939C8.83761 10.6086 8.88889 9.22336 8.92308 7.83811L5.20513 8.39754Z" fill="black"/>
</svg>
