<svg width="24" height="24" viewBox="0 0 24 24" fill="none" xmlns="http://www.w3.org/2000/svg">
<path d="M17.5152 20.9947C17.2189 20.9947 16.9655 20.8991 16.7552 20.7079C16.5544 20.5167 16.454 20.2776 16.454 19.9908C16.454 19.704 16.5544 19.465 16.7552 19.2738C16.9655 19.073 17.2189 18.9727 17.5152 18.9727C17.8212 18.9727 18.0745 19.073 18.2753 19.2738C18.4761 19.465 18.5764 19.704 18.5764 19.9908C18.5764 20.2776 18.4761 20.5167 18.2753 20.7079C18.0745 20.8991 17.8212 20.9947 17.5152 20.9947ZM17.5152 15.66C17.2189 15.66 16.9655 15.5644 16.7552 15.3732C16.5544 15.1724 16.454 14.9286 16.454 14.6418C16.454 14.355 16.5544 14.116 16.7552 13.9248C16.9655 13.724 17.2189 13.6237 17.5152 13.6237C17.8212 13.6237 18.0745 13.724 18.2753 13.9248C18.4761 14.116 18.5764 14.355 18.5764 14.6418C18.5764 14.9286 18.4761 15.1724 18.2753 15.3732C18.0745 15.5644 17.8212 15.66 17.5152 15.66ZM21 17.9401H14.0448V16.6782H21V17.9401Z" fill="black"/>
<path d="M8.922 20.6649L6.48411 18.227L4.04623 20.6649L3.14278 19.7471L5.58066 17.3092L3.14278 14.8713L4.04623 13.9679L6.48411 16.4057L8.922 13.9679L9.83979 14.8713L7.4019 17.3092L9.83979 19.7471L8.922 20.6649Z" fill="black"/>
<path d="M5.82444 9.8775V6.90902H3.0137V5.64705H5.82444V2.75027H7.14377V5.64705H9.96884V6.90902H7.14377V9.8775H5.82444Z" fill="black"/>
<path d="M16.2103 7.03039V5.73975H19.9245V7.03039H16.2103Z" fill="black"/>
</svg>
