<svg width="227" height="64" viewBox="0 0 227 64" fill="none" xmlns="http://www.w3.org/2000/svg">
<rect x="78" y="26" width="14" height="15" fill="#FF0000" fill-opacity="0.2"/>
<path d="M82.7408 37.456C82.7408 37.84 82.8368 38.144 83.0288 38.368C83.2368 38.592 83.5328 38.704 83.9168 38.704C84.7808 38.704 85.6128 38.248 86.4128 37.336C86.9248 36.76 87.3488 36.008 87.6848 35.08C88.0208 34.136 88.1888 33.216 88.1888 32.32C88.1888 31.616 88.0608 31.088 87.8048 30.736C87.5648 30.368 87.2368 30.184 86.8208 30.184C86.3728 30.184 85.8928 30.36 85.3808 30.712C84.8688 31.048 84.3168 31.52 83.7248 32.128L83.2208 34.36C83.0608 35.16 82.9408 35.784 82.8608 36.232C82.7808 36.664 82.7408 37.072 82.7408 37.456ZM82.5728 40.336C81.8848 40.336 81.3088 40.144 80.8448 39.76C80.3968 39.36 80.1728 38.768 80.1728 37.984C80.1728 37.424 80.2288 36.816 80.3408 36.16C80.4688 35.488 80.6128 34.784 80.7728 34.048L82.6208 24.808L80.6048 24.568L80.7488 23.752L85.3328 22.48L85.6448 22.72L83.9168 31C84.6208 30.12 85.3808 29.432 86.1968 28.936C87.0128 28.424 87.7648 28.168 88.4528 28.168C89.1248 28.168 89.6848 28.408 90.1328 28.888C90.5808 29.368 90.8048 30.176 90.8048 31.312C90.8048 32.176 90.6448 33.04 90.3248 33.904C90.0208 34.768 89.5968 35.592 89.0528 36.376C88.5248 37.144 87.9088 37.824 87.2048 38.416C86.5008 39.008 85.7488 39.48 84.9488 39.832C84.1648 40.168 83.3728 40.336 82.5728 40.336Z" fill="#FF0000" fill-opacity="0.2"/>
<path d="M26.96 40V39.136L28.736 38.8C28.752 38.192 28.76 37.536 28.76 36.832C28.776 36.128 28.784 35.504 28.784 34.96V33.808C28.784 33.152 28.776 32.608 28.76 32.176C28.76 31.744 28.744 31.288 28.712 30.808L26.816 30.592V29.752L30.176 28.288L30.536 28.528L30.728 30.472C31.288 29.832 31.944 29.312 32.696 28.912C33.448 28.496 34.192 28.288 34.928 28.288C35.68 28.288 36.288 28.464 36.752 28.816C37.232 29.168 37.576 29.744 37.784 30.544C38.392 29.792 39.072 29.232 39.824 28.864C40.576 28.48 41.344 28.288 42.128 28.288C43.104 28.288 43.856 28.616 44.384 29.272C44.928 29.928 45.2 31 45.2 32.488V34.96C45.2 35.504 45.2 36.128 45.2 36.832C45.216 37.536 45.232 38.192 45.248 38.8L46.928 39.136V40H41.36V39.136L43.136 38.8C43.152 38.208 43.16 37.56 43.16 36.856C43.176 36.136 43.184 35.504 43.184 34.96V32.872C43.184 31.752 43.024 31 42.704 30.616C42.384 30.216 41.872 30.016 41.168 30.016C40.672 30.016 40.16 30.128 39.632 30.352C39.12 30.576 38.56 30.968 37.952 31.528C37.968 31.704 37.976 31.896 37.976 32.104C37.992 32.296 38 32.504 38 32.728V34.96C38 35.504 38 36.128 38 36.832C38.016 37.536 38.032 38.192 38.048 38.8L39.728 39.136V40H34.16V39.136L35.936 38.8C35.952 38.208 35.96 37.56 35.96 36.856C35.976 36.136 35.984 35.504 35.984 34.96V32.92C35.984 31.832 35.832 31.08 35.528 30.664C35.224 30.232 34.72 30.016 34.016 30.016C33.472 30.016 32.952 30.128 32.456 30.352C31.96 30.576 31.416 30.944 30.824 31.456V34.96C30.824 35.488 30.824 36.112 30.824 36.832C30.84 37.536 30.856 38.192 30.872 38.8L32.528 39.136V40H26.96ZM54.2088 40.312C53.2808 40.312 52.3928 40.096 51.5448 39.664C50.7128 39.216 50.0328 38.552 49.5048 37.672C48.9768 36.776 48.7128 35.672 48.7128 34.36C48.7128 33.032 48.9768 31.92 49.5048 31.024C50.0328 30.112 50.7128 29.432 51.5448 28.984C52.3928 28.52 53.2808 28.288 54.2088 28.288C55.1368 28.288 56.0168 28.52 56.8488 28.984C57.6968 29.432 58.3848 30.112 58.9128 31.024C59.4568 31.92 59.7288 33.032 59.7288 34.36C59.7288 35.672 59.4568 36.776 58.9128 37.672C58.3848 38.552 57.6968 39.216 56.8488 39.664C56.0168 40.096 55.1368 40.312 54.2088 40.312ZM54.2088 39.232C55.2488 39.232 56.0488 38.824 56.6088 38.008C57.1688 37.176 57.4488 35.96 57.4488 34.36C57.4488 32.744 57.1688 31.512 56.6088 30.664C56.0488 29.816 55.2488 29.392 54.2088 29.392C53.1688 29.392 52.3688 29.816 51.8088 30.664C51.2648 31.512 50.9928 32.744 50.9928 34.36C50.9928 35.96 51.2648 37.176 51.8088 38.008C52.3688 38.824 53.1688 39.232 54.2088 39.232ZM64.0447 34.36C64.0447 35.928 64.3567 37.088 64.9807 37.84C65.6207 38.576 66.4207 38.944 67.3807 38.944C67.9087 38.944 68.3727 38.84 68.7727 38.632C69.1887 38.408 69.6207 38.048 70.0687 37.552V30.904C69.5247 30.424 69.0367 30.096 68.6047 29.92C68.1727 29.744 67.7567 29.656 67.3567 29.656C66.7647 29.656 66.2127 29.824 65.7007 30.16C65.2047 30.48 64.8047 30.992 64.5007 31.696C64.1967 32.384 64.0447 33.272 64.0447 34.36ZM70.3087 40.24L70.1407 38.584C69.7247 39.128 69.2447 39.552 68.7007 39.856C68.1727 40.16 67.5327 40.312 66.7807 40.312C65.8047 40.312 64.9487 40.064 64.2127 39.568C63.4767 39.072 62.9007 38.384 62.4847 37.504C62.0847 36.608 61.8847 35.576 61.8847 34.408C61.8847 33.176 62.1087 32.104 62.5567 31.192C63.0047 30.28 63.6127 29.568 64.3807 29.056C65.1487 28.544 66.0207 28.288 66.9967 28.288C67.5567 28.288 68.0927 28.4 68.6047 28.624C69.1327 28.848 69.6447 29.256 70.1407 29.848V24.424L68.1007 24.184V23.344L71.8447 22.264L72.1807 22.456L72.0847 25.864V38.848L74.0287 39.136V40L70.3087 40.24Z" fill="black"/>
<rect x="10" y="26" width="13" height="15" fill="#FF0000" fill-opacity="0.2"/>
<path d="M13.2172 36.136C13.2172 36.872 13.3372 37.416 13.5772 37.768C13.8332 38.104 14.1692 38.272 14.5852 38.272C14.9532 38.272 15.3612 38.136 15.8092 37.864C16.2572 37.576 16.7772 37.12 17.3692 36.496L18.7132 30.232C18.5052 30.12 18.2812 30.032 18.0412 29.968C17.8172 29.888 17.5852 29.848 17.3452 29.848C16.6732 29.848 15.9532 30.216 15.1852 30.952C14.8172 31.32 14.4812 31.792 14.1772 32.368C13.8732 32.928 13.6332 33.536 13.4572 34.192C13.2972 34.848 13.2172 35.496 13.2172 36.136ZM18.7132 40.336C18.2492 40.336 17.8652 40.192 17.5612 39.904C17.2572 39.6 17.1052 39.152 17.1052 38.56C17.1052 38.416 17.1052 38.28 17.1052 38.152C17.1212 38.008 17.1372 37.872 17.1532 37.744C16.4812 38.512 15.7772 39.136 15.0412 39.616C14.3052 40.096 13.6092 40.336 12.9532 40.336C12.3452 40.336 11.7932 40.104 11.2972 39.64C10.8012 39.16 10.5532 38.368 10.5532 37.264C10.5532 36.416 10.7132 35.56 11.0332 34.696C11.3532 33.832 11.7852 33.016 12.3292 32.248C12.8732 31.464 13.4812 30.768 14.1532 30.16C14.8252 29.536 15.5212 29.048 16.2412 28.696C16.9612 28.344 17.6492 28.168 18.3052 28.168C18.6252 28.168 18.9132 28.232 19.1692 28.36C19.4252 28.472 19.6732 28.64 19.9132 28.864L21.3772 28.024L21.7852 28.288L19.8652 36.712C19.7372 37.256 19.6732 37.656 19.6732 37.912C19.6732 38.248 19.8412 38.416 20.1772 38.416C20.4492 38.416 20.7532 38.272 21.0892 37.984C21.4412 37.68 21.8172 37.28 22.2172 36.784L22.8652 37.264C22.5612 37.744 22.1932 38.224 21.7612 38.704C21.3292 39.168 20.8572 39.56 20.3452 39.88C19.8332 40.184 19.2892 40.336 18.7132 40.336Z" fill="#FF0000" fill-opacity="0.2"/>
</svg>
