<svg width="227" height="64" viewBox="0 0 227 64" fill="none" xmlns="http://www.w3.org/2000/svg">
<path d="M18.408 40.312C16.76 40.312 15.448 39.776 14.472 38.704C13.496 37.632 13.008 36.176 13.008 34.336C13.008 33.072 13.264 31.992 13.776 31.096C14.304 30.184 14.992 29.488 15.84 29.008C16.688 28.528 17.592 28.288 18.552 28.288C19.272 28.288 19.936 28.424 20.544 28.696C21.152 28.968 21.656 29.344 22.056 29.824C22.456 30.288 22.704 30.816 22.8 31.408C22.688 32.016 22.32 32.32 21.696 32.32C21.296 32.32 20.992 32.216 20.784 32.008C20.592 31.784 20.456 31.504 20.376 31.168L19.944 29.584C19.72 29.504 19.496 29.456 19.272 29.44C19.064 29.408 18.856 29.392 18.648 29.392C17.624 29.392 16.776 29.792 16.104 30.592C15.448 31.392 15.12 32.56 15.12 34.096C15.12 35.6 15.48 36.752 16.2 37.552C16.92 38.352 17.84 38.752 18.96 38.752C19.648 38.752 20.28 38.6 20.856 38.296C21.432 37.976 21.904 37.52 22.272 36.928L22.872 37.24C22.536 38.232 21.992 38.992 21.24 39.52C20.488 40.048 19.544 40.312 18.408 40.312ZM30.2948 40.312C29.3668 40.312 28.4788 40.096 27.6308 39.664C26.7988 39.216 26.1188 38.552 25.5908 37.672C25.0628 36.776 24.7988 35.672 24.7988 34.36C24.7988 33.032 25.0628 31.92 25.5908 31.024C26.1188 30.112 26.7988 29.432 27.6308 28.984C28.4788 28.52 29.3668 28.288 30.2948 28.288C31.2228 28.288 32.1028 28.52 32.9348 28.984C33.7828 29.432 34.4708 30.112 34.9988 31.024C35.5428 31.92 35.8148 33.032 35.8148 34.36C35.8148 35.672 35.5428 36.776 34.9988 37.672C34.4708 38.552 33.7828 39.216 32.9348 39.664C32.1028 40.096 31.2228 40.312 30.2948 40.312ZM30.2948 39.232C31.3348 39.232 32.1348 38.824 32.6948 38.008C33.2548 37.176 33.5348 35.96 33.5348 34.36C33.5348 32.744 33.2548 31.512 32.6948 30.664C32.1348 29.816 31.3348 29.392 30.2948 29.392C29.2548 29.392 28.4548 29.816 27.8948 30.664C27.3508 31.512 27.0788 32.744 27.0788 34.36C27.0788 35.96 27.3508 37.176 27.8948 38.008C28.4548 38.824 29.2548 39.232 30.2948 39.232ZM41.5763 40.312C40.7443 40.312 40.0803 40.088 39.5843 39.64C39.0883 39.192 38.8403 38.504 38.8403 37.576C38.8403 37.272 38.8403 36.976 38.8403 36.688C38.8563 36.384 38.8643 36 38.8643 35.536V29.872H36.8723V28.816L39.0083 28.552L39.6323 25.336H41.0723L40.9283 28.6H44.1683V29.872H40.9043V37.312C40.9043 37.92 41.0243 38.368 41.2643 38.656C41.5043 38.928 41.8243 39.064 42.2243 39.064C42.4963 39.064 42.7523 39.008 42.9922 38.896C43.2483 38.784 43.5283 38.624 43.8323 38.416L44.4083 39.04C43.7523 39.888 42.8083 40.312 41.5763 40.312Z" fill="black"/>
<rect x="47" y="26" width="13" height="15" fill="#FF0000" fill-opacity="0.2"/>
<path d="M50.2172 36.136C50.2172 36.872 50.3372 37.416 50.5772 37.768C50.8332 38.104 51.1692 38.272 51.5852 38.272C51.9532 38.272 52.3612 38.136 52.8092 37.864C53.2572 37.576 53.7772 37.12 54.3692 36.496L55.7132 30.232C55.5052 30.12 55.2812 30.032 55.0412 29.968C54.8172 29.888 54.5852 29.848 54.3452 29.848C53.6732 29.848 52.9532 30.216 52.1852 30.952C51.8172 31.32 51.4812 31.792 51.1772 32.368C50.8732 32.928 50.6332 33.536 50.4572 34.192C50.2972 34.848 50.2172 35.496 50.2172 36.136ZM55.7132 40.336C55.2492 40.336 54.8652 40.192 54.5612 39.904C54.2572 39.6 54.1052 39.152 54.1052 38.56C54.1052 38.416 54.1052 38.28 54.1052 38.152C54.1212 38.008 54.1372 37.872 54.1532 37.744C53.4812 38.512 52.7772 39.136 52.0412 39.616C51.3052 40.096 50.6092 40.336 49.9532 40.336C49.3452 40.336 48.7932 40.104 48.2972 39.64C47.8012 39.16 47.5532 38.368 47.5532 37.264C47.5532 36.416 47.7132 35.56 48.0332 34.696C48.3532 33.832 48.7852 33.016 49.3292 32.248C49.8732 31.464 50.4812 30.768 51.1532 30.16C51.8252 29.536 52.5212 29.048 53.2412 28.696C53.9612 28.344 54.6492 28.168 55.3052 28.168C55.6252 28.168 55.9132 28.232 56.1692 28.36C56.4252 28.472 56.6732 28.64 56.9132 28.864L58.3772 28.024L58.7852 28.288L56.8652 36.712C56.7372 37.256 56.6732 37.656 56.6732 37.912C56.6732 38.248 56.8412 38.416 57.1772 38.416C57.4492 38.416 57.7532 38.272 58.0892 37.984C58.4412 37.68 58.8172 37.28 59.2172 36.784L59.8652 37.264C59.5612 37.744 59.1932 38.224 58.7612 38.704C58.3292 39.168 57.8572 39.56 57.3452 39.88C56.8332 40.184 56.2892 40.336 55.7132 40.336Z" fill="#FF0000" fill-opacity="0.2"/>
</svg>
