<?xml version="1.0" standalone="no"?>
<!DOCTYPE svg PUBLIC "-//W3C//DTD SVG 20010904//EN"
 "http://www.w3.org/TR/2001/REC-SVG-20010904/DTD/svg10.dtd">
<svg version="1.0" xmlns="http://www.w3.org/2000/svg"
 width="500.000000pt" height="500.000000pt" viewBox="0 0 500.000000 500.000000"
 preserveAspectRatio="xMidYMid meet">
<metadata>
Created by potrace 1.11, written by Peter Selinger 2001-2013
</metadata>
<g transform="translate(0.000000,500.000000) scale(0.100000,-0.100000)"
fill="#000000" stroke="none">
<path d="M3810 2500 l0 -1590 150 0 150 0 0 1590 0 1590 -150 0 -150 0 0
-1590z"/>
<path d="M1440 3290 c0 -58 1 -60 28 -62 15 0 32 -2 37 -3 6 -1 43 -5 83 -10
l72 -8 0 -678 c0 -374 -3 -679 -7 -680 -5 0 -16 -2 -25 -4 -18 -3 -61 -10
-145 -21 l-53 -7 0 -58 0 -59 290 0 290 0 0 60 c0 55 -2 60 -22 62 -13 0 -27
2 -33 3 -27 4 -111 19 -117 21 -5 1 -14 2 -21 3 -11 1 -13 77 -13 389 -1 213
-4 479 -7 592 l-6 205 61 -155 c33 -85 89 -227 123 -315 35 -88 80 -203 100
-255 19 -52 40 -104 45 -115 5 -11 48 -121 96 -245 47 -124 89 -231 91 -238 4
-9 27 -12 85 -10 l81 3 143 390 c79 215 164 446 189 515 26 69 58 157 72 195
13 39 28 79 33 90 5 11 18 45 29 75 11 30 20 46 21 35 1 -33 -2 -994 -3 -1077
-1 -42 -4 -79 -7 -81 -5 -5 -48 -12 -135 -23 -27 -3 -50 -6 -51 -7 -3 -3 -6
-77 -5 -99 1 -17 25 -18 366 -18 l365 0 0 60 c0 59 -1 60 -27 61 -16 0 -39 2
-53 4 -14 3 -44 6 -68 8 -23 2 -48 9 -54 15 -9 9 -12 185 -11 682 0 369 2 672
4 674 5 5 55 13 134 21 33 4 62 9 65 11 2 3 5 29 5 59 l1 55 -277 0 -277 0
-10 -27 c-5 -16 -96 -262 -202 -548 -106 -286 -203 -549 -216 -584 -13 -35
-25 -65 -27 -67 -2 -2 -52 121 -112 274 -59 152 -149 383 -200 512 -51 129
-110 281 -131 337 l-39 103 -277 0 -278 0 0 -60z"/>
</g>
</svg>
